<svg xmlns="http://www.w3.org/2000/svg" xmlns:xlink="http://www.w3.org/1999/xlink" width="500" zoomAndPan="magnify" viewBox="0 0 375 374.999991" height="500" preserveAspectRatio="xMidYMid meet" version="1.0"><path stroke-linecap="butt" transform="matrix(-0.75, 0, 0, -0.75, 140.806666, 356.846813)" fill="none" stroke-linejoin="miter" d="M -0.0025708 1.498876 L 101.518269 1.498876 " stroke="#000000" stroke-width="3" stroke-opacity="1" stroke-miterlimit="4"/><path stroke-linecap="butt" transform="matrix(0, 0.75, -0.75, 0, 66.918912, 279.584074)" fill="none" stroke-linejoin="miter" d="M 0.00248408 1.501258 L 101.518116 1.501258 " stroke="#000000" stroke-width="3" stroke-opacity="1" stroke-miterlimit="4"/><path stroke-linecap="butt" transform="matrix(0, -0.75, 0.75, 0, 64.668912, 93.165918)" fill="none" stroke-linejoin="miter" d="M 0.00247384 1.498742 L 101.518106 1.498742 " stroke="#000000" stroke-width="3" stroke-opacity="1" stroke-miterlimit="4"/><path stroke-linecap="butt" transform="matrix(-0.75, 0, 0, -0.75, 141.931666, 19.278176)" fill="none" stroke-linejoin="miter" d="M -0.00257089 1.501109 L 101.518269 1.501109 " stroke="#000000" stroke-width="3" stroke-opacity="1" stroke-miterlimit="4"/><path stroke-linecap="butt" transform="matrix(0.75, 0, 0, 0.75, 234.191269, 18.153176)" fill="none" stroke-linejoin="miter" d="M 0.000182838 1.498891 L 101.515815 1.498891 " stroke="#000000" stroke-width="3" stroke-opacity="1" stroke-miterlimit="4"/><path stroke-linecap="butt" transform="matrix(0, -0.75, 0.75, 0, 308.079008, 95.415918)" fill="none" stroke-linejoin="miter" d="M 0.00247365 1.498822 L 101.518105 1.498822 " stroke="#000000" stroke-width="3" stroke-opacity="1" stroke-miterlimit="4"/><path stroke-linecap="butt" transform="matrix(0, 0.75, -0.75, 0, 310.329008, 281.834074)" fill="none" stroke-linejoin="miter" d="M 0.00248428 1.501178 L 101.518116 1.501178 " stroke="#000000" stroke-width="3" stroke-opacity="1" stroke-miterlimit="4"/><path stroke-linecap="butt" transform="matrix(0.75, 0, 0, 0.75, 233.066269, 355.721813)" fill="none" stroke-linejoin="miter" d="M 0.00018274 1.501124 L 101.515814 1.501124 " stroke="#000000" stroke-width="3" stroke-opacity="1" stroke-miterlimit="4"/><path stroke-linecap="butt" transform="matrix(0, -0.75, 0.75, 0, 186.370569, 239.624984)" fill="none" stroke-linejoin="miter" d="M -0.0000209805 1.5007 L 139.010405 1.5007 " stroke="#000000" stroke-width="3" stroke-opacity="1" stroke-miterlimit="4"/><path stroke-linecap="butt" transform="matrix(-0.75, 0, 0, -0.75, 239.620566, 188.624988)" fill="none" stroke-linejoin="miter" d="M -0.000704247 1.499984 L 139.009722 1.499984 " stroke="#000000" stroke-width="3" stroke-opacity="1" stroke-miterlimit="4"/></svg>