<svg xmlns="http://www.w3.org/2000/svg" xmlns:xlink="http://www.w3.org/1999/xlink" width="500" zoomAndPan="magnify" viewBox="0 0 375 374.999991" height="500" preserveAspectRatio="xMidYMid meet" version="1.0"><path stroke-linecap="butt" transform="matrix(-0.75, 0, 0, -0.75, 251.50578, 20.011171)" fill="none" stroke-linejoin="miter" d="M 0.00249831 1.499269 L 173.830635 1.499269 " stroke="#000000" stroke-width="3" stroke-opacity="1" stroke-miterlimit="4"/><path stroke-linecap="butt" transform="matrix(0, -0.75, 0.75, 0, 121.088536, 54.956687)" fill="none" stroke-linejoin="miter" d="M -0.000459278 1.501744 L 48.093294 1.501744 " stroke="#000000" stroke-width="3" stroke-opacity="1" stroke-miterlimit="4"/><path stroke-linecap="butt" transform="matrix(0, -0.75, 0.75, 0, 249.304119, 54.956687)" fill="none" stroke-linejoin="miter" d="M -0.000459278 1.500759 L 48.093294 1.500759 " stroke="#000000" stroke-width="3" stroke-opacity="1" stroke-miterlimit="4"/><path stroke-linecap="butt" transform="matrix(-0.75, 0, 0, -0.75, 325.071019, 57.160895)" fill="none" stroke-linejoin="miter" d="M 0.000942205 1.500985 L 366.860341 1.500985 " stroke="#000000" stroke-width="3" stroke-opacity="1" stroke-miterlimit="4"/><path stroke-linecap="butt" transform="matrix(-0.75, 0, 0, -0.75, 325.071019, 103.301595)" fill="none" stroke-linejoin="miter" d="M 0.000942205 1.501085 L 366.860341 1.501085 " stroke="#000000" stroke-width="3" stroke-opacity="1" stroke-miterlimit="4"/><path stroke-linecap="butt" transform="matrix(0, -0.75, 0.75, 0, 49.878071, 102.174135)" fill="none" stroke-linejoin="miter" d="M -0.00219515 1.501114 L 62.961351 1.501114 " stroke="#000000" stroke-width="3" stroke-opacity="1" stroke-miterlimit="4"/><path stroke-linecap="butt" transform="matrix(0, -0.75, 0.75, 0, 322.867015, 102.174135)" fill="none" stroke-linejoin="miter" d="M -0.00219515 1.50023 L 62.961351 1.50023 " stroke="#000000" stroke-width="3" stroke-opacity="1" stroke-miterlimit="4"/><path stroke-linecap="butt" transform="matrix(-0.125163, -0.739482, 0.739482, -0.125163, 111.758296, 357.235114)" fill="none" stroke-linejoin="miter" d="M 0.000723669 1.499673 L 344.667743 1.498361 " stroke="#000000" stroke-width="3" stroke-opacity="1" stroke-miterlimit="4"/><path stroke-linecap="butt" transform="matrix(0.131492, -0.738383, 0.738383, 0.131492, 258.432117, 356.660542)" fill="none" stroke-linejoin="miter" d="M -0.00224029 1.499547 L 344.664315 1.498682 " stroke="#000000" stroke-width="3" stroke-opacity="1" stroke-miterlimit="4"/><path stroke-linecap="butt" transform="matrix(-0.75, 0, 0, -0.75, 259.539391, 356.907399)" fill="none" stroke-linejoin="miter" d="M 0.000437543 1.501532 L 195.583784 1.501532 " stroke="#000000" stroke-width="3" stroke-opacity="1" stroke-miterlimit="4"/><path stroke-linecap="butt" transform="matrix(0.0967538, -0.743733, 0.743733, 0.0967538, 225.248721, 314.623105)" fill="none" stroke-linejoin="miter" d="M -0.00189171 1.498849 L 237.713684 1.498996 " stroke="#000000" stroke-width="3" stroke-opacity="1" stroke-miterlimit="4"/><path stroke-linecap="butt" transform="matrix(-0.0898579, -0.744598, 0.744598, -0.0898579, 143.34108, 314.906463)" fill="none" stroke-linejoin="miter" d="M -0.00218021 1.498468 L 235.737671 1.497794 " stroke="#000000" stroke-width="3" stroke-opacity="1" stroke-miterlimit="4"/><path stroke-linecap="butt" transform="matrix(0, -0.75, 0.75, 0, 185.19156, 316.16043)" fill="none" stroke-linejoin="miter" d="M 0.000364518 1.499796 L 237.838922 1.499796 " stroke="#000000" stroke-width="3" stroke-opacity="1" stroke-miterlimit="4"/></svg>