<svg xmlns="http://www.w3.org/2000/svg" xmlns:xlink="http://www.w3.org/1999/xlink" width="500" zoomAndPan="magnify" viewBox="0 0 375 374.999991" height="500" preserveAspectRatio="xMidYMid meet" version="1.0"><path stroke-linecap="butt" transform="matrix(-0.75, 0, 0, -0.75, 232.799872, 69.651742)" fill="none" stroke-linejoin="miter" d="M -0.00121285 0.999198 L 120.82692 0.999198 " stroke="#000000" stroke-width="2" stroke-opacity="1" stroke-miterlimit="4"/><path stroke-linecap="butt" transform="matrix(0, -0.75, 0.75, 0, 142.187837, 93.970796)" fill="none" stroke-linejoin="miter" d="M -0.00248003 0.999551 L 33.429814 0.999551 " stroke="#000000" stroke-width="2" stroke-opacity="1" stroke-miterlimit="4"/><path stroke-linecap="butt" transform="matrix(0, -0.75, 0.75, 0, 231.306844, 93.970796)" fill="none" stroke-linejoin="miter" d="M -0.00248003 1.002333 L 33.429814 1.002333 " stroke="#000000" stroke-width="2" stroke-opacity="1" stroke-miterlimit="4"/><path stroke-linecap="butt" transform="matrix(-0.75, 0, 0, -0.75, 283.933932, 95.473448)" fill="none" stroke-linejoin="miter" d="M 0.00045134 1.001056 L 254.99526 1.001056 " stroke="#000000" stroke-width="2" stroke-opacity="1" stroke-miterlimit="4"/><path stroke-linecap="butt" transform="matrix(-0.75, 0, 0, -0.75, 283.933932, 127.544538)" fill="none" stroke-linejoin="miter" d="M 0.00045134 1.002092 L 254.99526 1.002092 " stroke="#000000" stroke-width="2" stroke-opacity="1" stroke-miterlimit="4"/><path stroke-linecap="butt" transform="matrix(0, -0.75, 0.75, 0, 92.691385, 126.790244)" fill="none" stroke-linejoin="miter" d="M 0.00157597 1.000029 L 43.761996 1.000029 " stroke="#000000" stroke-width="2" stroke-opacity="1" stroke-miterlimit="4"/><path stroke-linecap="butt" transform="matrix(0, -0.75, 0.75, 0, 282.438238, 126.790244)" fill="none" stroke-linejoin="miter" d="M 0.00157597 0.999016 L 43.761996 0.999016 " stroke="#000000" stroke-width="2" stroke-opacity="1" stroke-miterlimit="4"/><path stroke-linecap="butt" transform="matrix(-0.125163, -0.739482, 0.739482, -0.125163, 135.705478, 304.073798)" fill="none" stroke-linejoin="miter" d="M -0.000846638 1.000333 L 239.566925 1.001297 " stroke="#000000" stroke-width="2" stroke-opacity="1" stroke-miterlimit="4"/><path stroke-linecap="butt" transform="matrix(0.131492, -0.738383, 0.738383, 0.131492, 237.654013, 303.68535)" fill="none" stroke-linejoin="miter" d="M 0.000158808 0.997573 L 239.565678 1.001525 " stroke="#000000" stroke-width="2" stroke-opacity="1" stroke-miterlimit="4"/><path stroke-linecap="butt" transform="matrix(-0.75, 0, 0, -0.75, 238.389159, 303.818711)" fill="none" stroke-linejoin="miter" d="M -0.00195434 0.997865 L 135.945971 0.997865 " stroke="#000000" stroke-width="2" stroke-opacity="1" stroke-miterlimit="4"/><path stroke-linecap="butt" transform="matrix(0.0967538, -0.743733, 0.743733, 0.0967538, 214.588248, 274.463478)" fill="none" stroke-linejoin="miter" d="M 0.00217448 0.999785 L 165.226943 1.00268 " stroke="#000000" stroke-width="2" stroke-opacity="1" stroke-miterlimit="4"/><path stroke-linecap="butt" transform="matrix(-0.0898579, -0.744598, 0.744598, -0.0898579, 157.653671, 274.650011)" fill="none" stroke-linejoin="miter" d="M 0.00203682 1.000473 L 163.854067 1.001474 " stroke="#000000" stroke-width="2" stroke-opacity="1" stroke-miterlimit="4"/><path stroke-linecap="butt" transform="matrix(0, -0.75, 0.75, 0, 186.748396, 275.530499)" fill="none" stroke-linejoin="miter" d="M -0.00100172 1.002138 L 165.316717 1.002138 " stroke="#000000" stroke-width="2" stroke-opacity="1" stroke-miterlimit="4"/></svg>