<svg xmlns="http://www.w3.org/2000/svg" xmlns:xlink="http://www.w3.org/1999/xlink" width="500" zoomAndPan="magnify" viewBox="0 0 375 374.999991" height="500" preserveAspectRatio="xMidYMid meet" version="1.0"><path stroke-linecap="butt" transform="matrix(-0.75, 0, 0, -0.75, 243.854403, 19.74996)" fill="none" stroke-linejoin="miter" d="M -0.00142115 1.499946 L 237.826719 1.499946 " stroke="#000000" stroke-width="3" stroke-opacity="1" stroke-miterlimit="4"/><path stroke-linecap="butt" transform="matrix(-0.75, 0, 0, -0.75, 308.448147, 357.500017)" fill="none" stroke-linejoin="miter" d="M -0.00142841 1.500022 L 323.951718 1.500022 " stroke="#000000" stroke-width="3" stroke-opacity="1" stroke-miterlimit="4"/><path stroke-linecap="butt" transform="matrix(0, -0.75, 0.75, 0, 65.321976, 356.369977)" fill="none" stroke-linejoin="miter" d="M -0.00148954 1.497782 L 448.951665 1.497782 " stroke="#000000" stroke-width="3" stroke-opacity="1" stroke-miterlimit="4"/><path stroke-linecap="butt" transform="matrix(0, -0.75, 0.75, 0, 307.421879, 357.410835)" fill="none" stroke-linejoin="miter" d="M 0.000904907 1.499995 L 365.469679 1.499995 " stroke="#000000" stroke-width="3" stroke-opacity="1" stroke-miterlimit="4"/><path stroke-linecap="butt" transform="matrix(0.53033, 0.53033, -0.53033, 0.53033, 244.65872, 17.833358)" fill="none" stroke-linejoin="miter" d="M 0.000103404 1.499996 L 121.968665 1.499996 " stroke="#000000" stroke-width="3" stroke-opacity="1" stroke-miterlimit="4"/><path stroke-linecap="butt" transform="matrix(-0.75, 0, 0, -0.75, 260.272019, 130.580089)" fill="none" stroke-linejoin="miter" d="M -0.00189079 1.49741 L 194.06583 1.49741 " stroke="#000000" stroke-width="3" stroke-opacity="1" stroke-miterlimit="4"/><path stroke-linecap="butt" transform="matrix(-0.75, 0, 0, -0.75, 164.377465, 175.727333)" fill="none" stroke-linejoin="miter" d="M -0.00192179 1.501028 L 66.216833 1.501028 " stroke="#000000" stroke-width="3" stroke-opacity="1" stroke-miterlimit="4"/><path stroke-linecap="butt" transform="matrix(-0.75, -0.000000001309, 0.000000001309, -0.75, 260.271988, 220.834673)" fill="none" stroke-linejoin="miter" d="M -0.00193239 1.498314 L 194.065789 1.498313 " stroke="#000000" stroke-width="3" stroke-opacity="1" stroke-miterlimit="4"/><path stroke-linecap="butt" transform="matrix(-0.75, 0.000000001309, -0.000000001309, -0.75, 260.273426, 175.707351)" fill="none" stroke-linejoin="miter" d="M -0.000015591 1.500426 L 97.031241 1.500426 " stroke="#000000" stroke-width="3" stroke-opacity="1" stroke-miterlimit="4"/><path stroke-linecap="butt" transform="matrix(-0.75, -0.000000001309, 0.000000001309, -0.75, 223.146991, 265.942015)" fill="none" stroke-linejoin="miter" d="M -0.00192914 1.500811 L 144.565789 1.500811 " stroke="#000000" stroke-width="3" stroke-opacity="1" stroke-miterlimit="4"/><path stroke-linecap="butt" transform="matrix(-0.75, -0.000000001309, 0.000000001309, -0.75, 141.631373, 311.049354)" fill="none" stroke-linejoin="miter" d="M -0.0019196 1.498097 L 35.878291 1.498097 " stroke="#000000" stroke-width="3" stroke-opacity="1" stroke-miterlimit="4"/><path stroke-linecap="butt" transform="matrix(-0.75, 0.000000001309, -0.000000001309, -0.75, 260.270203, 309.314512)" fill="none" stroke-linejoin="miter" d="M 0.000895143 1.497474 L 127.849862 1.497474 " stroke="#000000" stroke-width="3" stroke-opacity="1" stroke-miterlimit="4"/></svg>