<svg xmlns="http://www.w3.org/2000/svg" xmlns:xlink="http://www.w3.org/1999/xlink" width="500" zoomAndPan="magnify" viewBox="0 0 375 374.999991" height="500" preserveAspectRatio="xMidYMid meet" version="1.0"><path stroke-linecap="butt" transform="matrix(-0.75, 0, 0, -0.75, 228.260337, 66.111735)" fill="none" stroke-linejoin="miter" d="M -0.00184272 0.997938 L 172.008585 0.997938 " stroke="#000000" stroke-width="2" stroke-opacity="1" stroke-miterlimit="4"/><path stroke-linecap="butt" transform="matrix(-0.75, 0, 0, -0.75, 274.983003, 310.3883)" fill="none" stroke-linejoin="miter" d="M -0.00182901 1.002109 L 234.30027 1.002109 " stroke="#000000" stroke-width="2" stroke-opacity="1" stroke-miterlimit="4"/><path stroke-linecap="butt" transform="matrix(0, -0.75, 0.75, 0, 99.196976, 309.632792)" fill="none" stroke-linejoin="miter" d="M -0.0000267101 0.997783 L 324.70312 0.997783 " stroke="#000000" stroke-width="2" stroke-opacity="1" stroke-miterlimit="4"/><path stroke-linecap="butt" transform="matrix(0, -0.75, 0.75, 0, 274.292418, 310.383085)" fill="none" stroke-linejoin="miter" d="M 0.000363624 1.000735 L 264.328506 1.000735 " stroke="#000000" stroke-width="2" stroke-opacity="1" stroke-miterlimit="4"/><path stroke-linecap="butt" transform="matrix(0.53033, 0.53033, -0.53033, 0.53033, 228.794915, 64.833922)" fill="none" stroke-linejoin="miter" d="M 0.0000650836 0.998104 L 88.211641 0.998104 " stroke="#000000" stroke-width="2" stroke-opacity="1" stroke-miterlimit="4"/><path stroke-linecap="butt" transform="matrix(-0.75, 0, 0, -0.75, 240.123637, 146.26921)" fill="none" stroke-linejoin="miter" d="M -0.00181769 0.999571 L 140.357567 0.999571 " stroke="#000000" stroke-width="2" stroke-opacity="1" stroke-miterlimit="4"/><path stroke-linecap="butt" transform="matrix(-0.75, 0, 0, -0.75, 170.783796, 178.921745)" fill="none" stroke-linejoin="miter" d="M -0.00181302 0.999827 L 47.888815 0.999827 " stroke="#000000" stroke-width="2" stroke-opacity="1" stroke-miterlimit="4"/><path stroke-linecap="butt" transform="matrix(-0.75, -0.000000001309, 0.000000001309, -0.75, 240.123637, 211.545514)" fill="none" stroke-linejoin="miter" d="M -0.00181769 0.998186 L 140.357567 0.998185 " stroke="#000000" stroke-width="2" stroke-opacity="1" stroke-miterlimit="4"/><path stroke-linecap="butt" transform="matrix(-0.75, 0.000000001309, -0.000000001309, -0.75, 240.128895, 178.907333)" fill="none" stroke-linejoin="miter" d="M -0.0000148264 1.001444 L 70.177073 1.001444 " stroke="#000000" stroke-width="2" stroke-opacity="1" stroke-miterlimit="4"/><path stroke-linecap="butt" transform="matrix(-0.75, -0.000000001309, 0.000000001309, -0.75, 213.275981, 244.169223)" fill="none" stroke-linejoin="miter" d="M -0.00181714 1.001673 L 104.555481 1.001672 " stroke="#000000" stroke-width="2" stroke-opacity="1" stroke-miterlimit="4"/><path stroke-linecap="butt" transform="matrix(-0.75, -0.000000001309, 0.000000001309, -0.75, 154.318955, 276.79299)" fill="none" stroke-linejoin="miter" d="M -0.00180978 1.000028 L 25.951317 1.000028 " stroke="#000000" stroke-width="2" stroke-opacity="1" stroke-miterlimit="4"/><path stroke-linecap="butt" transform="matrix(-0.75, 0.000000001309, -0.000000001309, -0.75, 240.123723, 275.538205)" fill="none" stroke-linejoin="miter" d="M -0.00170249 0.998857 L 92.467054 0.998857 " stroke="#000000" stroke-width="2" stroke-opacity="1" stroke-miterlimit="4"/></svg>