<svg xmlns="http://www.w3.org/2000/svg" xmlns:xlink="http://www.w3.org/1999/xlink" width="500" zoomAndPan="magnify" viewBox="0 0 375 374.999991" height="500" preserveAspectRatio="xMidYMid meet" version="1.0"><path stroke-linecap="butt" transform="matrix(0, -0.75, 0.75, 0, 185.854679, 255.456545)" fill="none" stroke-linejoin="miter" d="M -0.000648567 2.001052 L 313.603539 2.001052 " stroke="#000000" stroke-width="4" stroke-opacity="1" stroke-miterlimit="4"/><path stroke-linecap="butt" transform="matrix(-0.528502, -0.532152, 0.532152, -0.528502, 186.287615, 256.514455)" fill="none" stroke-linejoin="miter" d="M 0.000732583 2.000057 L 143.945708 2.001895 " stroke="#000000" stroke-width="4" stroke-opacity="1" stroke-miterlimit="4"/><path stroke-linecap="butt" transform="matrix(-0.53033, 0.53033, -0.53033, -0.53033, 265.017966, 179.920023)" fill="none" stroke-linejoin="miter" d="M 0.000271022 2.000247 L 144.441571 2.000247 " stroke="#000000" stroke-width="4" stroke-opacity="1" stroke-miterlimit="4"/><path stroke-linecap="butt" transform="matrix(0, -0.75, 0.75, 0, 354.41714, 353.239664)" fill="none" stroke-linejoin="miter" d="M 0.00184367 2.001106 L 147.007062 2.001106 " stroke="#000000" stroke-width="4" stroke-opacity="1" stroke-miterlimit="4"/><path stroke-linecap="butt" transform="matrix(-0.75, 0, 0, -0.75, 355.912277, 354.742302)" fill="none" stroke-linejoin="miter" d="M -0.0023805 2.000152 L 449.117441 2.000152 " stroke="#000000" stroke-width="4" stroke-opacity="1" stroke-miterlimit="4"/><path stroke-linecap="butt" transform="matrix(0.000000001309, -0.75, 0.75, 0.000000001309, 17.577661, 353.239664)" fill="none" stroke-linejoin="miter" d="M 0.00184368 2.000618 L 147.007062 2.000618 " stroke="#000000" stroke-width="4" stroke-opacity="1" stroke-miterlimit="4"/></svg>