<svg xmlns="http://www.w3.org/2000/svg" xmlns:xlink="http://www.w3.org/1999/xlink" width="500" zoomAndPan="magnify" viewBox="0 0 375 374.999991" height="500" preserveAspectRatio="xMidYMid meet" version="1.0"><path stroke-linecap="butt" transform="matrix(0, -0.75, 0.75, 0, 186.651321, 233.057855)" fill="none" stroke-linejoin="miter" d="M -0.000984872 1.001364 L 208.806321 1.001364 " stroke="#000000" stroke-width="2" stroke-opacity="1" stroke-miterlimit="4"/><path stroke-linecap="butt" transform="matrix(-0.528502, -0.532152, 0.532152, -0.528502, 186.872438, 233.590223)" fill="none" stroke-linejoin="miter" d="M -0.00229677 1.000839 L 95.844385 0.998783 " stroke="#000000" stroke-width="2" stroke-opacity="1" stroke-miterlimit="4"/><path stroke-linecap="butt" transform="matrix(-0.53033, 0.53033, -0.53033, -0.53033, 238.938462, 182.588909)" fill="none" stroke-linejoin="miter" d="M 0.00178808 1.00176 L 96.175682 1.00176 " stroke="#000000" stroke-width="2" stroke-opacity="1" stroke-miterlimit="4"/><path stroke-linecap="butt" transform="matrix(0.000000001309, -0.75, 0.75, 0.000000001309, 298.887086, 298.166232)" fill="none" stroke-linejoin="miter" d="M -0.00231617 0.999511 L 97.883107 0.999511 " stroke="#000000" stroke-width="2" stroke-opacity="1" stroke-miterlimit="4"/><path stroke-linecap="butt" transform="matrix(-0.75, 0, 0, -0.75, 299.63351, 298.919042)" fill="none" stroke-linejoin="miter" d="M 0.000929499 1.001431 L 299.037407 1.001431 " stroke="#000000" stroke-width="2" stroke-opacity="1" stroke-miterlimit="4"/><path stroke-linecap="butt" transform="matrix(0.000000001309, -0.75, 0.75, 0.000000001309, 74.607276, 298.166232)" fill="none" stroke-linejoin="miter" d="M -0.00231617 0.997591 L 97.883107 0.997591 " stroke="#000000" stroke-width="2" stroke-opacity="1" stroke-miterlimit="4"/></svg>