<svg xmlns="http://www.w3.org/2000/svg" xmlns:xlink="http://www.w3.org/1999/xlink" width="500" zoomAndPan="magnify" viewBox="0 0 375 374.999991" height="500" preserveAspectRatio="xMidYMid meet" version="1.0"><defs><clipPath id="7436d9eaaa"><path d="M 38 189 L 337 189 L 337 339 L 38 339 Z M 38 189 " clip-rule="nonzero"/></clipPath><clipPath id="fb7090dd51"><path d="M 38.46875 189.558594 L 187.488281 40.535156 L 336.511719 189.558594 L 187.488281 338.582031 Z M 38.46875 189.558594 " clip-rule="nonzero"/></clipPath><clipPath id="86ddced1f6"><path d="M 38.46875 189.558594 L 187.488281 40.535156 L 336.511719 189.558594 L 187.488281 338.582031 Z M 38.46875 189.558594 " clip-rule="nonzero"/></clipPath><clipPath id="de73f0c4ba"><path d="M 71 189 L 304 189 L 304 306 L 71 306 Z M 71 189 " clip-rule="nonzero"/></clipPath><clipPath id="eb0673235f"><path d="M 71.601562 189.554688 L 187.742188 73.414062 L 303.886719 189.554688 L 187.742188 305.699219 Z M 71.601562 189.554688 " clip-rule="nonzero"/></clipPath><clipPath id="38c88c85f2"><path d="M 71.601562 189.554688 L 187.742188 73.414062 L 303.886719 189.554688 L 187.742188 305.699219 Z M 71.601562 189.554688 " clip-rule="nonzero"/></clipPath></defs><path stroke-linecap="butt" transform="matrix(0, -0.75, 0.75, 0, 38.662714, 189.741199)" fill="none" stroke-linejoin="miter" d="M -0.00131835 7.501798 L 27.753892 7.501798 " stroke="#ef3340" stroke-width="15" stroke-opacity="1" stroke-miterlimit="4"/><path stroke-linecap="butt" transform="matrix(0, -0.75, 0.75, 0, 325.081183, 189.755964)" fill="none" stroke-linejoin="miter" d="M -0.00246528 7.501131 L 56.450663 7.501131 " stroke="#ef3340" stroke-width="15" stroke-opacity="1" stroke-miterlimit="4"/><g clip-path="url(#7436d9eaaa)"><g clip-path="url(#fb7090dd51)"><g clip-path="url(#86ddced1f6)"><path fill="#ef3340" d="M 336.527344 189.558594 L 187.496094 338.589844 L 38.46875 189.558594 Z M 336.527344 189.558594 " fill-opacity="1" fill-rule="nonzero"/></g></g></g><g clip-path="url(#de73f0c4ba)"><g clip-path="url(#eb0673235f)"><g clip-path="url(#38c88c85f2)"><path fill="#ff5b67" d="M 303.386719 189.554688 L 187.496094 305.449219 L 71.601562 189.554688 Z M 303.386719 189.554688 " fill-opacity="1" fill-rule="nonzero"/></g></g></g><path stroke-linecap="butt" transform="matrix(0, -0.75, 0.75, 0, 181.87092, 204.384068)" fill="none" stroke-linejoin="miter" d="M 0.00167424 7.500232 L 85.777722 7.500232 " stroke="#ff5b67" stroke-width="15" stroke-opacity="1" stroke-miterlimit="4"/><path stroke-linecap="butt" transform="matrix(0, -0.75, 0.75, 0, 253.523573, 229.284009)" fill="none" stroke-linejoin="miter" d="M -0.00152974 7.49982 L 109.154727 7.49982 " stroke="#ff5b67" stroke-width="15" stroke-opacity="1" stroke-miterlimit="4"/><path stroke-linecap="butt" transform="matrix(0, -0.75, 0.75, 0, 110.861385, 229.284477)" fill="none" stroke-linejoin="miter" d="M -0.000905742 7.502529 L 122.874102 7.502529 " stroke="#ff5b67" stroke-width="15" stroke-opacity="1" stroke-miterlimit="4"/><path stroke-linecap="butt" transform="matrix(0.000000001309, -0.75, 0.75, 0.000000001309, 146.367885, 216.917153)" fill="none" stroke-linejoin="miter" d="M -0.00108771 7.49907 L 55.681208 7.49907 " stroke="#ff5b67" stroke-width="15" stroke-opacity="1" stroke-miterlimit="4"/><path stroke-linecap="butt" transform="matrix(0, -0.75, 0.75, 0, 218.524517, 216.919555)" fill="none" stroke-linejoin="miter" d="M 0.00211547 7.498562 L 159.002126 7.498562 " stroke="#ff5b67" stroke-width="15" stroke-opacity="1" stroke-miterlimit="4"/><path stroke-linecap="butt" transform="matrix(0.000000001309, -0.75, 0.75, 0.000000001309, 290.1744, 189.937312)" fill="none" stroke-linejoin="miter" d="M -0.000250217 7.501842 L 28.260168 7.501842 " stroke="#ff5b67" stroke-width="15" stroke-opacity="1" stroke-miterlimit="4"/><path stroke-linecap="butt" transform="matrix(0, -0.75, 0.75, 0, 74.211715, 190.915183)" fill="none" stroke-linejoin="miter" d="M 0.00149355 7.498964 L 21.011912 7.498964 " stroke="#ff5b67" stroke-width="15" stroke-opacity="1" stroke-miterlimit="4"/><path stroke-linecap="butt" transform="matrix(0, -0.75, 0.75, 0, 74.213716, 147.420929)" fill="none" stroke-linejoin="miter" d="M -0.00126171 7.501504 L 28.196657 7.501504 " stroke="#ff5b67" stroke-width="15" stroke-opacity="1" stroke-miterlimit="4"/><path stroke-linecap="butt" transform="matrix(0, -0.75, 0.75, 0, 110.862873, 109.576046)" fill="none" stroke-linejoin="miter" d="M 0.00243687 7.500545 L 23.507647 7.500545 " stroke="#ff5b67" stroke-width="15" stroke-opacity="1" stroke-miterlimit="4"/><path stroke-linecap="butt" transform="matrix(0, -0.75, 0.75, 0, 146.366743, 147.419755)" fill="none" stroke-linejoin="miter" d="M 0.00238183 7.500593 L 148.023225 7.500593 " stroke="#ff5b67" stroke-width="15" stroke-opacity="1" stroke-miterlimit="4"/><path stroke-linecap="butt" transform="matrix(0, -0.75, 0.75, 0, 181.872254, 112.497062)" fill="none" stroke-linejoin="miter" d="M 0.00129128 7.498453 L 73.834629 7.498453 " stroke="#ff5b67" stroke-width="15" stroke-opacity="1" stroke-miterlimit="4"/><path stroke-linecap="butt" transform="matrix(0, -0.75, 0.75, 0, 218.519683, 70.108239)" fill="none" stroke-linejoin="miter" d="M -0.00151521 7.499798 L 27.982862 7.499798 " stroke="#ff5b67" stroke-width="15" stroke-opacity="1" stroke-miterlimit="4"/><path stroke-linecap="butt" transform="matrix(0, -0.75, 0.75, 0, 253.527557, 120.260618)" fill="none" stroke-linejoin="miter" d="M -0.00146806 7.499717 L 55.003744 7.499717 " stroke="#ff5b67" stroke-width="15" stroke-opacity="1" stroke-miterlimit="4"/><path stroke-linecap="butt" transform="matrix(0, -0.75, 0.75, 0, 290.173433, 141.184678)" fill="none" stroke-linejoin="miter" d="M 0.00144557 7.497924 L 27.902489 7.497924 " stroke="#ff5b67" stroke-width="15" stroke-opacity="1" stroke-miterlimit="4"/></svg>