<svg xmlns="http://www.w3.org/2000/svg" xmlns:xlink="http://www.w3.org/1999/xlink" width="500" zoomAndPan="magnify" viewBox="0 0 375 374.999991" height="500" preserveAspectRatio="xMidYMid meet" version="1.0"><defs><g/><clipPath id="ad54000332"><path d="M 37 193 L 136 193 L 136 243 L 37 243 Z M 37 193 " clip-rule="nonzero"/></clipPath><clipPath id="c44cd08c3a"><path d="M 37.503906 193.273438 L 86.292969 144.484375 L 135.082031 193.273438 L 86.292969 242.0625 Z M 37.503906 193.273438 " clip-rule="nonzero"/></clipPath><clipPath id="521441e435"><path d="M 37.503906 193.273438 L 86.292969 144.484375 L 135.082031 193.273438 L 86.292969 242.0625 Z M 37.503906 193.273438 " clip-rule="nonzero"/></clipPath><clipPath id="1000c1f6ef"><path d="M 48 193 L 125 193 L 125 232 L 48 232 Z M 48 193 " clip-rule="nonzero"/></clipPath><clipPath id="2269b81475"><path d="M 48.351562 193.273438 L 86.535156 155.089844 L 124.71875 193.273438 L 86.535156 231.457031 Z M 48.351562 193.273438 " clip-rule="nonzero"/></clipPath><clipPath id="4b8dc74ea3"><path d="M 48.351562 193.273438 L 86.535156 155.089844 L 124.71875 193.273438 L 86.535156 231.457031 Z M 48.351562 193.273438 " clip-rule="nonzero"/></clipPath></defs><g fill="#ef3340" fill-opacity="1"><g transform="translate(171.363539, 188.899982)"><g><path d="M 3.328125 -20.9375 L 3.328125 -0.953125 C 3.328125 -0.796875 3.40625 -0.695312 3.5625 -0.65625 C 4.707031 -0.414062 5.929688 -0.296875 7.234375 -0.296875 C 10.710938 -0.296875 13.378906 -1.238281 15.234375 -3.125 C 17.097656 -5.019531 18.03125 -7.726562 18.03125 -11.25 C 18.03125 -14.644531 17.113281 -17.21875 15.28125 -18.96875 C 13.457031 -20.71875 10.773438 -21.59375 7.234375 -21.59375 C 5.929688 -21.59375 4.707031 -21.472656 3.5625 -21.234375 C 3.40625 -21.203125 3.328125 -21.101562 3.328125 -20.9375 Z M 18.625 -11.25 C 18.625 -7.53125 17.644531 -4.675781 15.6875 -2.6875 C 13.726562 -0.695312 10.910156 0.296875 7.234375 0.296875 C 6.273438 0.296875 5.34375 0.238281 4.4375 0.125 C 3.9375 0.0390625 3.523438 -0.191406 3.203125 -0.578125 C 2.890625 -0.972656 2.734375 -1.421875 2.734375 -1.921875 L 2.734375 -19.984375 C 2.734375 -20.484375 2.882812 -20.921875 3.1875 -21.296875 C 3.5 -21.679688 3.894531 -21.910156 4.375 -21.984375 C 5.457031 -22.128906 6.410156 -22.203125 7.234375 -22.203125 C 10.910156 -22.203125 13.726562 -21.253906 15.6875 -19.359375 C 17.644531 -17.472656 18.625 -14.769531 18.625 -11.25 Z M 18.625 -11.25 "/></g></g></g><g fill="#ef3340" fill-opacity="1"><g transform="translate(191.37352, 188.899982)"><g><path d="M 8.28125 -15.296875 C 6.382812 -15.296875 4.894531 -14.707031 3.8125 -13.53125 C 2.726562 -12.351562 2.128906 -10.679688 2.015625 -8.515625 C 2.015625 -8.335938 2.09375 -8.25 2.25 -8.25 L 13.703125 -8.25 C 13.867188 -8.25 13.953125 -8.335938 13.953125 -8.515625 C 13.867188 -10.703125 13.34375 -12.378906 12.375 -13.546875 C 11.40625 -14.710938 10.039062 -15.296875 8.28125 -15.296875 Z M 8.578125 0.296875 C 6.359375 0.296875 4.601562 -0.425781 3.3125 -1.875 C 2.019531 -3.320312 1.375 -5.296875 1.375 -7.796875 C 1.375 -10.335938 1.984375 -12.320312 3.203125 -13.75 C 4.429688 -15.1875 6.125 -15.90625 8.28125 -15.90625 C 10.082031 -15.90625 11.519531 -15.332031 12.59375 -14.1875 C 13.675781 -13.050781 14.316406 -11.441406 14.515625 -9.359375 C 14.554688 -8.898438 14.410156 -8.5 14.078125 -8.15625 C 13.753906 -7.820312 13.351562 -7.65625 12.875 -7.65625 L 2.25 -7.65625 C 2.070312 -7.65625 1.984375 -7.5625 1.984375 -7.375 C 2.054688 -5.15625 2.671875 -3.421875 3.828125 -2.171875 C 4.992188 -0.921875 6.578125 -0.296875 8.578125 -0.296875 C 10.222656 -0.296875 11.734375 -0.6875 13.109375 -1.46875 C 13.285156 -1.570312 13.425781 -1.53125 13.53125 -1.34375 C 13.632812 -1.164062 13.59375 -1.03125 13.40625 -0.9375 C 11.90625 -0.113281 10.296875 0.296875 8.578125 0.296875 Z M 8.578125 0.296875 "/></g></g></g><g fill="#ef3340" fill-opacity="1"><g transform="translate(207.423503, 188.899982)"><g><path d="M 7.078125 -0.296875 C 8.597656 -0.296875 9.800781 -0.613281 10.6875 -1.25 C 11.582031 -1.894531 12.03125 -2.78125 12.03125 -3.90625 C 12.03125 -4.9375 11.640625 -5.757812 10.859375 -6.375 C 10.078125 -6.988281 8.796875 -7.460938 7.015625 -7.796875 C 5.179688 -8.160156 3.859375 -8.664062 3.046875 -9.3125 C 2.234375 -9.96875 1.828125 -10.863281 1.828125 -12 C 1.828125 -13.175781 2.300781 -14.117188 3.25 -14.828125 C 4.207031 -15.546875 5.484375 -15.90625 7.078125 -15.90625 C 8.734375 -15.90625 10.34375 -15.539062 11.90625 -14.8125 C 12.09375 -14.738281 12.144531 -14.609375 12.0625 -14.421875 C 11.976562 -14.242188 11.835938 -14.195312 11.640625 -14.28125 C 10.140625 -14.957031 8.617188 -15.296875 7.078125 -15.296875 C 5.660156 -15.296875 4.53125 -14.992188 3.6875 -14.390625 C 2.851562 -13.796875 2.4375 -13 2.4375 -12 C 2.4375 -11.101562 2.765625 -10.367188 3.421875 -9.796875 C 4.078125 -9.222656 5.316406 -8.757812 7.140625 -8.40625 C 9.054688 -8.019531 10.445312 -7.472656 11.3125 -6.765625 C 12.1875 -6.054688 12.625 -5.101562 12.625 -3.90625 C 12.625 -2.601562 12.125 -1.578125 11.125 -0.828125 C 10.125 -0.078125 8.773438 0.296875 7.078125 0.296875 C 5.273438 0.296875 3.601562 -0.148438 2.0625 -1.046875 C 1.90625 -1.148438 1.878906 -1.289062 1.984375 -1.46875 C 2.078125 -1.625 2.21875 -1.65625 2.40625 -1.5625 C 3.84375 -0.71875 5.398438 -0.296875 7.078125 -0.296875 Z M 7.078125 -0.296875 "/></g></g></g><g fill="#ef3340" fill-opacity="1"><g transform="translate(221.88349, 188.899982)"><g><path d="M 8.875 0.296875 C 6.632812 0.296875 4.820312 -0.441406 3.4375 -1.921875 C 2.0625 -3.398438 1.375 -5.359375 1.375 -7.796875 C 1.375 -10.296875 2.046875 -12.269531 3.390625 -13.71875 C 4.734375 -15.175781 6.5625 -15.90625 8.875 -15.90625 C 10.300781 -15.90625 11.613281 -15.601562 12.8125 -15 C 13.007812 -14.914062 13.050781 -14.773438 12.9375 -14.578125 C 12.851562 -14.441406 12.722656 -14.398438 12.546875 -14.453125 C 11.421875 -15.015625 10.195312 -15.296875 8.875 -15.296875 C 6.71875 -15.296875 5.03125 -14.632812 3.8125 -13.3125 C 2.59375 -12 1.984375 -10.160156 1.984375 -7.796875 C 1.984375 -5.554688 2.613281 -3.742188 3.875 -2.359375 C 5.132812 -0.984375 6.800781 -0.296875 8.875 -0.296875 C 10.195312 -0.296875 11.421875 -0.578125 12.546875 -1.140625 C 12.722656 -1.203125 12.851562 -1.160156 12.9375 -1.015625 C 13.050781 -0.816406 13.007812 -0.675781 12.8125 -0.59375 C 11.632812 0 10.320312 0.296875 8.875 0.296875 Z M 8.875 0.296875 "/></g></g></g><g fill="#ef3340" fill-opacity="1"><g transform="translate(236.973474, 188.899982)"><g><path d="M 12.625 -6.296875 L 12.625 -8.875 C 12.625 -9.0625 12.535156 -9.15625 12.359375 -9.15625 L 10.828125 -9.15625 C 8.109375 -9.15625 6.003906 -8.722656 4.515625 -7.859375 C 3.023438 -6.992188 2.28125 -5.773438 2.28125 -4.203125 C 2.28125 -3.003906 2.671875 -2.050781 3.453125 -1.34375 C 4.234375 -0.644531 5.289062 -0.296875 6.625 -0.296875 C 8.363281 -0.296875 9.796875 -0.859375 10.921875 -1.984375 C 12.054688 -3.117188 12.625 -4.554688 12.625 -6.296875 Z M 10.828125 -9.75 L 12.359375 -9.75 C 12.535156 -9.75 12.625 -9.828125 12.625 -9.984375 C 12.601562 -11.984375 12.25 -13.367188 11.5625 -14.140625 C 10.875 -14.910156 9.628906 -15.296875 7.828125 -15.296875 C 6.066406 -15.296875 4.40625 -14.878906 2.84375 -14.046875 C 2.664062 -13.941406 2.53125 -13.96875 2.4375 -14.125 C 2.332031 -14.3125 2.367188 -14.453125 2.546875 -14.546875 C 4.191406 -15.453125 5.953125 -15.90625 7.828125 -15.90625 C 9.804688 -15.90625 11.203125 -15.460938 12.015625 -14.578125 C 12.828125 -13.703125 13.234375 -12.144531 13.234375 -9.90625 L 13.234375 -4.203125 C 13.234375 -2.859375 13.363281 -1.566406 13.625 -0.328125 C 13.664062 -0.109375 13.582031 0 13.375 0 C 13.15625 0 13.023438 -0.109375 12.984375 -0.328125 C 12.828125 -1.128906 12.726562 -2.148438 12.6875 -3.390625 C 12.6875 -3.429688 12.664062 -3.453125 12.625 -3.453125 C 12.601562 -3.453125 12.59375 -3.429688 12.59375 -3.390625 C 12.070312 -2.253906 11.285156 -1.351562 10.234375 -0.6875 C 9.191406 -0.03125 7.988281 0.296875 6.625 0.296875 C 5.125 0.296875 3.925781 -0.109375 3.03125 -0.921875 C 2.132812 -1.742188 1.6875 -2.835938 1.6875 -4.203125 C 1.6875 -5.960938 2.476562 -7.328125 4.0625 -8.296875 C 5.65625 -9.265625 7.910156 -9.75 10.828125 -9.75 Z M 10.828125 -9.75 "/></g></g></g><g fill="#ef3340" fill-opacity="1"><g transform="translate(252.693455, 188.899982)"><g><path d="M 3.03125 -8.40625 L 3.03125 -0.296875 C 3.03125 -0.0976562 2.929688 0 2.734375 0 C 2.535156 0 2.4375 -0.0976562 2.4375 -0.296875 L 2.4375 -15.296875 C 2.4375 -15.492188 2.535156 -15.59375 2.734375 -15.59375 C 2.929688 -15.59375 3.03125 -15.492188 3.03125 -15.296875 L 3.03125 -11.15625 C 3.03125 -11.132812 3.039062 -11.125 3.0625 -11.125 C 3.082031 -11.125 3.09375 -11.132812 3.09375 -11.15625 C 3.707031 -12.539062 4.710938 -13.664062 6.109375 -14.53125 C 7.515625 -15.40625 9.085938 -15.863281 10.828125 -15.90625 C 11.023438 -15.90625 11.125 -15.800781 11.125 -15.59375 C 11.125 -15.394531 11.023438 -15.296875 10.828125 -15.296875 C 8.671875 -15.222656 6.832031 -14.519531 5.3125 -13.1875 C 3.789062 -11.851562 3.03125 -10.257812 3.03125 -8.40625 Z M 3.03125 -8.40625 "/></g></g></g><g fill="#ef3340" fill-opacity="1"><g transform="translate(265.623447, 188.899982)"><g><path d="M 5.4375 -4.203125 L 5.4375 -14.125 C 5.4375 -14.3125 5.34375 -14.40625 5.15625 -14.40625 L 1.984375 -14.40625 C 1.785156 -14.40625 1.6875 -14.503906 1.6875 -14.703125 C 1.6875 -14.898438 1.785156 -15 1.984375 -15 L 5.15625 -15 C 5.34375 -15 5.4375 -15.085938 5.4375 -15.265625 L 5.4375 -20.40625 C 5.4375 -20.601562 5.535156 -20.703125 5.734375 -20.703125 C 5.929688 -20.703125 6.03125 -20.601562 6.03125 -20.40625 L 6.03125 -15.265625 C 6.03125 -15.085938 6.117188 -15 6.296875 -15 L 12.1875 -15 C 12.382812 -15 12.484375 -14.898438 12.484375 -14.703125 C 12.484375 -14.503906 12.382812 -14.40625 12.1875 -14.40625 L 6.296875 -14.40625 C 6.117188 -14.40625 6.03125 -14.3125 6.03125 -14.125 L 6.03125 -4.203125 C 6.03125 -2.597656 6.273438 -1.546875 6.765625 -1.046875 C 7.253906 -0.546875 8.160156 -0.296875 9.484375 -0.296875 C 10.265625 -0.296875 11.003906 -0.40625 11.703125 -0.625 C 11.878906 -0.707031 12.007812 -0.640625 12.09375 -0.421875 C 12.15625 -0.265625 12.082031 -0.144531 11.875 -0.0625 C 11.0625 0.175781 10.265625 0.296875 9.484375 0.296875 C 7.941406 0.296875 6.878906 -0.0195312 6.296875 -0.65625 C 5.722656 -1.300781 5.4375 -2.484375 5.4375 -4.203125 Z M 5.4375 -4.203125 "/></g></g></g><g fill="#ef3340" fill-opacity="1"><g transform="translate(280.233431, 188.899982)"><g><path d="M 8.28125 -15.296875 C 6.382812 -15.296875 4.894531 -14.707031 3.8125 -13.53125 C 2.726562 -12.351562 2.128906 -10.679688 2.015625 -8.515625 C 2.015625 -8.335938 2.09375 -8.25 2.25 -8.25 L 13.703125 -8.25 C 13.867188 -8.25 13.953125 -8.335938 13.953125 -8.515625 C 13.867188 -10.703125 13.34375 -12.378906 12.375 -13.546875 C 11.40625 -14.710938 10.039062 -15.296875 8.28125 -15.296875 Z M 8.578125 0.296875 C 6.359375 0.296875 4.601562 -0.425781 3.3125 -1.875 C 2.019531 -3.320312 1.375 -5.296875 1.375 -7.796875 C 1.375 -10.335938 1.984375 -12.320312 3.203125 -13.75 C 4.429688 -15.1875 6.125 -15.90625 8.28125 -15.90625 C 10.082031 -15.90625 11.519531 -15.332031 12.59375 -14.1875 C 13.675781 -13.050781 14.316406 -11.441406 14.515625 -9.359375 C 14.554688 -8.898438 14.410156 -8.5 14.078125 -8.15625 C 13.753906 -7.820312 13.351562 -7.65625 12.875 -7.65625 L 2.25 -7.65625 C 2.070312 -7.65625 1.984375 -7.5625 1.984375 -7.375 C 2.054688 -5.15625 2.671875 -3.421875 3.828125 -2.171875 C 4.992188 -0.921875 6.578125 -0.296875 8.578125 -0.296875 C 10.222656 -0.296875 11.734375 -0.6875 13.109375 -1.46875 C 13.285156 -1.570312 13.425781 -1.53125 13.53125 -1.34375 C 13.632812 -1.164062 13.59375 -1.03125 13.40625 -0.9375 C 11.90625 -0.113281 10.296875 0.296875 8.578125 0.296875 Z M 8.578125 0.296875 "/></g></g></g><g fill="#ef3340" fill-opacity="1"><g transform="translate(296.283414, 188.899982)"><g><path d="M 7.078125 -0.296875 C 8.597656 -0.296875 9.800781 -0.613281 10.6875 -1.25 C 11.582031 -1.894531 12.03125 -2.78125 12.03125 -3.90625 C 12.03125 -4.9375 11.640625 -5.757812 10.859375 -6.375 C 10.078125 -6.988281 8.796875 -7.460938 7.015625 -7.796875 C 5.179688 -8.160156 3.859375 -8.664062 3.046875 -9.3125 C 2.234375 -9.96875 1.828125 -10.863281 1.828125 -12 C 1.828125 -13.175781 2.300781 -14.117188 3.25 -14.828125 C 4.207031 -15.546875 5.484375 -15.90625 7.078125 -15.90625 C 8.734375 -15.90625 10.34375 -15.539062 11.90625 -14.8125 C 12.09375 -14.738281 12.144531 -14.609375 12.0625 -14.421875 C 11.976562 -14.242188 11.835938 -14.195312 11.640625 -14.28125 C 10.140625 -14.957031 8.617188 -15.296875 7.078125 -15.296875 C 5.660156 -15.296875 4.53125 -14.992188 3.6875 -14.390625 C 2.851562 -13.796875 2.4375 -13 2.4375 -12 C 2.4375 -11.101562 2.765625 -10.367188 3.421875 -9.796875 C 4.078125 -9.222656 5.316406 -8.757812 7.140625 -8.40625 C 9.054688 -8.019531 10.445312 -7.472656 11.3125 -6.765625 C 12.1875 -6.054688 12.625 -5.101562 12.625 -3.90625 C 12.625 -2.601562 12.125 -1.578125 11.125 -0.828125 C 10.125 -0.078125 8.773438 0.296875 7.078125 0.296875 C 5.273438 0.296875 3.601562 -0.148438 2.0625 -1.046875 C 1.90625 -1.148438 1.878906 -1.289062 1.984375 -1.46875 C 2.078125 -1.625 2.21875 -1.65625 2.40625 -1.5625 C 3.84375 -0.71875 5.398438 -0.296875 7.078125 -0.296875 Z M 7.078125 -0.296875 "/></g></g></g><g fill="#ef3340" fill-opacity="1"><g transform="translate(150.08229, 212.14998)"><g><path d="M 9.75 0.578125 C 10.707031 0.578125 11.300781 0.535156 11.53125 0.453125 C 11.8125 0.328125 11.992188 0.0625 12.078125 -0.34375 C 12.128906 -0.632812 12.171875 -1.0625 12.203125 -1.625 C 12.222656 -1.71875 12.269531 -1.757812 12.34375 -1.75 C 12.4375 -1.738281 12.476562 -1.691406 12.46875 -1.609375 C 12.46875 -1.597656 12.453125 -1.332031 12.421875 -0.8125 C 12.410156 -0.65625 12.375 -0.460938 12.3125 -0.234375 C 12.257812 -0.00390625 12.21875 0.140625 12.1875 0.203125 C 12.132812 0.296875 12.054688 0.394531 11.953125 0.5 C 11.828125 0.601562 11.722656 0.671875 11.640625 0.703125 C 11.554688 0.722656 11.40625 0.75 11.1875 0.78125 C 10.882812 0.8125 10.675781 0.828125 10.5625 0.828125 C 10.507812 0.828125 10.390625 0.828125 10.203125 0.828125 C 10.023438 0.835938 9.875 0.84375 9.75 0.84375 C 9.144531 0.84375 8.757812 0.835938 8.59375 0.828125 C 8.28125 0.816406 8.039062 0.800781 7.875 0.78125 C 7.65625 0.75 7.507812 0.6875 7.4375 0.59375 C 7.363281 0.519531 7.3125 0.425781 7.28125 0.3125 C 7.238281 0.175781 7.21875 0.0078125 7.21875 -0.1875 L 7.21875 -5.046875 C 7.21875 -5.242188 7.289062 -5.414062 7.4375 -5.5625 C 7.582031 -5.707031 7.753906 -5.78125 7.953125 -5.78125 L 10.640625 -5.78125 C 10.835938 -5.78125 11.007812 -5.707031 11.15625 -5.5625 C 11.289062 -5.425781 11.351562 -5.253906 11.34375 -5.046875 C 11.28125 -4.066406 11.21875 -3.398438 11.15625 -3.046875 C 11.070312 -2.628906 10.984375 -2.347656 10.890625 -2.203125 C 10.804688 -2.078125 10.664062 -2.015625 10.46875 -2.015625 C 10.070312 -2.015625 9.5625 -2.050781 8.9375 -2.125 C 8.863281 -2.144531 8.832031 -2.195312 8.84375 -2.28125 C 8.851562 -2.363281 8.894531 -2.398438 8.96875 -2.390625 C 9.570312 -2.316406 10.070312 -2.28125 10.46875 -2.28125 C 10.582031 -2.28125 10.671875 -2.34375 10.734375 -2.46875 C 10.785156 -2.582031 10.847656 -2.878906 10.921875 -3.359375 C 10.992188 -3.878906 11.054688 -4.566406 11.109375 -5.421875 C 11.109375 -5.492188 11.070312 -5.53125 11 -5.53125 L 7.59375 -5.53125 C 7.507812 -5.53125 7.46875 -5.488281 7.46875 -5.40625 L 7.46875 -0.1875 C 7.46875 0.113281 7.515625 0.304688 7.609375 0.390625 C 7.753906 0.515625 8.242188 0.578125 9.078125 0.578125 Z M 10.0625 -9.625 L 7.234375 -9.625 C 7.148438 -9.625 7.097656 -9.59375 7.078125 -9.53125 C 6.816406 -8.945312 6.484375 -8.375 6.078125 -7.8125 C 6.066406 -7.789062 6.066406 -7.769531 6.078125 -7.75 C 6.097656 -7.738281 6.117188 -7.734375 6.140625 -7.734375 L 8.984375 -7.734375 C 9.054688 -7.734375 9.113281 -7.765625 9.15625 -7.828125 C 9.519531 -8.390625 9.84375 -8.953125 10.125 -9.515625 C 10.132812 -9.535156 10.128906 -9.5625 10.109375 -9.59375 C 10.097656 -9.613281 10.082031 -9.625 10.0625 -9.625 Z M 4.921875 -6.4375 C 4.867188 -6.375 4.8125 -6.375 4.75 -6.4375 C 4.6875 -6.5 4.6875 -6.554688 4.75 -6.609375 C 5.875 -7.742188 6.707031 -9.085938 7.25 -10.640625 C 7.28125 -10.722656 7.332031 -10.75 7.40625 -10.71875 C 7.5 -10.695312 7.523438 -10.640625 7.484375 -10.546875 L 7.265625 -9.984375 C 7.253906 -9.960938 7.257812 -9.9375 7.28125 -9.90625 C 7.289062 -9.882812 7.304688 -9.875 7.328125 -9.875 L 10.328125 -9.875 C 10.421875 -9.875 10.46875 -9.832031 10.46875 -9.75 C 10.46875 -9.65625 10.445312 -9.578125 10.40625 -9.515625 C 10.15625 -8.984375 9.84375 -8.414062 9.46875 -7.8125 C 9.445312 -7.789062 9.441406 -7.769531 9.453125 -7.75 C 9.472656 -7.738281 9.492188 -7.734375 9.515625 -7.734375 L 12.21875 -7.734375 C 12.300781 -7.734375 12.34375 -7.6875 12.34375 -7.59375 C 12.34375 -7.507812 12.300781 -7.46875 12.21875 -7.46875 L 6.09375 -7.46875 C 6.019531 -7.46875 5.984375 -7.429688 5.984375 -7.359375 L 5.984375 -5.84375 C 5.984375 -3.3125 5.648438 -1.132812 4.984375 0.6875 C 4.929688 0.78125 4.875 0.8125 4.8125 0.78125 C 4.726562 0.75 4.703125 0.6875 4.734375 0.59375 C 5.390625 -1.164062 5.71875 -3.3125 5.71875 -5.84375 L 5.71875 -7.21875 C 5.71875 -7.238281 5.707031 -7.25 5.6875 -7.25 C 5.675781 -7.25 5.664062 -7.242188 5.65625 -7.234375 C 5.414062 -6.972656 5.171875 -6.707031 4.921875 -6.4375 Z M 1.4375 -2.359375 L 1.4375 0.078125 C 1.4375 0.148438 1.472656 0.1875 1.546875 0.1875 L 4.109375 0.1875 C 4.179688 0.1875 4.21875 0.148438 4.21875 0.078125 L 4.21875 -2.359375 C 4.21875 -2.429688 4.179688 -2.46875 4.109375 -2.46875 L 1.546875 -2.46875 C 1.472656 -2.46875 1.4375 -2.429688 1.4375 -2.359375 Z M 1.171875 0.96875 L 1.171875 -1.984375 C 1.171875 -2.203125 1.238281 -2.378906 1.375 -2.515625 C 1.519531 -2.660156 1.695312 -2.734375 1.90625 -2.734375 L 3.75 -2.734375 C 3.957031 -2.734375 4.128906 -2.660156 4.265625 -2.515625 C 4.410156 -2.367188 4.484375 -2.191406 4.484375 -1.984375 L 4.484375 -0.28125 C 4.484375 -0.0820312 4.410156 0.0859375 4.265625 0.234375 C 4.117188 0.378906 3.945312 0.453125 3.75 0.453125 L 1.515625 0.453125 C 1.460938 0.453125 1.4375 0.484375 1.4375 0.546875 L 1.4375 0.96875 C 1.4375 1.0625 1.390625 1.109375 1.296875 1.109375 C 1.210938 1.109375 1.171875 1.0625 1.171875 0.96875 Z M 1.359375 -4.296875 C 1.273438 -4.296875 1.234375 -4.335938 1.234375 -4.421875 C 1.234375 -4.503906 1.273438 -4.546875 1.359375 -4.546875 L 4.296875 -4.546875 C 4.378906 -4.546875 4.421875 -4.503906 4.421875 -4.421875 C 4.421875 -4.335938 4.378906 -4.296875 4.296875 -4.296875 Z M 4.296875 -6.375 C 4.378906 -6.375 4.421875 -6.328125 4.421875 -6.234375 C 4.421875 -6.148438 4.378906 -6.109375 4.296875 -6.109375 L 1.359375 -6.109375 C 1.273438 -6.109375 1.234375 -6.148438 1.234375 -6.234375 C 1.234375 -6.328125 1.273438 -6.375 1.359375 -6.375 Z M 4.75 -8.1875 C 4.832031 -8.1875 4.875 -8.144531 4.875 -8.0625 C 4.875 -7.976562 4.832031 -7.9375 4.75 -7.9375 L 0.90625 -7.9375 C 0.820312 -7.9375 0.78125 -7.976562 0.78125 -8.0625 C 0.78125 -8.144531 0.820312 -8.1875 0.90625 -8.1875 Z M 4.359375 -9.9375 C 4.441406 -9.9375 4.484375 -9.894531 4.484375 -9.8125 C 4.484375 -9.726562 4.441406 -9.6875 4.359375 -9.6875 L 1.296875 -9.6875 C 1.210938 -9.6875 1.171875 -9.726562 1.171875 -9.8125 C 1.171875 -9.894531 1.210938 -9.9375 1.296875 -9.9375 Z M 4.359375 -9.9375 "/></g></g></g><g fill="#ef3340" fill-opacity="1"><g transform="translate(163.078303, 212.14998)"><g><path d="M 4.359375 -5.203125 C 4.359375 -4.960938 4.347656 -4.625 4.328125 -4.1875 C 4.328125 -4.125 4.363281 -4.09375 4.4375 -4.09375 L 8.921875 -4.09375 C 8.992188 -4.09375 9.03125 -4.132812 9.03125 -4.21875 L 9.03125 -6.984375 C 9.03125 -7.046875 9 -7.078125 8.9375 -7.078125 C 7.414062 -6.972656 5.921875 -6.882812 4.453125 -6.8125 C 4.390625 -6.8125 4.359375 -6.769531 4.359375 -6.6875 Z M 1.546875 0.796875 C 2.390625 0.253906 2.992188 -0.335938 3.359375 -0.984375 C 3.722656 -1.640625 3.953125 -2.550781 4.046875 -3.71875 C 4.054688 -3.789062 4.019531 -3.828125 3.9375 -3.828125 L 0.90625 -3.828125 C 0.820312 -3.828125 0.78125 -3.867188 0.78125 -3.953125 C 0.78125 -4.046875 0.820312 -4.09375 0.90625 -4.09375 L 3.953125 -4.09375 C 4.023438 -4.09375 4.0625 -4.132812 4.0625 -4.21875 C 4.082031 -4.613281 4.09375 -4.941406 4.09375 -5.203125 L 4.09375 -6.6875 C 4.09375 -6.769531 4.054688 -6.800781 3.984375 -6.78125 C 3.484375 -6.769531 2.585938 -6.738281 1.296875 -6.6875 C 1.210938 -6.6875 1.171875 -6.726562 1.171875 -6.8125 C 1.171875 -6.90625 1.21875 -6.953125 1.3125 -6.953125 C 1.957031 -6.972656 2.4375 -6.988281 2.75 -7 C 2.8125 -7 2.867188 -7.023438 2.921875 -7.078125 C 3.785156 -8.097656 4.59375 -9.253906 5.34375 -10.546875 C 5.375 -10.617188 5.4375 -10.632812 5.53125 -10.59375 C 5.601562 -10.5625 5.617188 -10.5 5.578125 -10.40625 C 4.859375 -9.21875 4.09375 -8.113281 3.28125 -7.09375 C 3.257812 -7.082031 3.253906 -7.066406 3.265625 -7.046875 C 3.273438 -7.023438 3.285156 -7.015625 3.296875 -7.015625 C 5.554688 -7.109375 7.878906 -7.253906 10.265625 -7.453125 C 10.285156 -7.453125 10.304688 -7.460938 10.328125 -7.484375 C 10.328125 -7.503906 10.320312 -7.523438 10.3125 -7.546875 C 9.707031 -8.109375 9.117188 -8.628906 8.546875 -9.109375 C 8.472656 -9.160156 8.460938 -9.222656 8.515625 -9.296875 C 8.578125 -9.367188 8.640625 -9.375 8.703125 -9.3125 C 9.890625 -8.3125 10.9375 -7.328125 11.84375 -6.359375 C 11.894531 -6.296875 11.890625 -6.234375 11.828125 -6.171875 C 11.765625 -6.109375 11.703125 -6.109375 11.640625 -6.171875 C 11.335938 -6.515625 11.03125 -6.835938 10.71875 -7.140625 C 10.664062 -7.203125 10.601562 -7.222656 10.53125 -7.203125 L 9.40625 -7.109375 C 9.332031 -7.109375 9.296875 -7.070312 9.296875 -7 L 9.296875 -4.21875 C 9.296875 -4.132812 9.332031 -4.09375 9.40625 -4.09375 L 12.09375 -4.09375 C 12.175781 -4.09375 12.21875 -4.046875 12.21875 -3.953125 C 12.21875 -3.867188 12.175781 -3.828125 12.09375 -3.828125 L 9.40625 -3.828125 C 9.332031 -3.828125 9.296875 -3.789062 9.296875 -3.71875 L 9.296875 0.84375 C 9.296875 0.925781 9.25 0.96875 9.15625 0.96875 C 9.070312 0.96875 9.03125 0.925781 9.03125 0.84375 L 9.03125 -3.71875 C 9.03125 -3.789062 8.992188 -3.828125 8.921875 -3.828125 L 4.421875 -3.828125 C 4.347656 -3.828125 4.304688 -3.789062 4.296875 -3.71875 C 4.203125 -2.5 3.960938 -1.546875 3.578125 -0.859375 C 3.171875 -0.160156 2.53125 0.460938 1.65625 1.015625 C 1.582031 1.078125 1.53125 1.066406 1.5 0.984375 C 1.457031 0.910156 1.472656 0.847656 1.546875 0.796875 Z M 1.546875 0.796875 "/></g></g></g><g fill="#ef3340" fill-opacity="1"><g transform="translate(176.074315, 212.14998)"><g><path d="M 6.625 -5.328125 L 6.625 -4.03125 C 6.625 -3.945312 6.582031 -3.90625 6.5 -3.90625 C 6.414062 -3.90625 6.375 -3.945312 6.375 -4.03125 L 6.375 -5.328125 C 6.375 -5.410156 6.414062 -5.453125 6.5 -5.453125 C 6.582031 -5.453125 6.625 -5.410156 6.625 -5.328125 Z M 6.625 -5.328125 "/></g></g></g><g fill="#ef3340" fill-opacity="1"><g transform="translate(189.070328, 212.14998)"><g><path d="M 1.4375 -2.359375 L 1.4375 0.078125 C 1.4375 0.148438 1.472656 0.1875 1.546875 0.1875 L 4.109375 0.1875 C 4.179688 0.1875 4.21875 0.148438 4.21875 0.078125 L 4.21875 -2.359375 C 4.21875 -2.429688 4.179688 -2.46875 4.109375 -2.46875 L 1.546875 -2.46875 C 1.472656 -2.46875 1.4375 -2.429688 1.4375 -2.359375 Z M 1.171875 0.96875 L 1.171875 -1.984375 C 1.171875 -2.203125 1.238281 -2.378906 1.375 -2.515625 C 1.519531 -2.660156 1.695312 -2.734375 1.90625 -2.734375 L 3.75 -2.734375 C 3.957031 -2.734375 4.128906 -2.660156 4.265625 -2.515625 C 4.410156 -2.367188 4.484375 -2.191406 4.484375 -1.984375 L 4.484375 -0.28125 C 4.484375 -0.0820312 4.410156 0.0859375 4.265625 0.234375 C 4.117188 0.378906 3.945312 0.453125 3.75 0.453125 L 1.515625 0.453125 C 1.460938 0.453125 1.4375 0.484375 1.4375 0.546875 L 1.4375 0.96875 C 1.4375 1.0625 1.390625 1.109375 1.296875 1.109375 C 1.210938 1.109375 1.171875 1.0625 1.171875 0.96875 Z M 1.359375 -4.296875 C 1.273438 -4.296875 1.234375 -4.335938 1.234375 -4.421875 C 1.234375 -4.503906 1.273438 -4.546875 1.359375 -4.546875 L 4.296875 -4.546875 C 4.378906 -4.546875 4.421875 -4.503906 4.421875 -4.421875 C 4.421875 -4.335938 4.378906 -4.296875 4.296875 -4.296875 Z M 4.296875 -6.375 C 4.378906 -6.375 4.421875 -6.328125 4.421875 -6.234375 C 4.421875 -6.148438 4.378906 -6.109375 4.296875 -6.109375 L 1.359375 -6.109375 C 1.273438 -6.109375 1.234375 -6.148438 1.234375 -6.234375 C 1.234375 -6.328125 1.273438 -6.375 1.359375 -6.375 Z M 4.75 -8.1875 C 4.832031 -8.1875 4.875 -8.144531 4.875 -8.0625 C 4.875 -7.976562 4.832031 -7.9375 4.75 -7.9375 L 0.90625 -7.9375 C 0.820312 -7.9375 0.78125 -7.976562 0.78125 -8.0625 C 0.78125 -8.144531 0.820312 -8.1875 0.90625 -8.1875 Z M 4.359375 -9.9375 C 4.441406 -9.9375 4.484375 -9.894531 4.484375 -9.8125 C 4.484375 -9.726562 4.441406 -9.6875 4.359375 -9.6875 L 1.296875 -9.6875 C 1.210938 -9.6875 1.171875 -9.726562 1.171875 -9.8125 C 1.171875 -9.894531 1.210938 -9.9375 1.296875 -9.9375 Z M 12.3125 0.734375 C 12.363281 0.796875 12.351562 0.851562 12.28125 0.90625 C 12.21875 0.957031 12.160156 0.953125 12.109375 0.890625 C 11.316406 -0.117188 10.410156 -1.023438 9.390625 -1.828125 C 9.316406 -1.878906 9.304688 -1.941406 9.359375 -2.015625 C 9.410156 -2.085938 9.472656 -2.097656 9.546875 -2.046875 C 10.609375 -1.179688 11.53125 -0.253906 12.3125 0.734375 Z M 4.84375 0.59375 C 5.40625 0.238281 5.914062 -0.164062 6.375 -0.625 C 6.863281 -1.113281 7.253906 -1.582031 7.546875 -2.03125 C 7.597656 -2.101562 7.660156 -2.117188 7.734375 -2.078125 C 7.816406 -2.035156 7.832031 -1.972656 7.78125 -1.890625 C 7.457031 -1.398438 7.046875 -0.914062 6.546875 -0.4375 C 6.046875 0.0507812 5.523438 0.46875 4.984375 0.8125 C 4.910156 0.863281 4.851562 0.851562 4.8125 0.78125 C 4.78125 0.707031 4.789062 0.644531 4.84375 0.59375 Z M 10.984375 -3.109375 L 10.984375 -4.5 C 10.984375 -4.570312 10.945312 -4.609375 10.875 -4.609375 L 6.46875 -4.609375 C 6.257812 -4.609375 6.078125 -4.6875 5.921875 -4.84375 C 5.785156 -4.976562 5.71875 -5.148438 5.71875 -5.359375 L 5.71875 -9.234375 C 5.71875 -9.316406 5.757812 -9.359375 5.84375 -9.359375 C 5.9375 -9.359375 5.984375 -9.316406 5.984375 -9.234375 L 5.984375 -4.984375 C 5.984375 -4.910156 6.019531 -4.875 6.09375 -4.875 L 10.5 -4.875 C 10.695312 -4.875 10.867188 -4.800781 11.015625 -4.65625 C 11.171875 -4.507812 11.25 -4.335938 11.25 -4.140625 L 11.25 -3.109375 C 11.25 -3.023438 11.285156 -2.984375 11.359375 -2.984375 L 12.34375 -2.984375 C 12.4375 -2.984375 12.484375 -2.941406 12.484375 -2.859375 C 12.484375 -2.773438 12.4375 -2.734375 12.34375 -2.734375 L 5 -2.734375 C 4.914062 -2.734375 4.875 -2.773438 4.875 -2.859375 C 4.875 -2.941406 4.914062 -2.984375 5 -2.984375 L 10.875 -2.984375 C 10.945312 -2.984375 10.984375 -3.023438 10.984375 -3.109375 Z M 7.40625 -9.640625 L 7.40625 -6.609375 C 7.40625 -6.535156 7.445312 -6.5 7.53125 -6.5 L 11.390625 -6.5 C 11.460938 -6.5 11.5 -6.535156 11.5 -6.609375 L 11.5 -9.640625 C 11.5 -9.710938 11.460938 -9.75 11.390625 -9.75 L 7.53125 -9.75 C 7.445312 -9.75 7.40625 -9.710938 7.40625 -9.640625 Z M 11.03125 -6.234375 L 7.890625 -6.234375 C 7.671875 -6.234375 7.492188 -6.300781 7.359375 -6.4375 C 7.222656 -6.582031 7.15625 -6.765625 7.15625 -6.984375 L 7.15625 -9.265625 C 7.15625 -9.484375 7.222656 -9.660156 7.359375 -9.796875 C 7.492188 -9.941406 7.671875 -10.015625 7.890625 -10.015625 L 11.03125 -10.015625 C 11.238281 -10.015625 11.410156 -9.941406 11.546875 -9.796875 C 11.691406 -9.648438 11.765625 -9.472656 11.765625 -9.265625 L 11.765625 -6.984375 C 11.765625 -6.773438 11.691406 -6.597656 11.546875 -6.453125 C 11.410156 -6.304688 11.238281 -6.234375 11.03125 -6.234375 Z M 11.03125 -6.234375 "/></g></g></g><g fill="#ef3340" fill-opacity="1"><g transform="translate(202.066341, 212.14998)"><g><path d="M 1.296875 -2.359375 L 1.296875 0.078125 C 1.296875 0.148438 1.335938 0.1875 1.421875 0.1875 L 3.84375 0.1875 C 3.925781 0.1875 3.96875 0.148438 3.96875 0.078125 L 3.96875 -2.359375 C 3.96875 -2.429688 3.925781 -2.46875 3.84375 -2.46875 L 1.421875 -2.46875 C 1.335938 -2.46875 1.296875 -2.429688 1.296875 -2.359375 Z M 1.046875 0.96875 L 1.046875 -1.984375 C 1.046875 -2.203125 1.113281 -2.378906 1.25 -2.515625 C 1.382812 -2.660156 1.5625 -2.734375 1.78125 -2.734375 L 3.484375 -2.734375 C 3.691406 -2.734375 3.863281 -2.660156 4 -2.515625 C 4.144531 -2.367188 4.21875 -2.191406 4.21875 -1.984375 L 4.21875 -0.28125 C 4.21875 -0.0820312 4.144531 0.0859375 4 0.234375 C 3.851562 0.378906 3.679688 0.453125 3.484375 0.453125 L 1.390625 0.453125 C 1.328125 0.453125 1.296875 0.484375 1.296875 0.546875 L 1.296875 0.96875 C 1.296875 1.0625 1.253906 1.109375 1.171875 1.109375 C 1.085938 1.109375 1.046875 1.0625 1.046875 0.96875 Z M 1.234375 -4.296875 C 1.148438 -4.296875 1.109375 -4.335938 1.109375 -4.421875 C 1.109375 -4.503906 1.148438 -4.546875 1.234375 -4.546875 L 4.03125 -4.546875 C 4.113281 -4.546875 4.15625 -4.503906 4.15625 -4.421875 C 4.15625 -4.335938 4.113281 -4.296875 4.03125 -4.296875 Z M 4.03125 -6.375 C 4.113281 -6.375 4.15625 -6.328125 4.15625 -6.234375 C 4.15625 -6.148438 4.113281 -6.109375 4.03125 -6.109375 L 1.234375 -6.109375 C 1.148438 -6.109375 1.109375 -6.148438 1.109375 -6.234375 C 1.109375 -6.328125 1.148438 -6.375 1.234375 -6.375 Z M 4.21875 -8.1875 C 4.3125 -8.1875 4.359375 -8.144531 4.359375 -8.0625 C 4.359375 -7.976562 4.3125 -7.9375 4.21875 -7.9375 L 0.84375 -7.9375 C 0.757812 -7.9375 0.71875 -7.976562 0.71875 -8.0625 C 0.71875 -8.144531 0.757812 -8.1875 0.84375 -8.1875 Z M 4.09375 -9.9375 C 4.175781 -9.9375 4.21875 -9.894531 4.21875 -9.8125 C 4.21875 -9.726562 4.175781 -9.6875 4.09375 -9.6875 L 1.171875 -9.6875 C 1.085938 -9.6875 1.046875 -9.726562 1.046875 -9.8125 C 1.046875 -9.894531 1.085938 -9.9375 1.171875 -9.9375 Z M 11.96875 -1.390625 C 12.039062 -1.441406 12.101562 -1.429688 12.15625 -1.359375 C 12.207031 -1.296875 12.191406 -1.238281 12.109375 -1.1875 C 10.484375 -0.125 8.234375 0.546875 5.359375 0.828125 C 5.265625 0.847656 5.210938 0.8125 5.203125 0.71875 C 5.191406 0.625 5.226562 0.578125 5.3125 0.578125 C 8.15625 0.285156 10.375 -0.367188 11.96875 -1.390625 Z M 5.328125 -1.375 C 7.617188 -1.613281 9.457031 -2.15625 10.84375 -3 C 10.914062 -3.039062 10.976562 -3.03125 11.03125 -2.96875 C 11.082031 -2.882812 11.0625 -2.820312 10.96875 -2.78125 C 9.5625 -1.9375 7.691406 -1.382812 5.359375 -1.125 C 5.265625 -1.101562 5.210938 -1.140625 5.203125 -1.234375 C 5.191406 -1.316406 5.234375 -1.363281 5.328125 -1.375 Z M 5.3125 -3.328125 C 7.070312 -3.546875 8.539062 -3.972656 9.71875 -4.609375 C 9.78125 -4.648438 9.832031 -4.628906 9.875 -4.546875 C 9.914062 -4.472656 9.90625 -4.414062 9.84375 -4.375 C 8.65625 -3.738281 7.15625 -3.300781 5.34375 -3.0625 C 5.257812 -3.0625 5.210938 -3.101562 5.203125 -3.1875 C 5.191406 -3.269531 5.226562 -3.316406 5.3125 -3.328125 Z M 8.875 -6.359375 C 8.789062 -6.328125 8.734375 -6.351562 8.703125 -6.4375 C 8.679688 -6.519531 8.710938 -6.578125 8.796875 -6.609375 C 9.867188 -6.941406 10.738281 -7.3125 11.40625 -7.71875 C 11.46875 -7.757812 11.519531 -7.738281 11.5625 -7.65625 C 11.613281 -7.582031 11.609375 -7.53125 11.546875 -7.5 C 10.796875 -7.050781 9.90625 -6.671875 8.875 -6.359375 Z M 9.21875 -9.328125 C 9.800781 -8.972656 10.332031 -8.613281 10.8125 -8.25 C 10.894531 -8.1875 10.910156 -8.125 10.859375 -8.0625 C 10.804688 -7.988281 10.738281 -7.984375 10.65625 -8.046875 C 10.0625 -8.472656 9.535156 -8.828125 9.078125 -9.109375 C 9.003906 -9.160156 8.988281 -9.226562 9.03125 -9.3125 C 9.070312 -9.375 9.132812 -9.378906 9.21875 -9.328125 Z M 11.890625 -5.921875 L 11.890625 -9.640625 C 11.890625 -9.710938 11.851562 -9.75 11.78125 -9.75 L 8.703125 -9.75 C 8.617188 -9.75 8.578125 -9.789062 8.578125 -9.875 C 8.578125 -9.96875 8.617188 -10.015625 8.703125 -10.015625 L 11.40625 -10.015625 C 11.613281 -10.015625 11.789062 -9.941406 11.9375 -9.796875 C 12.082031 -9.648438 12.15625 -9.472656 12.15625 -9.265625 L 12.15625 -5.921875 C 12.15625 -5.660156 12.113281 -5.5 12.03125 -5.4375 C 11.945312 -5.363281 11.769531 -5.328125 11.5 -5.328125 C 11.144531 -5.328125 10.707031 -5.34375 10.1875 -5.375 C 10.101562 -5.382812 10.066406 -5.429688 10.078125 -5.515625 C 10.085938 -5.609375 10.128906 -5.648438 10.203125 -5.640625 C 10.722656 -5.609375 11.15625 -5.59375 11.5 -5.59375 C 11.707031 -5.59375 11.820312 -5.601562 11.84375 -5.625 C 11.875 -5.65625 11.890625 -5.753906 11.890625 -5.921875 Z M 7.4375 -7.484375 C 6.707031 -7.046875 5.820312 -6.664062 4.78125 -6.34375 C 4.695312 -6.320312 4.640625 -6.351562 4.609375 -6.4375 C 4.585938 -6.519531 4.617188 -6.578125 4.703125 -6.609375 C 5.773438 -6.941406 6.644531 -7.3125 7.3125 -7.71875 C 7.375 -7.757812 7.425781 -7.738281 7.46875 -7.65625 C 7.519531 -7.582031 7.507812 -7.523438 7.4375 -7.484375 Z M 6.59375 -8.03125 C 6.144531 -8.363281 5.609375 -8.722656 4.984375 -9.109375 C 4.921875 -9.160156 4.90625 -9.226562 4.9375 -9.3125 C 4.96875 -9.375 5.03125 -9.378906 5.125 -9.328125 C 5.757812 -8.941406 6.300781 -8.578125 6.75 -8.234375 C 6.8125 -8.179688 6.816406 -8.117188 6.765625 -8.046875 C 6.710938 -7.984375 6.65625 -7.976562 6.59375 -8.03125 Z M 7.796875 -6.171875 L 7.796875 -9.640625 C 7.796875 -9.710938 7.757812 -9.75 7.6875 -9.75 L 4.875 -9.75 C 4.789062 -9.75 4.75 -9.789062 4.75 -9.875 C 4.75 -9.96875 4.789062 -10.015625 4.875 -10.015625 L 7.3125 -10.015625 C 7.53125 -10.015625 7.707031 -9.941406 7.84375 -9.796875 C 7.988281 -9.660156 8.0625 -9.484375 8.0625 -9.265625 L 8.0625 -6.0625 L 8.078125 -6.0625 L 8.140625 -6.109375 C 8.222656 -6.191406 8.320312 -6.234375 8.4375 -6.234375 C 8.5625 -6.234375 8.671875 -6.191406 8.765625 -6.109375 C 9.890625 -5.171875 11.132812 -4.335938 12.5 -3.609375 C 12.5625 -3.578125 12.578125 -3.519531 12.546875 -3.4375 C 12.503906 -3.351562 12.445312 -3.332031 12.375 -3.375 C 10.96875 -4.125 9.691406 -4.984375 8.546875 -5.953125 C 8.484375 -6.003906 8.425781 -6.003906 8.375 -5.953125 C 7.195312 -4.984375 5.914062 -4.125 4.53125 -3.375 C 4.457031 -3.332031 4.398438 -3.351562 4.359375 -3.4375 C 4.316406 -3.519531 4.332031 -3.578125 4.40625 -3.609375 C 5.5 -4.203125 6.492188 -4.84375 7.390625 -5.53125 C 7.410156 -5.539062 7.414062 -5.550781 7.40625 -5.5625 C 7.394531 -5.582031 7.382812 -5.59375 7.375 -5.59375 C 7.007812 -5.59375 6.582031 -5.609375 6.09375 -5.640625 C 6.007812 -5.648438 5.972656 -5.695312 5.984375 -5.78125 C 5.992188 -5.875 6.035156 -5.914062 6.109375 -5.90625 C 6.628906 -5.863281 7.0625 -5.84375 7.40625 -5.84375 C 7.601562 -5.84375 7.71875 -5.851562 7.75 -5.875 C 7.78125 -5.90625 7.796875 -6.003906 7.796875 -6.171875 Z M 7.796875 -6.171875 "/></g></g></g><g fill="#ef3340" fill-opacity="1"><g transform="translate(215.062353, 212.14998)"><g><path d="M 6.390625 -8.9375 C 4.898438 -8.8125 3.703125 -8.285156 2.796875 -7.359375 C 1.890625 -6.441406 1.4375 -5.289062 1.4375 -3.90625 C 1.4375 -2.925781 1.644531 -2.113281 2.0625 -1.46875 C 2.476562 -0.832031 2.914062 -0.515625 3.375 -0.515625 C 3.539062 -0.515625 3.703125 -0.554688 3.859375 -0.640625 C 4.023438 -0.722656 4.207031 -0.863281 4.40625 -1.0625 C 4.613281 -1.257812 4.8125 -1.5625 5 -1.96875 C 5.195312 -2.382812 5.382812 -2.882812 5.5625 -3.46875 C 5.75 -4.050781 5.921875 -4.800781 6.078125 -5.71875 C 6.234375 -6.632812 6.363281 -7.675781 6.46875 -8.84375 C 6.46875 -8.90625 6.441406 -8.9375 6.390625 -8.9375 Z M 3.375 -0.265625 C 2.820312 -0.265625 2.316406 -0.613281 1.859375 -1.3125 C 1.398438 -2.007812 1.171875 -2.875 1.171875 -3.90625 C 1.171875 -5.46875 1.710938 -6.742188 2.796875 -7.734375 C 3.890625 -8.734375 5.296875 -9.234375 7.015625 -9.234375 C 8.410156 -9.234375 9.5625 -8.800781 10.46875 -7.9375 C 11.375 -7.082031 11.828125 -6 11.828125 -4.6875 C 11.828125 -3.332031 11.492188 -2.226562 10.828125 -1.375 C 10.160156 -0.519531 9.25 -0.0234375 8.09375 0.109375 C 8 0.128906 7.945312 0.09375 7.9375 0 C 7.9375 -0.0820312 7.972656 -0.128906 8.046875 -0.140625 C 9.128906 -0.265625 9.984375 -0.726562 10.609375 -1.53125 C 11.242188 -2.34375 11.5625 -3.394531 11.5625 -4.6875 C 11.5625 -5.914062 11.132812 -6.9375 10.28125 -7.75 C 9.425781 -8.5625 8.335938 -8.96875 7.015625 -8.96875 L 6.84375 -8.96875 C 6.769531 -8.96875 6.734375 -8.929688 6.734375 -8.859375 C 6.597656 -7.492188 6.429688 -6.289062 6.234375 -5.25 C 6.035156 -4.207031 5.828125 -3.375 5.609375 -2.75 C 5.390625 -2.132812 5.144531 -1.632812 4.875 -1.25 C 4.601562 -0.863281 4.347656 -0.601562 4.109375 -0.46875 C 3.878906 -0.332031 3.632812 -0.265625 3.375 -0.265625 Z M 3.375 -0.265625 "/></g></g></g><g fill="#ef3340" fill-opacity="1"><g transform="translate(228.058366, 212.14998)"><g><path d="M 0.625 -2.125 C 0.59375 -2.0625 0.535156 -2.046875 0.453125 -2.078125 C 0.378906 -2.109375 0.363281 -2.171875 0.40625 -2.265625 C 1.257812 -3.953125 1.882812 -5.710938 2.28125 -7.546875 C 2.28125 -7.578125 2.273438 -7.609375 2.265625 -7.640625 C 2.253906 -7.660156 2.226562 -7.671875 2.1875 -7.671875 L 0.71875 -7.671875 C 0.625 -7.671875 0.578125 -7.710938 0.578125 -7.796875 C 0.578125 -7.890625 0.625 -7.9375 0.71875 -7.9375 L 2.28125 -7.9375 C 2.363281 -7.9375 2.40625 -7.972656 2.40625 -8.046875 L 2.40625 -10.265625 C 2.40625 -10.359375 2.445312 -10.40625 2.53125 -10.40625 C 2.625 -10.40625 2.671875 -10.359375 2.671875 -10.265625 L 2.671875 -8.046875 C 2.671875 -7.972656 2.707031 -7.9375 2.78125 -7.9375 L 3.96875 -7.9375 C 4.050781 -7.9375 4.09375 -7.890625 4.09375 -7.796875 C 4.09375 -7.710938 4.050781 -7.671875 3.96875 -7.671875 L 2.84375 -7.671875 C 2.8125 -7.671875 2.789062 -7.660156 2.78125 -7.640625 C 2.757812 -7.617188 2.757812 -7.59375 2.78125 -7.5625 L 4.171875 -3.671875 C 4.203125 -3.585938 4.175781 -3.53125 4.09375 -3.5 C 4.019531 -3.476562 3.960938 -3.507812 3.921875 -3.59375 L 2.703125 -7 C 2.691406 -7.007812 2.679688 -7.015625 2.671875 -7.015625 C 2.671875 -7.015625 2.671875 -7.007812 2.671875 -7 L 2.671875 0.90625 C 2.671875 1 2.625 1.046875 2.53125 1.046875 C 2.445312 1.046875 2.40625 1 2.40625 0.90625 L 2.40625 -6.84375 L 2.375 -6.84375 C 1.988281 -5.226562 1.40625 -3.65625 0.625 -2.125 Z M 5.25 -3.375 L 7.984375 -3.375 C 8.054688 -3.375 8.097656 -3.414062 8.109375 -3.5 C 8.117188 -3.570312 8.125 -3.679688 8.125 -3.828125 L 8.125 -6 C 8.125 -6.070312 8.085938 -6.109375 8.015625 -6.109375 L 5.25 -6.109375 C 5.175781 -6.109375 5.140625 -6.070312 5.140625 -6 L 5.140625 -3.5 C 5.140625 -3.414062 5.175781 -3.375 5.25 -3.375 Z M 11.265625 -6.109375 L 8.5 -6.109375 C 8.425781 -6.109375 8.390625 -6.070312 8.390625 -6 L 8.390625 -3.828125 C 8.390625 -3.679688 8.390625 -3.570312 8.390625 -3.5 C 8.410156 -3.414062 8.457031 -3.375 8.53125 -3.375 L 11.265625 -3.375 C 11.335938 -3.375 11.375 -3.410156 11.375 -3.484375 L 11.375 -6 C 11.375 -6.070312 11.335938 -6.109375 11.265625 -6.109375 Z M 4.171875 0.609375 C 5.148438 0.265625 5.988281 -0.234375 6.6875 -0.890625 C 7.382812 -1.546875 7.828125 -2.253906 8.015625 -3.015625 C 8.023438 -3.035156 8.023438 -3.0625 8.015625 -3.09375 C 8.003906 -3.113281 7.976562 -3.125 7.9375 -3.125 L 5.609375 -3.125 C 5.398438 -3.125 5.226562 -3.191406 5.09375 -3.328125 C 4.945312 -3.472656 4.875 -3.648438 4.875 -3.859375 L 4.875 -5.625 C 4.875 -5.832031 4.945312 -6.007812 5.09375 -6.15625 C 5.226562 -6.300781 5.398438 -6.375 5.609375 -6.375 L 8.015625 -6.375 C 8.085938 -6.375 8.125 -6.40625 8.125 -6.46875 L 8.125 -7.546875 C 8.125 -7.628906 8.085938 -7.671875 8.015625 -7.671875 L 5.78125 -7.671875 C 5.695312 -7.671875 5.65625 -7.710938 5.65625 -7.796875 C 5.65625 -7.890625 5.695312 -7.9375 5.78125 -7.9375 L 10.71875 -7.9375 C 10.8125 -7.9375 10.859375 -7.890625 10.859375 -7.796875 C 10.859375 -7.710938 10.8125 -7.671875 10.71875 -7.671875 L 8.5 -7.671875 C 8.425781 -7.671875 8.390625 -7.628906 8.390625 -7.546875 L 8.390625 -6.46875 C 8.390625 -6.40625 8.425781 -6.375 8.5 -6.375 L 10.890625 -6.375 C 11.097656 -6.375 11.269531 -6.300781 11.40625 -6.15625 C 11.5625 -6.007812 11.640625 -5.832031 11.640625 -5.625 L 11.640625 -3.859375 C 11.640625 -3.648438 11.5625 -3.472656 11.40625 -3.328125 C 11.269531 -3.191406 11.097656 -3.125 10.890625 -3.125 L 8.578125 -3.125 C 8.535156 -3.125 8.507812 -3.113281 8.5 -3.09375 C 8.476562 -3.0625 8.472656 -3.035156 8.484375 -3.015625 C 8.679688 -2.253906 9.125 -1.546875 9.8125 -0.890625 C 10.519531 -0.234375 11.363281 0.265625 12.34375 0.609375 C 12.414062 0.640625 12.441406 0.695312 12.421875 0.78125 C 12.390625 0.863281 12.332031 0.890625 12.25 0.859375 C 11.257812 0.515625 10.410156 0.0078125 9.703125 -0.65625 C 8.992188 -1.300781 8.523438 -2.007812 8.296875 -2.78125 C 8.273438 -2.800781 8.257812 -2.8125 8.25 -2.8125 C 8.238281 -2.8125 8.234375 -2.800781 8.234375 -2.78125 C 7.984375 -2 7.507812 -1.285156 6.8125 -0.640625 C 6.113281 -0.00390625 5.265625 0.492188 4.265625 0.859375 C 4.179688 0.890625 4.125 0.863281 4.09375 0.78125 C 4.070312 0.695312 4.097656 0.640625 4.171875 0.609375 Z M 4.09375 -7.28125 C 4.0625 -7.351562 4.078125 -7.410156 4.140625 -7.453125 C 5.554688 -8.328125 6.820312 -9.3125 7.9375 -10.40625 C 8.03125 -10.488281 8.132812 -10.53125 8.25 -10.53125 C 8.375 -10.53125 8.484375 -10.484375 8.578125 -10.390625 C 9.703125 -9.285156 10.96875 -8.3125 12.375 -7.46875 C 12.445312 -7.414062 12.457031 -7.347656 12.40625 -7.265625 C 12.363281 -7.191406 12.3125 -7.179688 12.25 -7.234375 C 10.8125 -8.109375 9.507812 -9.117188 8.34375 -10.265625 C 8.28125 -10.316406 8.21875 -10.316406 8.15625 -10.265625 C 6.976562 -9.097656 5.6875 -8.085938 4.28125 -7.234375 C 4.195312 -7.179688 4.132812 -7.195312 4.09375 -7.28125 Z M 4.09375 -7.28125 "/></g></g></g><g fill="#ef3340" fill-opacity="1"><g transform="translate(241.054379, 212.14998)"><g><path d="M 1.8125 0.25 L 1.8125 0.90625 C 1.8125 1 1.769531 1.046875 1.6875 1.046875 C 1.601562 1.046875 1.5625 1 1.5625 0.90625 L 1.5625 -4.15625 C 1.5625 -4.25 1.601562 -4.296875 1.6875 -4.296875 C 1.769531 -4.296875 1.8125 -4.25 1.8125 -4.15625 L 1.8125 -0.234375 C 1.8125 -0.160156 1.851562 -0.125 1.9375 -0.125 L 6.25 -0.125 C 6.332031 -0.125 6.375 -0.160156 6.375 -0.234375 L 6.375 -5.34375 C 6.375 -5.414062 6.332031 -5.453125 6.25 -5.453125 L 2.953125 -5.453125 C 2.734375 -5.453125 2.550781 -5.519531 2.40625 -5.65625 C 2.269531 -5.800781 2.203125 -5.984375 2.203125 -6.203125 L 2.203125 -9.234375 C 2.203125 -9.316406 2.242188 -9.359375 2.328125 -9.359375 C 2.421875 -9.359375 2.46875 -9.316406 2.46875 -9.234375 L 2.46875 -5.84375 C 2.46875 -5.757812 2.507812 -5.71875 2.59375 -5.71875 L 6.25 -5.71875 C 6.332031 -5.71875 6.375 -5.757812 6.375 -5.84375 L 6.375 -10.40625 C 6.375 -10.488281 6.414062 -10.53125 6.5 -10.53125 C 6.582031 -10.53125 6.625 -10.488281 6.625 -10.40625 L 6.625 -5.84375 C 6.625 -5.757812 6.664062 -5.71875 6.75 -5.71875 L 10.40625 -5.71875 C 10.488281 -5.71875 10.53125 -5.757812 10.53125 -5.84375 L 10.53125 -9.234375 C 10.53125 -9.316406 10.570312 -9.359375 10.65625 -9.359375 C 10.75 -9.359375 10.796875 -9.316406 10.796875 -9.234375 L 10.796875 -6.203125 C 10.796875 -5.984375 10.722656 -5.800781 10.578125 -5.65625 C 10.441406 -5.519531 10.265625 -5.453125 10.046875 -5.453125 L 6.75 -5.453125 C 6.664062 -5.453125 6.625 -5.421875 6.625 -5.359375 L 6.625 -0.25 C 6.625 -0.164062 6.664062 -0.125 6.75 -0.125 L 11.078125 -0.125 C 11.148438 -0.125 11.1875 -0.164062 11.1875 -0.25 L 11.1875 -4.15625 C 11.1875 -4.25 11.226562 -4.296875 11.3125 -4.296875 C 11.394531 -4.296875 11.4375 -4.25 11.4375 -4.15625 L 11.4375 0.90625 C 11.4375 1 11.394531 1.046875 11.3125 1.046875 C 11.226562 1.046875 11.1875 1 11.1875 0.90625 L 11.1875 0.25 C 11.1875 0.164062 11.148438 0.125 11.078125 0.125 L 1.9375 0.125 C 1.851562 0.125 1.8125 0.164062 1.8125 0.25 Z M 1.8125 0.25 "/></g></g></g><g fill="#ef3340" fill-opacity="1"><g transform="translate(254.050391, 212.14998)"><g><path d="M 11.046875 -8.578125 C 11.140625 -8.578125 11.1875 -8.53125 11.1875 -8.4375 C 11.1875 -8.351562 11.140625 -8.3125 11.046875 -8.3125 L 5.84375 -8.3125 C 5.757812 -8.3125 5.71875 -8.351562 5.71875 -8.4375 C 5.71875 -8.53125 5.757812 -8.578125 5.84375 -8.578125 Z M 2.46875 0.515625 C 2.382812 0.535156 2.332031 0.503906 2.3125 0.421875 C 1.894531 -1.179688 1.6875 -2.878906 1.6875 -4.671875 C 1.6875 -6.472656 1.894531 -8.175781 2.3125 -9.78125 C 2.332031 -9.863281 2.382812 -9.894531 2.46875 -9.875 C 2.550781 -9.863281 2.582031 -9.8125 2.5625 -9.71875 C 2.15625 -8.144531 1.953125 -6.460938 1.953125 -4.671875 C 1.953125 -2.890625 2.15625 -1.210938 2.5625 0.359375 C 2.582031 0.453125 2.550781 0.503906 2.46875 0.515625 Z M 8.578125 -0.125 C 7.429688 -0.125 6.515625 -0.328125 5.828125 -0.734375 C 5.148438 -1.140625 4.8125 -1.675781 4.8125 -2.34375 C 4.8125 -2.695312 4.957031 -3.085938 5.25 -3.515625 C 5.550781 -3.953125 5.957031 -4.351562 6.46875 -4.71875 C 6.519531 -4.757812 6.570312 -4.75 6.625 -4.6875 C 6.675781 -4.59375 6.664062 -4.523438 6.59375 -4.484375 C 6.132812 -4.148438 5.765625 -3.789062 5.484375 -3.40625 C 5.203125 -3.019531 5.0625 -2.664062 5.0625 -2.34375 C 5.0625 -1.75 5.378906 -1.273438 6.015625 -0.921875 C 6.660156 -0.566406 7.515625 -0.390625 8.578125 -0.390625 C 9.472656 -0.390625 10.375 -0.503906 11.28125 -0.734375 C 11.363281 -0.753906 11.414062 -0.726562 11.4375 -0.65625 C 11.457031 -0.5625 11.425781 -0.507812 11.34375 -0.5 C 10.382812 -0.25 9.460938 -0.125 8.578125 -0.125 Z M 8.578125 -0.125 "/></g></g></g><g fill="#ef3340" fill-opacity="1"><g transform="translate(267.046404, 212.14998)"><g><path d="M 3.078125 0.171875 C 4.015625 -0.078125 4.773438 -0.410156 5.359375 -0.828125 C 5.929688 -1.242188 6.257812 -1.6875 6.34375 -2.15625 C 6.351562 -2.1875 6.34375 -2.210938 6.3125 -2.234375 C 6.289062 -2.265625 6.269531 -2.28125 6.25 -2.28125 L 2.984375 -2.28125 C 2.898438 -2.28125 2.859375 -2.320312 2.859375 -2.40625 C 2.859375 -2.488281 2.898438 -2.53125 2.984375 -2.53125 L 6.25 -2.53125 C 6.332031 -2.53125 6.375 -2.570312 6.375 -2.65625 L 6.375 -3.71875 C 6.375 -3.789062 6.332031 -3.828125 6.25 -3.828125 L 3.1875 -3.828125 C 3.101562 -3.828125 3.0625 -3.867188 3.0625 -3.953125 C 3.0625 -4.046875 3.101562 -4.09375 3.1875 -4.09375 L 5.296875 -4.09375 C 5.316406 -4.09375 5.335938 -4.109375 5.359375 -4.140625 C 5.367188 -4.148438 5.363281 -4.164062 5.34375 -4.1875 C 5.101562 -4.539062 4.859375 -4.882812 4.609375 -5.21875 C 4.546875 -5.269531 4.546875 -5.328125 4.609375 -5.390625 C 4.671875 -5.441406 4.738281 -5.4375 4.8125 -5.375 C 5.113281 -4.976562 5.398438 -4.582031 5.671875 -4.1875 C 5.703125 -4.125 5.757812 -4.09375 5.84375 -4.09375 L 7.109375 -4.09375 C 7.191406 -4.09375 7.253906 -4.117188 7.296875 -4.171875 C 7.648438 -4.578125 7.953125 -4.976562 8.203125 -5.375 C 8.253906 -5.425781 8.3125 -5.429688 8.375 -5.390625 C 8.445312 -5.347656 8.460938 -5.289062 8.421875 -5.21875 C 8.222656 -4.914062 7.957031 -4.566406 7.625 -4.171875 C 7.613281 -4.148438 7.613281 -4.128906 7.625 -4.109375 C 7.644531 -4.097656 7.664062 -4.09375 7.6875 -4.09375 L 9.8125 -4.09375 C 9.894531 -4.09375 9.9375 -4.046875 9.9375 -3.953125 C 9.9375 -3.867188 9.894531 -3.828125 9.8125 -3.828125 L 6.75 -3.828125 C 6.664062 -3.828125 6.625 -3.789062 6.625 -3.71875 L 6.625 -2.65625 C 6.625 -2.570312 6.664062 -2.53125 6.75 -2.53125 L 10.015625 -2.53125 C 10.097656 -2.53125 10.140625 -2.488281 10.140625 -2.40625 C 10.140625 -2.320312 10.097656 -2.28125 10.015625 -2.28125 L 6.734375 -2.28125 C 6.660156 -2.28125 6.617188 -2.238281 6.609375 -2.15625 C 6.609375 -2.113281 6.601562 -2.078125 6.59375 -2.046875 C 6.570312 -1.972656 6.585938 -1.921875 6.640625 -1.890625 C 7.492188 -1.210938 8.234375 -0.492188 8.859375 0.265625 C 8.910156 0.335938 8.898438 0.398438 8.828125 0.453125 C 8.765625 0.503906 8.707031 0.492188 8.65625 0.421875 C 8.09375 -0.265625 7.390625 -0.945312 6.546875 -1.625 C 6.492188 -1.65625 6.445312 -1.644531 6.40625 -1.59375 C 6.1875 -1.175781 5.789062 -0.789062 5.21875 -0.4375 C 4.65625 -0.09375 3.960938 0.191406 3.140625 0.421875 C 3.046875 0.441406 2.992188 0.410156 2.984375 0.328125 C 2.972656 0.234375 3.003906 0.179688 3.078125 0.171875 Z M 7.390625 -6.046875 L 11.46875 -6.046875 C 11.53125 -6.046875 11.5625 -6.082031 11.5625 -6.15625 L 11.5625 -7.75 C 11.5625 -7.820312 11.53125 -7.859375 11.46875 -7.859375 L 7.390625 -7.859375 C 7.316406 -7.859375 7.28125 -7.820312 7.28125 -7.75 L 7.28125 -6.15625 C 7.28125 -6.082031 7.316406 -6.046875 7.390625 -6.046875 Z M 7.28125 -9.640625 L 7.28125 -8.234375 C 7.28125 -8.160156 7.316406 -8.125 7.390625 -8.125 L 11.46875 -8.125 C 11.53125 -8.125 11.5625 -8.160156 11.5625 -8.234375 L 11.5625 -9.640625 C 11.5625 -9.710938 11.53125 -9.75 11.46875 -9.75 L 7.390625 -9.75 C 7.316406 -9.75 7.28125 -9.710938 7.28125 -9.640625 Z M 11.5625 -0.453125 L 11.5625 -5.671875 C 11.5625 -5.742188 11.53125 -5.78125 11.46875 -5.78125 L 7.765625 -5.78125 C 7.554688 -5.78125 7.378906 -5.851562 7.234375 -6 C 7.085938 -6.144531 7.015625 -6.320312 7.015625 -6.53125 L 7.015625 -9.265625 C 7.015625 -9.484375 7.082031 -9.660156 7.21875 -9.796875 C 7.363281 -9.941406 7.546875 -10.015625 7.765625 -10.015625 L 11.09375 -10.015625 C 11.300781 -10.015625 11.472656 -9.941406 11.609375 -9.796875 C 11.753906 -9.660156 11.828125 -9.484375 11.828125 -9.265625 L 11.828125 -0.453125 C 11.828125 0.0664062 11.773438 0.390625 11.671875 0.515625 C 11.566406 0.648438 11.296875 0.71875 10.859375 0.71875 C 10.515625 0.71875 10.097656 0.695312 9.609375 0.65625 C 9.523438 0.65625 9.484375 0.609375 9.484375 0.515625 C 9.492188 0.429688 9.539062 0.394531 9.625 0.40625 C 10.113281 0.4375 10.523438 0.453125 10.859375 0.453125 C 11.210938 0.453125 11.421875 0.414062 11.484375 0.34375 C 11.535156 0.269531 11.5625 0.00390625 11.5625 -0.453125 Z M 1.4375 -7.75 L 1.4375 -6.15625 C 1.4375 -6.082031 1.472656 -6.046875 1.546875 -6.046875 L 5.484375 -6.046875 C 5.554688 -6.046875 5.59375 -6.082031 5.59375 -6.15625 L 5.59375 -7.75 C 5.59375 -7.820312 5.554688 -7.859375 5.484375 -7.859375 L 1.546875 -7.859375 C 1.472656 -7.859375 1.4375 -7.820312 1.4375 -7.75 Z M 1.4375 -9.640625 L 1.4375 -8.234375 C 1.4375 -8.160156 1.472656 -8.125 1.546875 -8.125 L 5.484375 -8.125 C 5.554688 -8.125 5.59375 -8.160156 5.59375 -8.234375 L 5.59375 -9.640625 C 5.59375 -9.710938 5.554688 -9.75 5.484375 -9.75 L 1.546875 -9.75 C 1.472656 -9.75 1.4375 -9.710938 1.4375 -9.640625 Z M 1.4375 -5.671875 L 1.4375 0.71875 C 1.4375 0.800781 1.390625 0.84375 1.296875 0.84375 C 1.210938 0.84375 1.171875 0.800781 1.171875 0.71875 L 1.171875 -9.265625 C 1.171875 -9.484375 1.238281 -9.660156 1.375 -9.796875 C 1.519531 -9.941406 1.695312 -10.015625 1.90625 -10.015625 L 5.109375 -10.015625 C 5.328125 -10.015625 5.503906 -9.941406 5.640625 -9.796875 C 5.773438 -9.660156 5.84375 -9.484375 5.84375 -9.265625 L 5.84375 -6.53125 C 5.84375 -6.320312 5.773438 -6.144531 5.640625 -6 C 5.492188 -5.851562 5.316406 -5.78125 5.109375 -5.78125 L 1.546875 -5.78125 C 1.472656 -5.78125 1.4375 -5.742188 1.4375 -5.671875 Z M 1.4375 -5.671875 "/></g></g></g><g fill="#ef3340" fill-opacity="1"><g transform="translate(280.042417, 212.14998)"><g><path d="M 4.515625 -3.34375 C 4.921875 -2.9375 5.410156 -2.734375 5.984375 -2.734375 C 6.554688 -2.734375 7.046875 -2.9375 7.453125 -3.34375 C 7.859375 -3.75 8.0625 -4.238281 8.0625 -4.8125 C 8.0625 -5.382812 7.859375 -5.875 7.453125 -6.28125 C 7.046875 -6.6875 6.554688 -6.890625 5.984375 -6.890625 C 5.410156 -6.890625 4.921875 -6.6875 4.515625 -6.28125 C 4.109375 -5.875 3.90625 -5.382812 3.90625 -4.8125 C 3.90625 -4.238281 4.109375 -3.75 4.515625 -3.34375 Z M 8.0625 -5.84375 L 8.0625 -8.203125 C 8.0625 -8.273438 8.019531 -8.3125 7.9375 -8.3125 L 1.171875 -8.3125 C 1.085938 -8.3125 1.046875 -8.351562 1.046875 -8.4375 C 1.046875 -8.53125 1.085938 -8.578125 1.171875 -8.578125 L 7.9375 -8.578125 C 8.019531 -8.578125 8.0625 -8.617188 8.0625 -8.703125 L 8.0625 -10.40625 C 8.0625 -10.488281 8.101562 -10.53125 8.1875 -10.53125 C 8.269531 -10.53125 8.3125 -10.488281 8.3125 -10.40625 L 8.3125 -8.703125 C 8.3125 -8.617188 8.351562 -8.578125 8.4375 -8.578125 L 11.828125 -8.578125 C 11.910156 -8.578125 11.953125 -8.53125 11.953125 -8.4375 C 11.953125 -8.351562 11.910156 -8.3125 11.828125 -8.3125 L 8.4375 -8.3125 C 8.351562 -8.3125 8.3125 -8.273438 8.3125 -8.203125 L 8.3125 -5.09375 C 8.3125 -5.050781 8.320312 -4.976562 8.34375 -4.875 C 8.414062 -4.488281 8.453125 -4.078125 8.453125 -3.640625 C 8.453125 -2.410156 8.148438 -1.453125 7.546875 -0.765625 C 6.941406 -0.0859375 5.988281 0.375 4.6875 0.625 C 4.613281 0.644531 4.566406 0.609375 4.546875 0.515625 C 4.535156 0.429688 4.566406 0.378906 4.640625 0.359375 C 5.890625 0.128906 6.796875 -0.300781 7.359375 -0.9375 C 7.921875 -1.570312 8.203125 -2.472656 8.203125 -3.640625 C 8.203125 -3.679688 8.195312 -3.738281 8.1875 -3.8125 C 8.1875 -3.894531 8.1875 -3.953125 8.1875 -3.984375 C 8.1875 -4.003906 8.179688 -4.015625 8.171875 -4.015625 C 8.160156 -4.015625 8.15625 -4.007812 8.15625 -4 C 8.007812 -3.5625 7.726562 -3.195312 7.3125 -2.90625 C 6.894531 -2.613281 6.453125 -2.46875 5.984375 -2.46875 C 5.335938 -2.46875 4.785156 -2.695312 4.328125 -3.15625 C 3.867188 -3.613281 3.640625 -4.160156 3.640625 -4.796875 C 3.640625 -5.441406 3.867188 -5.992188 4.328125 -6.453125 C 4.785156 -6.921875 5.335938 -7.15625 5.984375 -7.15625 C 6.410156 -7.15625 6.804688 -7.035156 7.171875 -6.796875 C 7.546875 -6.554688 7.828125 -6.238281 8.015625 -5.84375 C 8.015625 -5.84375 8.023438 -5.84375 8.046875 -5.84375 C 8.054688 -5.84375 8.0625 -5.84375 8.0625 -5.84375 Z M 8.0625 -5.84375 "/></g></g></g><g fill="#ef3340" fill-opacity="1"><g transform="translate(293.038429, 212.14998)"><g><path d="M 3.25 -1.4375 C 3.25 -0.394531 4.332031 0.125 6.5 0.125 C 6.8125 0.125 7.101562 0.113281 7.375 0.09375 C 7.4375 0.0820312 7.492188 0.0390625 7.546875 -0.03125 C 7.804688 -0.539062 7.9375 -0.960938 7.9375 -1.296875 C 7.9375 -2.253906 7.15625 -2.734375 5.59375 -2.734375 C 4.832031 -2.734375 4.25 -2.601562 3.84375 -2.34375 C 3.445312 -2.082031 3.25 -1.78125 3.25 -1.4375 Z M 1.65625 -4.078125 L 9.5 -9.1875 C 9.507812 -9.1875 9.515625 -9.195312 9.515625 -9.21875 C 9.515625 -9.226562 9.507812 -9.234375 9.5 -9.234375 L 2.671875 -9.234375 C 2.578125 -9.234375 2.53125 -9.273438 2.53125 -9.359375 C 2.53125 -9.441406 2.578125 -9.484375 2.671875 -9.484375 L 9.8125 -9.484375 C 9.894531 -9.484375 9.953125 -9.441406 9.984375 -9.359375 C 10.015625 -9.285156 9.988281 -9.222656 9.90625 -9.171875 L 3.8125 -5.1875 L 3.8125 -5.171875 L 3.828125 -5.171875 C 5.140625 -5.710938 6.351562 -5.984375 7.46875 -5.984375 C 8.664062 -5.984375 9.59375 -5.742188 10.25 -5.265625 C 10.914062 -4.785156 11.25 -4.113281 11.25 -3.25 C 11.25 -2.0625 10.84375 -1.15625 10.03125 -0.53125 C 9.226562 0.0820312 8.050781 0.390625 6.5 0.390625 C 4.15625 0.390625 2.984375 -0.21875 2.984375 -1.4375 C 2.984375 -1.851562 3.207031 -2.210938 3.65625 -2.515625 C 4.101562 -2.828125 4.75 -2.984375 5.59375 -2.984375 C 6.101562 -2.984375 6.535156 -2.929688 6.890625 -2.828125 C 7.253906 -2.734375 7.523438 -2.597656 7.703125 -2.421875 C 7.878906 -2.253906 8.003906 -2.078125 8.078125 -1.890625 C 8.148438 -1.710938 8.1875 -1.515625 8.1875 -1.296875 C 8.1875 -0.953125 8.078125 -0.539062 7.859375 -0.0625 C 7.847656 -0.0390625 7.847656 -0.0195312 7.859375 0 C 7.867188 0.0195312 7.882812 0.03125 7.90625 0.03125 C 9.957031 -0.320312 10.984375 -1.414062 10.984375 -3.25 C 10.984375 -4.039062 10.675781 -4.648438 10.0625 -5.078125 C 9.457031 -5.503906 8.59375 -5.71875 7.46875 -5.71875 C 6.625 -5.71875 5.703125 -5.550781 4.703125 -5.21875 C 3.703125 -4.894531 2.738281 -4.441406 1.8125 -3.859375 C 1.726562 -3.816406 1.664062 -3.832031 1.625 -3.90625 C 1.582031 -3.976562 1.59375 -4.035156 1.65625 -4.078125 Z M 1.65625 -4.078125 "/></g></g></g><g fill="#ef3340" fill-opacity="1"><g transform="translate(306.034442, 212.14998)"><g><path d="M 1.953125 -5.40625 L 1.953125 -0.890625 C 1.953125 -0.816406 1.988281 -0.78125 2.0625 -0.78125 L 4.703125 -0.78125 C 4.773438 -0.78125 4.8125 -0.816406 4.8125 -0.890625 L 4.8125 -5.40625 C 4.8125 -5.488281 4.773438 -5.53125 4.703125 -5.53125 L 2.0625 -5.53125 C 1.988281 -5.53125 1.953125 -5.488281 1.953125 -5.40625 Z M 0.578125 -3.015625 C 0.523438 -2.941406 0.460938 -2.929688 0.390625 -2.984375 C 0.316406 -3.035156 0.304688 -3.097656 0.359375 -3.171875 C 0.910156 -3.898438 1.34375 -4.765625 1.65625 -5.765625 C 1.976562 -6.765625 2.21875 -8.015625 2.375 -9.515625 C 2.394531 -9.585938 2.363281 -9.625 2.28125 -9.625 L 0.90625 -9.625 C 0.820312 -9.625 0.78125 -9.664062 0.78125 -9.75 C 0.78125 -9.832031 0.820312 -9.875 0.90625 -9.875 L 4.9375 -9.875 C 5.019531 -9.875 5.0625 -9.832031 5.0625 -9.75 C 5.0625 -9.664062 5.019531 -9.625 4.9375 -9.625 L 2.765625 -9.625 C 2.703125 -9.625 2.660156 -9.585938 2.640625 -9.515625 C 2.492188 -8.097656 2.269531 -6.890625 1.96875 -5.890625 C 1.96875 -5.878906 1.972656 -5.859375 1.984375 -5.828125 C 1.992188 -5.796875 2.015625 -5.78125 2.046875 -5.78125 L 4.328125 -5.78125 C 4.535156 -5.78125 4.710938 -5.707031 4.859375 -5.5625 C 4.992188 -5.425781 5.0625 -5.253906 5.0625 -5.046875 L 5.0625 -1.265625 C 5.0625 -1.046875 4.992188 -0.863281 4.859375 -0.71875 C 4.722656 -0.582031 4.546875 -0.515625 4.328125 -0.515625 L 2.0625 -0.515625 C 1.988281 -0.515625 1.953125 -0.476562 1.953125 -0.40625 L 1.953125 0.515625 C 1.953125 0.609375 1.90625 0.65625 1.8125 0.65625 C 1.726562 0.65625 1.6875 0.609375 1.6875 0.515625 L 1.6875 -4.953125 C 1.6875 -4.960938 1.675781 -4.96875 1.65625 -4.96875 C 1.65625 -4.96875 1.65625 -4.960938 1.65625 -4.953125 C 1.34375 -4.203125 0.984375 -3.554688 0.578125 -3.015625 Z M 10.53125 -5.640625 L 10.53125 -9.5 C 10.53125 -9.582031 10.492188 -9.625 10.421875 -9.625 L 7.71875 -9.625 C 7.644531 -9.625 7.609375 -9.582031 7.609375 -9.5 L 7.609375 -7.734375 C 7.609375 -6.960938 7.59375 -6.257812 7.5625 -5.625 C 7.5625 -5.5625 7.597656 -5.53125 7.671875 -5.53125 L 10.40625 -5.53125 C 10.488281 -5.53125 10.53125 -5.566406 10.53125 -5.640625 Z M 10.90625 -5.53125 L 12.484375 -5.53125 C 12.566406 -5.53125 12.609375 -5.484375 12.609375 -5.390625 C 12.609375 -5.304688 12.566406 -5.265625 12.484375 -5.265625 L 10.90625 -5.265625 C 10.832031 -5.265625 10.796875 -5.222656 10.796875 -5.140625 L 10.796875 0.65625 C 10.796875 0.738281 10.75 0.78125 10.65625 0.78125 C 10.570312 0.78125 10.53125 0.738281 10.53125 0.65625 L 10.53125 -5.140625 C 10.53125 -5.222656 10.492188 -5.265625 10.421875 -5.265625 L 7.65625 -5.265625 C 7.59375 -5.265625 7.554688 -5.226562 7.546875 -5.15625 C 7.492188 -4.03125 7.378906 -3.066406 7.203125 -2.265625 C 7.035156 -1.484375 6.835938 -0.875 6.609375 -0.4375 C 6.359375 0.0195312 6.054688 0.425781 5.703125 0.78125 C 5.640625 0.84375 5.582031 0.84375 5.53125 0.78125 C 5.46875 0.707031 5.46875 0.640625 5.53125 0.578125 C 6.070312 0.0351562 6.476562 -0.644531 6.75 -1.46875 C 7.019531 -2.320312 7.195312 -3.550781 7.28125 -5.15625 C 7.300781 -5.226562 7.265625 -5.265625 7.171875 -5.265625 L 5.65625 -5.265625 C 5.570312 -5.265625 5.53125 -5.304688 5.53125 -5.390625 C 5.53125 -5.484375 5.570312 -5.53125 5.65625 -5.53125 L 7.1875 -5.53125 C 7.269531 -5.53125 7.3125 -5.5625 7.3125 -5.625 C 7.332031 -6.257812 7.34375 -6.960938 7.34375 -7.734375 L 7.34375 -9.5 C 7.34375 -9.582031 7.304688 -9.625 7.234375 -9.625 L 5.78125 -9.625 C 5.695312 -9.625 5.65625 -9.664062 5.65625 -9.75 C 5.65625 -9.832031 5.695312 -9.875 5.78125 -9.875 L 12.34375 -9.875 C 12.4375 -9.875 12.484375 -9.832031 12.484375 -9.75 C 12.484375 -9.664062 12.4375 -9.625 12.34375 -9.625 L 10.90625 -9.625 C 10.832031 -9.625 10.796875 -9.582031 10.796875 -9.5 L 10.796875 -5.640625 C 10.796875 -5.566406 10.832031 -5.53125 10.90625 -5.53125 Z M 10.90625 -5.53125 "/></g></g></g><g fill="#ef3340" fill-opacity="1"><g transform="translate(319.030455, 212.14998)"><g><path d="M 5.296875 -3.71875 C 5.078125 -2.5625 4.617188 -1.625 3.921875 -0.90625 C 3.222656 -0.175781 2.234375 0.410156 0.953125 0.859375 C 0.859375 0.890625 0.800781 0.863281 0.78125 0.78125 C 0.75 0.695312 0.773438 0.640625 0.859375 0.609375 C 2.085938 0.179688 3.039062 -0.375 3.71875 -1.0625 C 4.382812 -1.738281 4.820312 -2.628906 5.03125 -3.734375 C 5.039062 -3.742188 5.035156 -3.765625 5.015625 -3.796875 C 4.992188 -3.816406 4.96875 -3.828125 4.9375 -3.828125 L 1.6875 -3.828125 C 1.601562 -3.828125 1.5625 -3.867188 1.5625 -3.953125 C 1.5625 -4.046875 1.601562 -4.09375 1.6875 -4.09375 L 4.984375 -4.09375 C 5.054688 -4.09375 5.101562 -4.132812 5.125 -4.21875 C 5.15625 -4.601562 5.179688 -5.015625 5.203125 -5.453125 C 5.203125 -5.546875 5.242188 -5.59375 5.328125 -5.59375 C 5.410156 -5.59375 5.453125 -5.546875 5.453125 -5.453125 C 5.441406 -5.003906 5.414062 -4.585938 5.375 -4.203125 C 5.363281 -4.128906 5.394531 -4.09375 5.46875 -4.09375 L 8.625 -4.09375 C 8.832031 -4.09375 9.007812 -4.019531 9.15625 -3.875 C 9.289062 -3.738281 9.359375 -3.566406 9.359375 -3.359375 L 9.359375 0 C 9.359375 0.101562 9.363281 0.164062 9.375 0.1875 C 9.394531 0.238281 9.414062 0.269531 9.4375 0.28125 C 9.46875 0.3125 9.535156 0.332031 9.640625 0.34375 C 9.679688 0.351562 9.742188 0.359375 9.828125 0.359375 C 9.910156 0.367188 9.972656 0.375 10.015625 0.375 C 10.117188 0.382812 10.332031 0.390625 10.65625 0.390625 L 11.109375 0.390625 C 11.242188 0.390625 11.359375 0.378906 11.453125 0.359375 C 11.578125 0.335938 11.664062 0.3125 11.71875 0.28125 C 11.769531 0.257812 11.835938 0.207031 11.921875 0.125 C 11.992188 0.0625 12.039062 -0.0078125 12.0625 -0.09375 C 12.070312 -0.113281 12.078125 -0.132812 12.078125 -0.15625 C 12.085938 -0.175781 12.09375 -0.195312 12.09375 -0.21875 C 12.101562 -0.238281 12.113281 -0.265625 12.125 -0.296875 C 12.132812 -0.335938 12.148438 -0.382812 12.171875 -0.4375 C 12.222656 -0.644531 12.253906 -0.8125 12.265625 -0.9375 C 12.265625 -1.082031 12.289062 -1.300781 12.34375 -1.59375 C 12.351562 -1.664062 12.398438 -1.695312 12.484375 -1.6875 C 12.566406 -1.675781 12.601562 -1.628906 12.59375 -1.546875 C 12.550781 -1.160156 12.515625 -0.867188 12.484375 -0.671875 C 12.441406 -0.453125 12.390625 -0.253906 12.328125 -0.078125 C 12.265625 0.0859375 12.191406 0.21875 12.109375 0.3125 C 12.046875 0.394531 11.9375 0.460938 11.78125 0.515625 C 11.601562 0.578125 11.453125 0.613281 11.328125 0.625 C 11.117188 0.644531 10.894531 0.65625 10.65625 0.65625 C 9.976562 0.65625 9.546875 0.617188 9.359375 0.546875 C 9.179688 0.484375 9.09375 0.300781 9.09375 0 L 9.09375 -3.71875 C 9.09375 -3.789062 9.054688 -3.828125 8.984375 -3.828125 L 5.4375 -3.828125 C 5.363281 -3.828125 5.316406 -3.789062 5.296875 -3.71875 Z M 1.4375 -8.921875 L 1.4375 -6.953125 C 1.4375 -6.867188 1.390625 -6.828125 1.296875 -6.828125 C 1.210938 -6.828125 1.171875 -6.867188 1.171875 -6.953125 L 1.171875 -8.546875 C 1.171875 -8.753906 1.238281 -8.929688 1.375 -9.078125 C 1.519531 -9.222656 1.695312 -9.296875 1.90625 -9.296875 L 6.265625 -9.296875 C 6.335938 -9.296875 6.375 -9.332031 6.375 -9.40625 L 6.375 -10.65625 C 6.375 -10.75 6.414062 -10.796875 6.5 -10.796875 C 6.582031 -10.796875 6.625 -10.75 6.625 -10.65625 L 6.625 -9.40625 C 6.625 -9.332031 6.664062 -9.296875 6.75 -9.296875 L 11.09375 -9.296875 C 11.300781 -9.296875 11.476562 -9.222656 11.625 -9.078125 C 11.757812 -8.929688 11.828125 -8.753906 11.828125 -8.546875 L 11.828125 -7.34375 C 11.828125 -7.257812 11.78125 -7.21875 11.6875 -7.21875 C 11.601562 -7.21875 11.5625 -7.257812 11.5625 -7.34375 L 11.5625 -8.921875 C 11.5625 -8.992188 11.53125 -9.03125 11.46875 -9.03125 L 7.78125 -9.03125 C 7.707031 -9.03125 7.671875 -8.992188 7.671875 -8.921875 L 7.671875 -5.984375 C 7.671875 -5.804688 7.695312 -5.691406 7.75 -5.640625 C 7.789062 -5.597656 7.960938 -5.566406 8.265625 -5.546875 C 8.660156 -5.535156 8.976562 -5.53125 9.21875 -5.53125 C 9.46875 -5.53125 9.789062 -5.535156 10.1875 -5.546875 C 10.644531 -5.578125 10.929688 -5.640625 11.046875 -5.734375 C 11.140625 -5.816406 11.222656 -6.101562 11.296875 -6.59375 C 11.316406 -6.664062 11.363281 -6.695312 11.4375 -6.6875 C 11.519531 -6.6875 11.5625 -6.632812 11.5625 -6.53125 C 11.5 -6.007812 11.390625 -5.675781 11.234375 -5.53125 C 11.097656 -5.414062 10.757812 -5.335938 10.21875 -5.296875 C 9.820312 -5.273438 9.492188 -5.265625 9.234375 -5.265625 C 8.984375 -5.265625 8.648438 -5.273438 8.234375 -5.296875 C 7.929688 -5.296875 7.71875 -5.34375 7.59375 -5.4375 C 7.46875 -5.539062 7.40625 -5.722656 7.40625 -5.984375 L 7.40625 -8.921875 C 7.40625 -8.992188 7.375 -9.03125 7.3125 -9.03125 L 5.703125 -9.03125 C 5.628906 -9.03125 5.59375 -8.992188 5.59375 -8.921875 C 5.550781 -8.066406 5.171875 -7.3125 4.453125 -6.65625 C 3.753906 -6.007812 2.753906 -5.492188 1.453125 -5.109375 C 1.378906 -5.078125 1.328125 -5.109375 1.296875 -5.203125 C 1.273438 -5.285156 1.300781 -5.335938 1.375 -5.359375 C 2.601562 -5.703125 3.5625 -6.1875 4.25 -6.8125 C 4.925781 -7.425781 5.285156 -8.128906 5.328125 -8.921875 C 5.328125 -8.992188 5.289062 -9.03125 5.21875 -9.03125 L 1.546875 -9.03125 C 1.472656 -9.03125 1.4375 -8.992188 1.4375 -8.921875 Z M 1.4375 -8.921875 "/></g></g></g><path stroke-linecap="butt" transform="matrix(0, -0.75, 0.75, 0, 37.528182, 193.334459)" fill="none" stroke-linejoin="miter" d="M -0.00197093 2.498883 L 9.086571 2.498883 " stroke="#ef3340" stroke-width="5" stroke-opacity="1" stroke-miterlimit="4"/><path stroke-linecap="butt" transform="matrix(0, -0.75, 0.75, 0, 131.307433, 193.3384)" fill="none" stroke-linejoin="miter" d="M -0.00192486 2.501548 L 18.482451 2.501548 " stroke="#ef3340" stroke-width="5" stroke-opacity="1" stroke-miterlimit="4"/><g clip-path="url(#ad54000332)"><g clip-path="url(#c44cd08c3a)"><g clip-path="url(#521441e435)"><path fill="#ef3340" d="M 135.082031 193.273438 L 86.292969 242.0625 L 37.503906 193.273438 Z M 135.082031 193.273438 " fill-opacity="1" fill-rule="nonzero"/></g></g></g><g clip-path="url(#1000c1f6ef)"><g clip-path="url(#2269b81475)"><g clip-path="url(#4b8dc74ea3)"><path fill="#ff5b67" d="M 124.238281 193.273438 L 86.292969 231.21875 L 48.351562 193.273438 Z M 124.238281 193.273438 " fill-opacity="1" fill-rule="nonzero"/></g></g></g><path stroke-linecap="butt" transform="matrix(0, -0.75, 0.75, 0, 84.419531, 198.130489)" fill="none" stroke-linejoin="miter" d="M 0.00211085 2.497917 L 28.085446 2.497917 " stroke="#ff5b67" stroke-width="5" stroke-opacity="1" stroke-miterlimit="4"/><path stroke-linecap="butt" transform="matrix(0, -0.75, 0.75, 0, 107.881322, 206.284366)" fill="none" stroke-linejoin="miter" d="M -0.00105306 2.501987 L 35.738533 2.501987 " stroke="#ff5b67" stroke-width="5" stroke-opacity="1" stroke-miterlimit="4"/><path stroke-linecap="butt" transform="matrix(0, -0.75, 0.75, 0, 61.167562, 206.281714)" fill="none" stroke-linejoin="miter" d="M 0.000619272 2.500542 L 40.229789 2.500542 " stroke="#ff5b67" stroke-width="5" stroke-opacity="1" stroke-miterlimit="4"/><path stroke-linecap="butt" transform="matrix(0.000000001309, -0.75, 0.75, 0.000000001309, 72.792765, 202.23189)" fill="none" stroke-linejoin="miter" d="M 0.0018949 2.500271 L 18.231063 2.500271 " stroke="#ff5b67" stroke-width="5" stroke-opacity="1" stroke-miterlimit="4"/><path stroke-linecap="butt" transform="matrix(0, -0.75, 0.75, 0, 96.417068, 202.231187)" fill="none" stroke-linejoin="miter" d="M 0.000957294 2.501201 L 52.058252 2.501201 " stroke="#ff5b67" stroke-width="5" stroke-opacity="1" stroke-miterlimit="4"/><path stroke-linecap="butt" transform="matrix(0.000000001309, -0.75, 0.75, 0.000000001309, 119.882063, 193.401726)" fill="none" stroke-linejoin="miter" d="M -0.000822996 2.500999 L 9.254386 2.500999 " stroke="#ff5b67" stroke-width="5" stroke-opacity="1" stroke-miterlimit="4"/><path stroke-linecap="butt" transform="matrix(0, -0.75, 0.75, 0, 49.170378, 193.721471)" fill="none" stroke-linejoin="miter" d="M -0.00157996 2.501996 L 6.878629 2.501996 " stroke="#ff5b67" stroke-width="5" stroke-opacity="1" stroke-miterlimit="4"/><path stroke-linecap="butt" transform="matrix(0, -0.75, 0.75, 0, 49.167431, 179.476834)" fill="none" stroke-linejoin="miter" d="M 0.000361752 2.500717 L 9.229529 2.500717 " stroke="#ff5b67" stroke-width="5" stroke-opacity="1" stroke-miterlimit="4"/><path stroke-linecap="butt" transform="matrix(0, -0.75, 0.75, 0, 61.168558, 167.086878)" fill="none" stroke-linejoin="miter" d="M 0.00125377 2.499214 L 7.699171 2.499214 " stroke="#ff5b67" stroke-width="5" stroke-opacity="1" stroke-miterlimit="4"/><path stroke-linecap="butt" transform="matrix(0, -0.75, 0.75, 0, 72.791969, 179.47638)" fill="none" stroke-linejoin="miter" d="M -0.000243048 2.501334 L 48.46851 2.501334 " stroke="#ff5b67" stroke-width="5" stroke-opacity="1" stroke-miterlimit="4"/><path stroke-linecap="butt" transform="matrix(0, -0.75, 0.75, 0, 84.420856, 168.045428)" fill="none" stroke-linejoin="miter" d="M -0.00192911 2.501359 L 24.175156 2.501359 " stroke="#ff5b67" stroke-width="5" stroke-opacity="1" stroke-miterlimit="4"/><path stroke-linecap="butt" transform="matrix(0, -0.75, 0.75, 0, 96.420005, 154.166241)" fill="none" stroke-linejoin="miter" d="M -0.00230356 2.502493 L 9.164364 2.502493 " stroke="#ff5b67" stroke-width="5" stroke-opacity="1" stroke-miterlimit="4"/><path stroke-linecap="butt" transform="matrix(0, -0.75, 0.75, 0, 107.879822, 170.584736)" fill="none" stroke-linejoin="miter" d="M -0.001602 2.498779 L 18.008816 2.498779 " stroke="#ff5b67" stroke-width="5" stroke-opacity="1" stroke-miterlimit="4"/><path stroke-linecap="butt" transform="matrix(0, -0.75, 0.75, 0, 119.879008, 177.43622)" fill="none" stroke-linejoin="miter" d="M -0.00170727 2.499865 L 9.138918 2.499865 " stroke="#ff5b67" stroke-width="5" stroke-opacity="1" stroke-miterlimit="4"/></svg>