<svg xmlns="http://www.w3.org/2000/svg" xmlns:xlink="http://www.w3.org/1999/xlink" width="500" zoomAndPan="magnify" viewBox="0 0 375 374.999991" height="500" preserveAspectRatio="xMidYMid meet" version="1.0"><defs><g/><clipPath id="d3f6217e21"><path d="M 37 193 L 136 193 L 136 243 L 37 243 Z M 37 193 " clip-rule="nonzero"/></clipPath><clipPath id="6b38486fc1"><path d="M 37.503906 193.273438 L 86.292969 144.484375 L 135.082031 193.273438 L 86.292969 242.0625 Z M 37.503906 193.273438 " clip-rule="nonzero"/></clipPath><clipPath id="2597736e0a"><path d="M 37.503906 193.273438 L 86.292969 144.484375 L 135.082031 193.273438 L 86.292969 242.0625 Z M 37.503906 193.273438 " clip-rule="nonzero"/></clipPath><clipPath id="dd1d19ffbc"><path d="M 48 193 L 125 193 L 125 232 L 48 232 Z M 48 193 " clip-rule="nonzero"/></clipPath><clipPath id="b6ccfc58e3"><path d="M 48.351562 193.273438 L 86.535156 155.089844 L 124.71875 193.273438 L 86.535156 231.457031 Z M 48.351562 193.273438 " clip-rule="nonzero"/></clipPath><clipPath id="2c75312ee7"><path d="M 48.351562 193.273438 L 86.535156 155.089844 L 124.71875 193.273438 L 86.535156 231.457031 Z M 48.351562 193.273438 " clip-rule="nonzero"/></clipPath></defs><path stroke-linecap="butt" transform="matrix(0, -0.75, 0.75, 0, 37.528182, 193.334459)" fill="none" stroke-linejoin="miter" d="M -0.00197093 2.498883 L 9.086571 2.498883 " stroke="#ef3340" stroke-width="5" stroke-opacity="1" stroke-miterlimit="4"/><path stroke-linecap="butt" transform="matrix(0, -0.75, 0.75, 0, 131.307433, 193.338386)" fill="none" stroke-linejoin="miter" d="M -0.00194406 2.501548 L 18.482432 2.501548 " stroke="#ef3340" stroke-width="5" stroke-opacity="1" stroke-miterlimit="4"/><g clip-path="url(#d3f6217e21)"><g clip-path="url(#6b38486fc1)"><g clip-path="url(#2597736e0a)"><path fill="#ef3340" d="M 135.082031 193.273438 L 86.292969 242.0625 L 37.503906 193.273438 Z M 135.082031 193.273438 " fill-opacity="1" fill-rule="nonzero"/></g></g></g><g clip-path="url(#dd1d19ffbc)"><g clip-path="url(#b6ccfc58e3)"><g clip-path="url(#2c75312ee7)"><path fill="#ff5b67" d="M 124.238281 193.273438 L 86.292969 231.21875 L 48.351562 193.273438 Z M 124.238281 193.273438 " fill-opacity="1" fill-rule="nonzero"/></g></g></g><path stroke-linecap="butt" transform="matrix(0, -0.75, 0.75, 0, 84.419531, 198.130475)" fill="none" stroke-linejoin="miter" d="M 0.00209165 2.497917 L 28.085427 2.497917 " stroke="#ff5b67" stroke-width="5" stroke-opacity="1" stroke-miterlimit="4"/><path stroke-linecap="butt" transform="matrix(0, -0.75, 0.75, 0, 107.881322, 206.284381)" fill="none" stroke-linejoin="miter" d="M -0.00103386 2.501987 L 35.738552 2.501987 " stroke="#ff5b67" stroke-width="5" stroke-opacity="1" stroke-miterlimit="4"/><path stroke-linecap="butt" transform="matrix(0, -0.75, 0.75, 0, 61.167562, 206.281686)" fill="none" stroke-linejoin="miter" d="M 0.000580872 2.500542 L 40.22975 2.500542 " stroke="#ff5b67" stroke-width="5" stroke-opacity="1" stroke-miterlimit="4"/><path stroke-linecap="butt" transform="matrix(0.000000001309, -0.75, 0.75, 0.000000001309, 72.792765, 202.231861)" fill="none" stroke-linejoin="miter" d="M 0.0018565 2.500271 L 18.231024 2.500271 " stroke="#ff5b67" stroke-width="5" stroke-opacity="1" stroke-miterlimit="4"/><path stroke-linecap="butt" transform="matrix(0, -0.75, 0.75, 0, 96.417068, 202.231158)" fill="none" stroke-linejoin="miter" d="M 0.000918894 2.501201 L 52.058214 2.501201 " stroke="#ff5b67" stroke-width="5" stroke-opacity="1" stroke-miterlimit="4"/><path stroke-linecap="butt" transform="matrix(0.000000001309, -0.75, 0.75, 0.000000001309, 119.882063, 193.401726)" fill="none" stroke-linejoin="miter" d="M -0.000822996 2.500999 L 9.254386 2.500999 " stroke="#ff5b67" stroke-width="5" stroke-opacity="1" stroke-miterlimit="4"/><path stroke-linecap="butt" transform="matrix(0, -0.75, 0.75, 0, 49.170378, 193.721471)" fill="none" stroke-linejoin="miter" d="M -0.00157996 2.501996 L 6.878629 2.501996 " stroke="#ff5b67" stroke-width="5" stroke-opacity="1" stroke-miterlimit="4"/><path stroke-linecap="butt" transform="matrix(0, -0.75, 0.75, 0, 49.167431, 179.476863)" fill="none" stroke-linejoin="miter" d="M 0.000400152 2.500717 L 9.229567 2.500717 " stroke="#ff5b67" stroke-width="5" stroke-opacity="1" stroke-miterlimit="4"/><path stroke-linecap="butt" transform="matrix(0, -0.75, 0.75, 0, 61.168558, 167.086863)" fill="none" stroke-linejoin="miter" d="M 0.00123457 2.499214 L 7.699152 2.499214 " stroke="#ff5b67" stroke-width="5" stroke-opacity="1" stroke-miterlimit="4"/><path stroke-linecap="butt" transform="matrix(0, -0.75, 0.75, 0, 72.791969, 179.476395)" fill="none" stroke-linejoin="miter" d="M -0.000223848 2.501334 L 48.468529 2.501334 " stroke="#ff5b67" stroke-width="5" stroke-opacity="1" stroke-miterlimit="4"/><path stroke-linecap="butt" transform="matrix(0, -0.75, 0.75, 0, 84.420856, 168.045399)" fill="none" stroke-linejoin="miter" d="M -0.00196751 2.501359 L 24.175117 2.501359 " stroke="#ff5b67" stroke-width="5" stroke-opacity="1" stroke-miterlimit="4"/><path stroke-linecap="butt" transform="matrix(0, -0.75, 0.75, 0, 96.420005, 154.166241)" fill="none" stroke-linejoin="miter" d="M -0.00230356 2.502493 L 9.164364 2.502493 " stroke="#ff5b67" stroke-width="5" stroke-opacity="1" stroke-miterlimit="4"/><path stroke-linecap="butt" transform="matrix(0, -0.75, 0.75, 0, 107.879822, 170.584676)" fill="none" stroke-linejoin="miter" d="M -0.001682 2.498779 L 18.008736 2.498779 " stroke="#ff5b67" stroke-width="5" stroke-opacity="1" stroke-miterlimit="4"/><path stroke-linecap="butt" transform="matrix(0, -0.75, 0.75, 0, 119.879008, 177.43622)" fill="none" stroke-linejoin="miter" d="M -0.00170727 2.499865 L 9.138918 2.499865 " stroke="#ff5b67" stroke-width="5" stroke-opacity="1" stroke-miterlimit="4"/><g fill="#ef3340" fill-opacity="1"><g transform="translate(171.363728, 188.899968)"><g><path d="M 3.328125 -20.9375 L 3.328125 -0.953125 C 3.328125 -0.796875 3.40625 -0.695312 3.5625 -0.65625 C 4.707031 -0.414062 5.929688 -0.296875 7.234375 -0.296875 C 10.710938 -0.296875 13.378906 -1.238281 15.234375 -3.125 C 17.097656 -5.019531 18.03125 -7.726562 18.03125 -11.25 C 18.03125 -14.644531 17.113281 -17.21875 15.28125 -18.96875 C 13.457031 -20.71875 10.773438 -21.59375 7.234375 -21.59375 C 5.929688 -21.59375 4.707031 -21.472656 3.5625 -21.234375 C 3.40625 -21.203125 3.328125 -21.101562 3.328125 -20.9375 Z M 18.625 -11.25 C 18.625 -7.53125 17.644531 -4.675781 15.6875 -2.6875 C 13.726562 -0.695312 10.910156 0.296875 7.234375 0.296875 C 6.273438 0.296875 5.34375 0.238281 4.4375 0.125 C 3.9375 0.0390625 3.523438 -0.191406 3.203125 -0.578125 C 2.890625 -0.972656 2.734375 -1.421875 2.734375 -1.921875 L 2.734375 -19.984375 C 2.734375 -20.484375 2.882812 -20.921875 3.1875 -21.296875 C 3.5 -21.679688 3.894531 -21.910156 4.375 -21.984375 C 5.457031 -22.128906 6.410156 -22.203125 7.234375 -22.203125 C 10.910156 -22.203125 13.726562 -21.253906 15.6875 -19.359375 C 17.644531 -17.472656 18.625 -14.769531 18.625 -11.25 Z M 18.625 -11.25 "/></g></g></g><g fill="#ef3340" fill-opacity="1"><g transform="translate(191.373709, 188.899968)"><g><path d="M 8.28125 -15.296875 C 6.382812 -15.296875 4.894531 -14.707031 3.8125 -13.53125 C 2.726562 -12.351562 2.128906 -10.679688 2.015625 -8.515625 C 2.015625 -8.335938 2.09375 -8.25 2.25 -8.25 L 13.703125 -8.25 C 13.867188 -8.25 13.953125 -8.335938 13.953125 -8.515625 C 13.867188 -10.703125 13.34375 -12.378906 12.375 -13.546875 C 11.40625 -14.710938 10.039062 -15.296875 8.28125 -15.296875 Z M 8.578125 0.296875 C 6.359375 0.296875 4.601562 -0.425781 3.3125 -1.875 C 2.019531 -3.320312 1.375 -5.296875 1.375 -7.796875 C 1.375 -10.335938 1.984375 -12.320312 3.203125 -13.75 C 4.429688 -15.1875 6.125 -15.90625 8.28125 -15.90625 C 10.082031 -15.90625 11.519531 -15.332031 12.59375 -14.1875 C 13.675781 -13.050781 14.316406 -11.441406 14.515625 -9.359375 C 14.554688 -8.898438 14.410156 -8.5 14.078125 -8.15625 C 13.753906 -7.820312 13.351562 -7.65625 12.875 -7.65625 L 2.25 -7.65625 C 2.070312 -7.65625 1.984375 -7.5625 1.984375 -7.375 C 2.054688 -5.15625 2.671875 -3.421875 3.828125 -2.171875 C 4.992188 -0.921875 6.578125 -0.296875 8.578125 -0.296875 C 10.222656 -0.296875 11.734375 -0.6875 13.109375 -1.46875 C 13.285156 -1.570312 13.425781 -1.53125 13.53125 -1.34375 C 13.632812 -1.164062 13.59375 -1.03125 13.40625 -0.9375 C 11.90625 -0.113281 10.296875 0.296875 8.578125 0.296875 Z M 8.578125 0.296875 "/></g></g></g><g fill="#ef3340" fill-opacity="1"><g transform="translate(207.423692, 188.899968)"><g><path d="M 7.078125 -0.296875 C 8.597656 -0.296875 9.800781 -0.613281 10.6875 -1.25 C 11.582031 -1.894531 12.03125 -2.78125 12.03125 -3.90625 C 12.03125 -4.9375 11.640625 -5.757812 10.859375 -6.375 C 10.078125 -6.988281 8.796875 -7.460938 7.015625 -7.796875 C 5.179688 -8.160156 3.859375 -8.664062 3.046875 -9.3125 C 2.234375 -9.96875 1.828125 -10.863281 1.828125 -12 C 1.828125 -13.175781 2.300781 -14.117188 3.25 -14.828125 C 4.207031 -15.546875 5.484375 -15.90625 7.078125 -15.90625 C 8.734375 -15.90625 10.34375 -15.539062 11.90625 -14.8125 C 12.09375 -14.738281 12.144531 -14.609375 12.0625 -14.421875 C 11.976562 -14.242188 11.835938 -14.195312 11.640625 -14.28125 C 10.140625 -14.957031 8.617188 -15.296875 7.078125 -15.296875 C 5.660156 -15.296875 4.53125 -14.992188 3.6875 -14.390625 C 2.851562 -13.796875 2.4375 -13 2.4375 -12 C 2.4375 -11.101562 2.765625 -10.367188 3.421875 -9.796875 C 4.078125 -9.222656 5.316406 -8.757812 7.140625 -8.40625 C 9.054688 -8.019531 10.445312 -7.472656 11.3125 -6.765625 C 12.1875 -6.054688 12.625 -5.101562 12.625 -3.90625 C 12.625 -2.601562 12.125 -1.578125 11.125 -0.828125 C 10.125 -0.078125 8.773438 0.296875 7.078125 0.296875 C 5.273438 0.296875 3.601562 -0.148438 2.0625 -1.046875 C 1.90625 -1.148438 1.878906 -1.289062 1.984375 -1.46875 C 2.078125 -1.625 2.21875 -1.65625 2.40625 -1.5625 C 3.84375 -0.71875 5.398438 -0.296875 7.078125 -0.296875 Z M 7.078125 -0.296875 "/></g></g></g><g fill="#ef3340" fill-opacity="1"><g transform="translate(221.883679, 188.899968)"><g><path d="M 8.875 0.296875 C 6.632812 0.296875 4.820312 -0.441406 3.4375 -1.921875 C 2.0625 -3.398438 1.375 -5.359375 1.375 -7.796875 C 1.375 -10.296875 2.046875 -12.269531 3.390625 -13.71875 C 4.734375 -15.175781 6.5625 -15.90625 8.875 -15.90625 C 10.300781 -15.90625 11.613281 -15.601562 12.8125 -15 C 13.007812 -14.914062 13.050781 -14.773438 12.9375 -14.578125 C 12.851562 -14.441406 12.722656 -14.398438 12.546875 -14.453125 C 11.421875 -15.015625 10.195312 -15.296875 8.875 -15.296875 C 6.71875 -15.296875 5.03125 -14.632812 3.8125 -13.3125 C 2.59375 -12 1.984375 -10.160156 1.984375 -7.796875 C 1.984375 -5.554688 2.613281 -3.742188 3.875 -2.359375 C 5.132812 -0.984375 6.800781 -0.296875 8.875 -0.296875 C 10.195312 -0.296875 11.421875 -0.578125 12.546875 -1.140625 C 12.722656 -1.203125 12.851562 -1.160156 12.9375 -1.015625 C 13.050781 -0.816406 13.007812 -0.675781 12.8125 -0.59375 C 11.632812 0 10.320312 0.296875 8.875 0.296875 Z M 8.875 0.296875 "/></g></g></g><g fill="#ef3340" fill-opacity="1"><g transform="translate(236.973663, 188.899968)"><g><path d="M 12.625 -6.296875 L 12.625 -8.875 C 12.625 -9.0625 12.535156 -9.15625 12.359375 -9.15625 L 10.828125 -9.15625 C 8.109375 -9.15625 6.003906 -8.722656 4.515625 -7.859375 C 3.023438 -6.992188 2.28125 -5.773438 2.28125 -4.203125 C 2.28125 -3.003906 2.671875 -2.050781 3.453125 -1.34375 C 4.234375 -0.644531 5.289062 -0.296875 6.625 -0.296875 C 8.363281 -0.296875 9.796875 -0.859375 10.921875 -1.984375 C 12.054688 -3.117188 12.625 -4.554688 12.625 -6.296875 Z M 10.828125 -9.75 L 12.359375 -9.75 C 12.535156 -9.75 12.625 -9.828125 12.625 -9.984375 C 12.601562 -11.984375 12.25 -13.367188 11.5625 -14.140625 C 10.875 -14.910156 9.628906 -15.296875 7.828125 -15.296875 C 6.066406 -15.296875 4.40625 -14.878906 2.84375 -14.046875 C 2.664062 -13.941406 2.53125 -13.96875 2.4375 -14.125 C 2.332031 -14.3125 2.367188 -14.453125 2.546875 -14.546875 C 4.191406 -15.453125 5.953125 -15.90625 7.828125 -15.90625 C 9.804688 -15.90625 11.203125 -15.460938 12.015625 -14.578125 C 12.828125 -13.703125 13.234375 -12.144531 13.234375 -9.90625 L 13.234375 -4.203125 C 13.234375 -2.859375 13.363281 -1.566406 13.625 -0.328125 C 13.664062 -0.109375 13.582031 0 13.375 0 C 13.15625 0 13.023438 -0.109375 12.984375 -0.328125 C 12.828125 -1.128906 12.726562 -2.148438 12.6875 -3.390625 C 12.6875 -3.429688 12.664062 -3.453125 12.625 -3.453125 C 12.601562 -3.453125 12.59375 -3.429688 12.59375 -3.390625 C 12.070312 -2.253906 11.285156 -1.351562 10.234375 -0.6875 C 9.191406 -0.03125 7.988281 0.296875 6.625 0.296875 C 5.125 0.296875 3.925781 -0.109375 3.03125 -0.921875 C 2.132812 -1.742188 1.6875 -2.835938 1.6875 -4.203125 C 1.6875 -5.960938 2.476562 -7.328125 4.0625 -8.296875 C 5.65625 -9.265625 7.910156 -9.75 10.828125 -9.75 Z M 10.828125 -9.75 "/></g></g></g><g fill="#ef3340" fill-opacity="1"><g transform="translate(252.693644, 188.899968)"><g><path d="M 3.03125 -8.40625 L 3.03125 -0.296875 C 3.03125 -0.0976562 2.929688 0 2.734375 0 C 2.535156 0 2.4375 -0.0976562 2.4375 -0.296875 L 2.4375 -15.296875 C 2.4375 -15.492188 2.535156 -15.59375 2.734375 -15.59375 C 2.929688 -15.59375 3.03125 -15.492188 3.03125 -15.296875 L 3.03125 -11.15625 C 3.03125 -11.132812 3.039062 -11.125 3.0625 -11.125 C 3.082031 -11.125 3.09375 -11.132812 3.09375 -11.15625 C 3.707031 -12.539062 4.710938 -13.664062 6.109375 -14.53125 C 7.515625 -15.40625 9.085938 -15.863281 10.828125 -15.90625 C 11.023438 -15.90625 11.125 -15.800781 11.125 -15.59375 C 11.125 -15.394531 11.023438 -15.296875 10.828125 -15.296875 C 8.671875 -15.222656 6.832031 -14.519531 5.3125 -13.1875 C 3.789062 -11.851562 3.03125 -10.257812 3.03125 -8.40625 Z M 3.03125 -8.40625 "/></g></g></g><g fill="#ef3340" fill-opacity="1"><g transform="translate(265.623636, 188.899968)"><g><path d="M 5.4375 -4.203125 L 5.4375 -14.125 C 5.4375 -14.3125 5.34375 -14.40625 5.15625 -14.40625 L 1.984375 -14.40625 C 1.785156 -14.40625 1.6875 -14.503906 1.6875 -14.703125 C 1.6875 -14.898438 1.785156 -15 1.984375 -15 L 5.15625 -15 C 5.34375 -15 5.4375 -15.085938 5.4375 -15.265625 L 5.4375 -20.40625 C 5.4375 -20.601562 5.535156 -20.703125 5.734375 -20.703125 C 5.929688 -20.703125 6.03125 -20.601562 6.03125 -20.40625 L 6.03125 -15.265625 C 6.03125 -15.085938 6.117188 -15 6.296875 -15 L 12.1875 -15 C 12.382812 -15 12.484375 -14.898438 12.484375 -14.703125 C 12.484375 -14.503906 12.382812 -14.40625 12.1875 -14.40625 L 6.296875 -14.40625 C 6.117188 -14.40625 6.03125 -14.3125 6.03125 -14.125 L 6.03125 -4.203125 C 6.03125 -2.597656 6.273438 -1.546875 6.765625 -1.046875 C 7.253906 -0.546875 8.160156 -0.296875 9.484375 -0.296875 C 10.265625 -0.296875 11.003906 -0.40625 11.703125 -0.625 C 11.878906 -0.707031 12.007812 -0.640625 12.09375 -0.421875 C 12.15625 -0.265625 12.082031 -0.144531 11.875 -0.0625 C 11.0625 0.175781 10.265625 0.296875 9.484375 0.296875 C 7.941406 0.296875 6.878906 -0.0195312 6.296875 -0.65625 C 5.722656 -1.300781 5.4375 -2.484375 5.4375 -4.203125 Z M 5.4375 -4.203125 "/></g></g></g><g fill="#ef3340" fill-opacity="1"><g transform="translate(280.23362, 188.899968)"><g><path d="M 8.28125 -15.296875 C 6.382812 -15.296875 4.894531 -14.707031 3.8125 -13.53125 C 2.726562 -12.351562 2.128906 -10.679688 2.015625 -8.515625 C 2.015625 -8.335938 2.09375 -8.25 2.25 -8.25 L 13.703125 -8.25 C 13.867188 -8.25 13.953125 -8.335938 13.953125 -8.515625 C 13.867188 -10.703125 13.34375 -12.378906 12.375 -13.546875 C 11.40625 -14.710938 10.039062 -15.296875 8.28125 -15.296875 Z M 8.578125 0.296875 C 6.359375 0.296875 4.601562 -0.425781 3.3125 -1.875 C 2.019531 -3.320312 1.375 -5.296875 1.375 -7.796875 C 1.375 -10.335938 1.984375 -12.320312 3.203125 -13.75 C 4.429688 -15.1875 6.125 -15.90625 8.28125 -15.90625 C 10.082031 -15.90625 11.519531 -15.332031 12.59375 -14.1875 C 13.675781 -13.050781 14.316406 -11.441406 14.515625 -9.359375 C 14.554688 -8.898438 14.410156 -8.5 14.078125 -8.15625 C 13.753906 -7.820312 13.351562 -7.65625 12.875 -7.65625 L 2.25 -7.65625 C 2.070312 -7.65625 1.984375 -7.5625 1.984375 -7.375 C 2.054688 -5.15625 2.671875 -3.421875 3.828125 -2.171875 C 4.992188 -0.921875 6.578125 -0.296875 8.578125 -0.296875 C 10.222656 -0.296875 11.734375 -0.6875 13.109375 -1.46875 C 13.285156 -1.570312 13.425781 -1.53125 13.53125 -1.34375 C 13.632812 -1.164062 13.59375 -1.03125 13.40625 -0.9375 C 11.90625 -0.113281 10.296875 0.296875 8.578125 0.296875 Z M 8.578125 0.296875 "/></g></g></g><g fill="#ef3340" fill-opacity="1"><g transform="translate(296.283603, 188.899968)"><g><path d="M 7.078125 -0.296875 C 8.597656 -0.296875 9.800781 -0.613281 10.6875 -1.25 C 11.582031 -1.894531 12.03125 -2.78125 12.03125 -3.90625 C 12.03125 -4.9375 11.640625 -5.757812 10.859375 -6.375 C 10.078125 -6.988281 8.796875 -7.460938 7.015625 -7.796875 C 5.179688 -8.160156 3.859375 -8.664062 3.046875 -9.3125 C 2.234375 -9.96875 1.828125 -10.863281 1.828125 -12 C 1.828125 -13.175781 2.300781 -14.117188 3.25 -14.828125 C 4.207031 -15.546875 5.484375 -15.90625 7.078125 -15.90625 C 8.734375 -15.90625 10.34375 -15.539062 11.90625 -14.8125 C 12.09375 -14.738281 12.144531 -14.609375 12.0625 -14.421875 C 11.976562 -14.242188 11.835938 -14.195312 11.640625 -14.28125 C 10.140625 -14.957031 8.617188 -15.296875 7.078125 -15.296875 C 5.660156 -15.296875 4.53125 -14.992188 3.6875 -14.390625 C 2.851562 -13.796875 2.4375 -13 2.4375 -12 C 2.4375 -11.101562 2.765625 -10.367188 3.421875 -9.796875 C 4.078125 -9.222656 5.316406 -8.757812 7.140625 -8.40625 C 9.054688 -8.019531 10.445312 -7.472656 11.3125 -6.765625 C 12.1875 -6.054688 12.625 -5.101562 12.625 -3.90625 C 12.625 -2.601562 12.125 -1.578125 11.125 -0.828125 C 10.125 -0.078125 8.773438 0.296875 7.078125 0.296875 C 5.273438 0.296875 3.601562 -0.148438 2.0625 -1.046875 C 1.90625 -1.148438 1.878906 -1.289062 1.984375 -1.46875 C 2.078125 -1.625 2.21875 -1.65625 2.40625 -1.5625 C 3.84375 -0.71875 5.398438 -0.296875 7.078125 -0.296875 Z M 7.078125 -0.296875 "/></g></g></g><g fill="#ef3340" fill-opacity="1"><g transform="translate(139.20748, 212.149966)"><g><path d="M 1.4375 -9.078125 L 1.4375 -0.421875 C 1.4375 -0.347656 1.472656 -0.300781 1.546875 -0.28125 C 2.035156 -0.175781 2.566406 -0.125 3.140625 -0.125 C 4.640625 -0.125 5.789062 -0.535156 6.59375 -1.359375 C 7.40625 -2.179688 7.8125 -3.351562 7.8125 -4.875 C 7.8125 -6.34375 7.414062 -7.457031 6.625 -8.21875 C 5.832031 -8.976562 4.671875 -9.359375 3.140625 -9.359375 C 2.566406 -9.359375 2.035156 -9.304688 1.546875 -9.203125 C 1.472656 -9.179688 1.4375 -9.140625 1.4375 -9.078125 Z M 8.078125 -4.875 C 8.078125 -3.257812 7.648438 -2.019531 6.796875 -1.15625 C 5.953125 -0.300781 4.734375 0.125 3.140625 0.125 C 2.722656 0.125 2.316406 0.0976562 1.921875 0.046875 C 1.703125 0.015625 1.523438 -0.0820312 1.390625 -0.25 C 1.253906 -0.414062 1.1875 -0.609375 1.1875 -0.828125 L 1.1875 -8.65625 C 1.1875 -8.875 1.253906 -9.066406 1.390625 -9.234375 C 1.523438 -9.398438 1.691406 -9.5 1.890625 -9.53125 C 2.359375 -9.59375 2.773438 -9.625 3.140625 -9.625 C 4.734375 -9.625 5.953125 -9.210938 6.796875 -8.390625 C 7.648438 -7.566406 8.078125 -6.394531 8.078125 -4.875 Z M 8.078125 -4.875 "/></g></g></g><g fill="#ef3340" fill-opacity="1"><g transform="translate(147.875818, 212.149966)"><g><path d="M 3.59375 -6.625 C 2.769531 -6.625 2.125 -6.367188 1.65625 -5.859375 C 1.1875 -5.347656 0.925781 -4.625 0.875 -3.6875 C 0.875 -3.613281 0.90625 -3.578125 0.96875 -3.578125 L 5.9375 -3.578125 C 6.007812 -3.578125 6.046875 -3.613281 6.046875 -3.6875 C 6.015625 -4.632812 5.785156 -5.359375 5.359375 -5.859375 C 4.941406 -6.367188 4.351562 -6.625 3.59375 -6.625 Z M 3.71875 0.125 C 2.757812 0.125 2 -0.1875 1.4375 -0.8125 C 0.875 -1.4375 0.59375 -2.289062 0.59375 -3.375 C 0.59375 -4.476562 0.859375 -5.335938 1.390625 -5.953125 C 1.921875 -6.578125 2.65625 -6.890625 3.59375 -6.890625 C 4.375 -6.890625 4.992188 -6.640625 5.453125 -6.140625 C 5.921875 -5.648438 6.203125 -4.957031 6.296875 -4.0625 C 6.304688 -3.851562 6.238281 -3.675781 6.09375 -3.53125 C 5.957031 -3.382812 5.785156 -3.3125 5.578125 -3.3125 L 0.96875 -3.3125 C 0.894531 -3.3125 0.859375 -3.273438 0.859375 -3.203125 C 0.890625 -2.234375 1.15625 -1.476562 1.65625 -0.9375 C 2.164062 -0.394531 2.851562 -0.125 3.71875 -0.125 C 4.425781 -0.125 5.082031 -0.296875 5.6875 -0.640625 C 5.757812 -0.679688 5.816406 -0.660156 5.859375 -0.578125 C 5.898438 -0.503906 5.882812 -0.445312 5.8125 -0.40625 C 5.164062 -0.0507812 4.46875 0.125 3.71875 0.125 Z M 3.71875 0.125 "/></g></g></g><g fill="#ef3340" fill-opacity="1"><g transform="translate(154.828687, 212.149966)"><g><path d="M 2.359375 -1.8125 L 2.359375 -6.125 C 2.359375 -6.195312 2.316406 -6.234375 2.234375 -6.234375 L 0.859375 -6.234375 C 0.773438 -6.234375 0.734375 -6.273438 0.734375 -6.359375 C 0.734375 -6.453125 0.773438 -6.5 0.859375 -6.5 L 2.234375 -6.5 C 2.316406 -6.5 2.359375 -6.535156 2.359375 -6.609375 L 2.359375 -8.84375 C 2.359375 -8.925781 2.398438 -8.96875 2.484375 -8.96875 C 2.566406 -8.96875 2.609375 -8.925781 2.609375 -8.84375 L 2.609375 -6.609375 C 2.609375 -6.535156 2.648438 -6.5 2.734375 -6.5 L 5.28125 -6.5 C 5.363281 -6.5 5.40625 -6.453125 5.40625 -6.359375 C 5.40625 -6.273438 5.363281 -6.234375 5.28125 -6.234375 L 2.734375 -6.234375 C 2.648438 -6.234375 2.609375 -6.195312 2.609375 -6.125 L 2.609375 -1.8125 C 2.609375 -1.125 2.710938 -0.671875 2.921875 -0.453125 C 3.140625 -0.234375 3.535156 -0.125 4.109375 -0.125 C 4.441406 -0.125 4.757812 -0.171875 5.0625 -0.265625 C 5.144531 -0.304688 5.203125 -0.28125 5.234375 -0.1875 C 5.265625 -0.113281 5.234375 -0.0625 5.140625 -0.03125 C 4.785156 0.0703125 4.441406 0.125 4.109375 0.125 C 3.441406 0.125 2.984375 -0.0078125 2.734375 -0.28125 C 2.484375 -0.5625 2.359375 -1.070312 2.359375 -1.8125 Z M 2.359375 -1.8125 "/></g></g></g><g fill="#ef3340" fill-opacity="1"><g transform="translate(161.287709, 212.149966)"><g><path d="M 3.59375 -6.625 C 2.769531 -6.625 2.125 -6.367188 1.65625 -5.859375 C 1.1875 -5.347656 0.925781 -4.625 0.875 -3.6875 C 0.875 -3.613281 0.90625 -3.578125 0.96875 -3.578125 L 5.9375 -3.578125 C 6.007812 -3.578125 6.046875 -3.613281 6.046875 -3.6875 C 6.015625 -4.632812 5.785156 -5.359375 5.359375 -5.859375 C 4.941406 -6.367188 4.351562 -6.625 3.59375 -6.625 Z M 3.71875 0.125 C 2.757812 0.125 2 -0.1875 1.4375 -0.8125 C 0.875 -1.4375 0.59375 -2.289062 0.59375 -3.375 C 0.59375 -4.476562 0.859375 -5.335938 1.390625 -5.953125 C 1.921875 -6.578125 2.65625 -6.890625 3.59375 -6.890625 C 4.375 -6.890625 4.992188 -6.640625 5.453125 -6.140625 C 5.921875 -5.648438 6.203125 -4.957031 6.296875 -4.0625 C 6.304688 -3.851562 6.238281 -3.675781 6.09375 -3.53125 C 5.957031 -3.382812 5.785156 -3.3125 5.578125 -3.3125 L 0.96875 -3.3125 C 0.894531 -3.3125 0.859375 -3.273438 0.859375 -3.203125 C 0.890625 -2.234375 1.15625 -1.476562 1.65625 -0.9375 C 2.164062 -0.394531 2.851562 -0.125 3.71875 -0.125 C 4.425781 -0.125 5.082031 -0.296875 5.6875 -0.640625 C 5.757812 -0.679688 5.816406 -0.660156 5.859375 -0.578125 C 5.898438 -0.503906 5.882812 -0.445312 5.8125 -0.40625 C 5.164062 -0.0507812 4.46875 0.125 3.71875 0.125 Z M 3.71875 0.125 "/></g></g></g><g fill="#ef3340" fill-opacity="1"><g transform="translate(168.240578, 212.149966)"><g><path d="M 3.84375 0.125 C 2.875 0.125 2.085938 -0.191406 1.484375 -0.828125 C 0.890625 -1.472656 0.59375 -2.320312 0.59375 -3.375 C 0.59375 -4.457031 0.882812 -5.3125 1.46875 -5.9375 C 2.050781 -6.570312 2.84375 -6.890625 3.84375 -6.890625 C 4.457031 -6.890625 5.023438 -6.757812 5.546875 -6.5 C 5.640625 -6.46875 5.660156 -6.40625 5.609375 -6.3125 C 5.566406 -6.257812 5.507812 -6.242188 5.4375 -6.265625 C 4.945312 -6.503906 4.414062 -6.625 3.84375 -6.625 C 2.90625 -6.625 2.171875 -6.335938 1.640625 -5.765625 C 1.117188 -5.191406 0.859375 -4.394531 0.859375 -3.375 C 0.859375 -2.40625 1.128906 -1.617188 1.671875 -1.015625 C 2.222656 -0.421875 2.945312 -0.125 3.84375 -0.125 C 4.414062 -0.125 4.945312 -0.25 5.4375 -0.5 C 5.507812 -0.519531 5.566406 -0.5 5.609375 -0.4375 C 5.660156 -0.351562 5.640625 -0.296875 5.546875 -0.265625 C 5.035156 -0.00390625 4.46875 0.125 3.84375 0.125 Z M 3.84375 0.125 "/></g></g></g><g fill="#ef3340" fill-opacity="1"><g transform="translate(174.77758, 212.149966)"><g><path d="M 2.359375 -1.8125 L 2.359375 -6.125 C 2.359375 -6.195312 2.316406 -6.234375 2.234375 -6.234375 L 0.859375 -6.234375 C 0.773438 -6.234375 0.734375 -6.273438 0.734375 -6.359375 C 0.734375 -6.453125 0.773438 -6.5 0.859375 -6.5 L 2.234375 -6.5 C 2.316406 -6.5 2.359375 -6.535156 2.359375 -6.609375 L 2.359375 -8.84375 C 2.359375 -8.925781 2.398438 -8.96875 2.484375 -8.96875 C 2.566406 -8.96875 2.609375 -8.925781 2.609375 -8.84375 L 2.609375 -6.609375 C 2.609375 -6.535156 2.648438 -6.5 2.734375 -6.5 L 5.28125 -6.5 C 5.363281 -6.5 5.40625 -6.453125 5.40625 -6.359375 C 5.40625 -6.273438 5.363281 -6.234375 5.28125 -6.234375 L 2.734375 -6.234375 C 2.648438 -6.234375 2.609375 -6.195312 2.609375 -6.125 L 2.609375 -1.8125 C 2.609375 -1.125 2.710938 -0.671875 2.921875 -0.453125 C 3.140625 -0.234375 3.535156 -0.125 4.109375 -0.125 C 4.441406 -0.125 4.757812 -0.171875 5.0625 -0.265625 C 5.144531 -0.304688 5.203125 -0.28125 5.234375 -0.1875 C 5.265625 -0.113281 5.234375 -0.0625 5.140625 -0.03125 C 4.785156 0.0703125 4.441406 0.125 4.109375 0.125 C 3.441406 0.125 2.984375 -0.0078125 2.734375 -0.28125 C 2.484375 -0.5625 2.359375 -1.070312 2.359375 -1.8125 Z M 2.359375 -1.8125 "/></g></g></g><g fill="#ef3340" fill-opacity="1"><g transform="translate(181.236602, 212.149966)"><g><path d="M 1.96875 -9.625 L 1.96875 -8.453125 C 1.96875 -8.359375 1.921875 -8.3125 1.828125 -8.3125 C 1.742188 -8.3125 1.703125 -8.359375 1.703125 -8.453125 L 1.703125 -9.625 C 1.703125 -9.707031 1.742188 -9.75 1.828125 -9.75 C 1.921875 -9.75 1.96875 -9.707031 1.96875 -9.625 Z M 1.96875 -6.625 L 1.96875 -0.125 C 1.96875 -0.0390625 1.921875 0 1.828125 0 C 1.742188 0 1.703125 -0.0390625 1.703125 -0.125 L 1.703125 -6.625 C 1.703125 -6.71875 1.742188 -6.765625 1.828125 -6.765625 C 1.921875 -6.765625 1.96875 -6.71875 1.96875 -6.625 Z M 1.96875 -6.625 "/></g></g></g><g fill="#ef3340" fill-opacity="1"><g transform="translate(184.901481, 212.149966)"><g><path d="M 5.703125 -5.75 C 5.203125 -6.332031 4.519531 -6.625 3.65625 -6.625 C 2.789062 -6.625 2.109375 -6.332031 1.609375 -5.75 C 1.109375 -5.175781 0.859375 -4.382812 0.859375 -3.375 C 0.859375 -2.375 1.109375 -1.582031 1.609375 -1 C 2.109375 -0.414062 2.789062 -0.125 3.65625 -0.125 C 4.519531 -0.125 5.203125 -0.414062 5.703125 -1 C 6.203125 -1.582031 6.453125 -2.375 6.453125 -3.375 C 6.453125 -4.382812 6.203125 -5.175781 5.703125 -5.75 Z M 5.875 -0.8125 C 5.332031 -0.1875 4.585938 0.125 3.640625 0.125 C 2.703125 0.125 1.957031 -0.1875 1.40625 -0.8125 C 0.863281 -1.4375 0.59375 -2.289062 0.59375 -3.375 C 0.59375 -4.457031 0.863281 -5.3125 1.40625 -5.9375 C 1.957031 -6.570312 2.703125 -6.890625 3.640625 -6.890625 C 4.585938 -6.890625 5.332031 -6.570312 5.875 -5.9375 C 6.425781 -5.3125 6.703125 -4.457031 6.703125 -3.375 C 6.703125 -2.289062 6.425781 -1.4375 5.875 -0.8125 Z M 5.875 -0.8125 "/></g></g></g><g fill="#ef3340" fill-opacity="1"><g transform="translate(192.205237, 212.149966)"><g><path d="M 1.3125 -3.765625 L 1.3125 -0.125 C 1.3125 -0.0390625 1.265625 0 1.171875 0 C 1.085938 0 1.046875 -0.0390625 1.046875 -0.125 L 1.046875 -6.625 C 1.046875 -6.71875 1.085938 -6.765625 1.171875 -6.765625 C 1.265625 -6.765625 1.3125 -6.71875 1.3125 -6.625 L 1.3125 -5.109375 C 1.3125 -5.097656 1.316406 -5.09375 1.328125 -5.09375 C 1.335938 -5.09375 1.34375 -5.097656 1.34375 -5.109375 C 1.5625 -5.648438 1.890625 -6.082031 2.328125 -6.40625 C 2.765625 -6.726562 3.25 -6.890625 3.78125 -6.890625 C 4.601562 -6.890625 5.195312 -6.660156 5.5625 -6.203125 C 5.9375 -5.753906 6.125 -5.03125 6.125 -4.03125 L 6.125 -0.125 C 6.125 -0.0390625 6.078125 0 5.984375 0 C 5.898438 0 5.859375 -0.0390625 5.859375 -0.125 L 5.859375 -4.03125 C 5.859375 -4.96875 5.695312 -5.632812 5.375 -6.03125 C 5.0625 -6.425781 4.53125 -6.625 3.78125 -6.625 C 3.09375 -6.625 2.507812 -6.34375 2.03125 -5.78125 C 1.550781 -5.226562 1.3125 -4.554688 1.3125 -3.765625 Z M 1.3125 -3.765625 "/></g></g></g><g fill="#ef3340" fill-opacity="1"><g transform="translate(199.314055, 212.149966)"><g/></g></g><g fill="#ef3340" fill-opacity="1"><g transform="translate(202.900953, 212.149966)"><g><path d="M 5.703125 -5.75 C 5.203125 -6.332031 4.519531 -6.625 3.65625 -6.625 C 2.789062 -6.625 2.109375 -6.332031 1.609375 -5.75 C 1.109375 -5.175781 0.859375 -4.382812 0.859375 -3.375 C 0.859375 -2.375 1.109375 -1.582031 1.609375 -1 C 2.109375 -0.414062 2.789062 -0.125 3.65625 -0.125 C 4.519531 -0.125 5.203125 -0.414062 5.703125 -1 C 6.203125 -1.582031 6.453125 -2.375 6.453125 -3.375 C 6.453125 -4.382812 6.203125 -5.175781 5.703125 -5.75 Z M 5.875 -0.8125 C 5.332031 -0.1875 4.585938 0.125 3.640625 0.125 C 2.703125 0.125 1.957031 -0.1875 1.40625 -0.8125 C 0.863281 -1.4375 0.59375 -2.289062 0.59375 -3.375 C 0.59375 -4.457031 0.863281 -5.3125 1.40625 -5.9375 C 1.957031 -6.570312 2.703125 -6.890625 3.640625 -6.890625 C 4.585938 -6.890625 5.332031 -6.570312 5.875 -5.9375 C 6.425781 -5.3125 6.703125 -4.457031 6.703125 -3.375 C 6.703125 -2.289062 6.425781 -1.4375 5.875 -0.8125 Z M 5.875 -0.8125 "/></g></g></g><g fill="#ef3340" fill-opacity="1"><g transform="translate(210.204709, 212.149966)"><g><path d="M 2.75 -0.125 L 2.75 -6.125 C 2.75 -6.195312 2.707031 -6.234375 2.625 -6.234375 L 0.921875 -6.234375 C 0.835938 -6.234375 0.796875 -6.273438 0.796875 -6.359375 C 0.796875 -6.453125 0.835938 -6.5 0.921875 -6.5 L 2.625 -6.5 C 2.707031 -6.5 2.75 -6.535156 2.75 -6.609375 L 2.75 -7.671875 C 2.75 -8.347656 2.890625 -8.84375 3.171875 -9.15625 C 3.460938 -9.46875 3.925781 -9.625 4.5625 -9.625 C 4.84375 -9.625 5.148438 -9.570312 5.484375 -9.46875 C 5.554688 -9.4375 5.578125 -9.382812 5.546875 -9.3125 C 5.515625 -9.21875 5.457031 -9.191406 5.375 -9.234375 C 5.125 -9.316406 4.851562 -9.359375 4.5625 -9.359375 C 4.007812 -9.359375 3.609375 -9.222656 3.359375 -8.953125 C 3.117188 -8.691406 3 -8.265625 3 -7.671875 L 3 -6.609375 C 3 -6.535156 3.039062 -6.5 3.125 -6.5 L 5.46875 -6.5 C 5.5625 -6.5 5.609375 -6.453125 5.609375 -6.359375 C 5.609375 -6.273438 5.5625 -6.234375 5.46875 -6.234375 L 3.125 -6.234375 C 3.039062 -6.234375 3 -6.195312 3 -6.125 L 3 -0.125 C 3 -0.0390625 2.957031 0 2.875 0 C 2.789062 0 2.75 -0.0390625 2.75 -0.125 Z M 2.75 -0.125 "/></g></g></g><g fill="#ef3340" fill-opacity="1"><g transform="translate(216.793691, 212.149966)"><g/></g></g><g fill="#ef3340" fill-opacity="1"><g transform="translate(220.380589, 212.149966)"><g><path d="M 3.53125 -0.125 C 4.34375 -0.125 4.957031 -0.3125 5.375 -0.6875 C 5.789062 -1.070312 6 -1.625 6 -2.34375 C 6 -2.988281 5.804688 -3.515625 5.421875 -3.921875 C 5.035156 -4.328125 4.394531 -4.664062 3.5 -4.9375 C 1.789062 -5.46875 0.9375 -6.335938 0.9375 -7.546875 C 0.9375 -8.171875 1.160156 -8.671875 1.609375 -9.046875 C 2.066406 -9.429688 2.707031 -9.625 3.53125 -9.625 C 4.4375 -9.625 5.265625 -9.425781 6.015625 -9.03125 C 6.097656 -8.988281 6.117188 -8.929688 6.078125 -8.859375 C 6.035156 -8.796875 5.976562 -8.773438 5.90625 -8.796875 C 5.195312 -9.171875 4.40625 -9.359375 3.53125 -9.359375 C 2.800781 -9.359375 2.226562 -9.195312 1.8125 -8.875 C 1.40625 -8.550781 1.203125 -8.109375 1.203125 -7.546875 C 1.203125 -6.472656 1.992188 -5.691406 3.578125 -5.203125 C 4.515625 -4.910156 5.195312 -4.535156 5.625 -4.078125 C 6.050781 -3.628906 6.265625 -3.050781 6.265625 -2.34375 C 6.265625 -1.539062 6.023438 -0.925781 5.546875 -0.5 C 5.078125 -0.0820312 4.40625 0.125 3.53125 0.125 C 2.539062 0.125 1.664062 -0.148438 0.90625 -0.703125 C 0.820312 -0.753906 0.816406 -0.816406 0.890625 -0.890625 C 0.941406 -0.953125 1 -0.957031 1.0625 -0.90625 C 1.757812 -0.382812 2.582031 -0.125 3.53125 -0.125 Z M 3.53125 -0.125 "/></g></g></g><g fill="#ef3340" fill-opacity="1"><g transform="translate(227.489407, 212.149966)"><g><path d="M 5.703125 -5.75 C 5.203125 -6.332031 4.519531 -6.625 3.65625 -6.625 C 2.789062 -6.625 2.109375 -6.332031 1.609375 -5.75 C 1.109375 -5.175781 0.859375 -4.382812 0.859375 -3.375 C 0.859375 -2.375 1.109375 -1.582031 1.609375 -1 C 2.109375 -0.414062 2.789062 -0.125 3.65625 -0.125 C 4.519531 -0.125 5.203125 -0.414062 5.703125 -1 C 6.203125 -1.582031 6.453125 -2.375 6.453125 -3.375 C 6.453125 -4.382812 6.203125 -5.175781 5.703125 -5.75 Z M 5.875 -0.8125 C 5.332031 -0.1875 4.585938 0.125 3.640625 0.125 C 2.703125 0.125 1.957031 -0.1875 1.40625 -0.8125 C 0.863281 -1.4375 0.59375 -2.289062 0.59375 -3.375 C 0.59375 -4.457031 0.863281 -5.3125 1.40625 -5.9375 C 1.957031 -6.570312 2.703125 -6.890625 3.640625 -6.890625 C 4.585938 -6.890625 5.332031 -6.570312 5.875 -5.9375 C 6.425781 -5.3125 6.703125 -4.457031 6.703125 -3.375 C 6.703125 -2.289062 6.425781 -1.4375 5.875 -0.8125 Z M 5.875 -0.8125 "/></g></g></g><g fill="#ef3340" fill-opacity="1"><g transform="translate(234.793163, 212.149966)"><g><path d="M 1.3125 -3.703125 L 1.3125 -3.0625 C 1.3125 -2.125 1.523438 -1.398438 1.953125 -0.890625 C 2.378906 -0.378906 2.988281 -0.125 3.78125 -0.125 C 4.550781 -0.125 5.15625 -0.410156 5.59375 -0.984375 C 6.03125 -1.554688 6.25 -2.351562 6.25 -3.375 C 6.25 -4.375 6.023438 -5.164062 5.578125 -5.75 C 5.140625 -6.332031 4.539062 -6.625 3.78125 -6.625 C 2.988281 -6.625 2.378906 -6.367188 1.953125 -5.859375 C 1.523438 -5.347656 1.3125 -4.628906 1.3125 -3.703125 Z M 1.3125 -1.46875 L 1.3125 2.734375 C 1.3125 2.816406 1.265625 2.859375 1.171875 2.859375 C 1.085938 2.859375 1.046875 2.816406 1.046875 2.734375 L 1.046875 -6.625 C 1.046875 -6.71875 1.085938 -6.765625 1.171875 -6.765625 C 1.265625 -6.765625 1.3125 -6.71875 1.3125 -6.625 L 1.3125 -5.296875 C 1.3125 -5.285156 1.316406 -5.28125 1.328125 -5.28125 C 1.335938 -5.28125 1.34375 -5.285156 1.34375 -5.296875 C 1.757812 -6.359375 2.570312 -6.890625 3.78125 -6.890625 C 4.625 -6.890625 5.289062 -6.570312 5.78125 -5.9375 C 6.269531 -5.3125 6.515625 -4.457031 6.515625 -3.375 C 6.515625 -2.289062 6.269531 -1.4375 5.78125 -0.8125 C 5.289062 -0.1875 4.625 0.125 3.78125 0.125 C 2.570312 0.125 1.757812 -0.40625 1.34375 -1.46875 C 1.34375 -1.476562 1.335938 -1.484375 1.328125 -1.484375 C 1.316406 -1.484375 1.3125 -1.476562 1.3125 -1.46875 Z M 1.3125 -1.46875 "/></g></g></g><g fill="#ef3340" fill-opacity="1"><g transform="translate(241.96696, 212.149966)"><g><path d="M 1.375 -3.765625 L 1.375 -0.125 C 1.375 -0.0390625 1.332031 0 1.25 0 C 1.164062 0 1.125 -0.0390625 1.125 -0.125 L 1.125 -9.625 C 1.125 -9.707031 1.164062 -9.75 1.25 -9.75 C 1.332031 -9.75 1.375 -9.707031 1.375 -9.625 L 1.375 -5.109375 C 1.375 -5.097656 1.378906 -5.09375 1.390625 -5.09375 C 1.398438 -5.09375 1.40625 -5.097656 1.40625 -5.109375 C 1.625 -5.648438 1.953125 -6.082031 2.390625 -6.40625 C 2.828125 -6.726562 3.3125 -6.890625 3.84375 -6.890625 C 4.65625 -6.890625 5.25 -6.660156 5.625 -6.203125 C 6 -5.753906 6.1875 -5.03125 6.1875 -4.03125 L 6.1875 -0.125 C 6.1875 -0.0390625 6.140625 0 6.046875 0 C 5.960938 0 5.921875 -0.0390625 5.921875 -0.125 L 5.921875 -4.03125 C 5.921875 -4.96875 5.757812 -5.632812 5.4375 -6.03125 C 5.125 -6.425781 4.59375 -6.625 3.84375 -6.625 C 3.164062 -6.625 2.582031 -6.34375 2.09375 -5.78125 C 1.613281 -5.226562 1.375 -4.554688 1.375 -3.765625 Z M 1.375 -3.765625 "/></g></g></g><g fill="#ef3340" fill-opacity="1"><g transform="translate(249.140757, 212.149966)"><g><path d="M 1.96875 -9.625 L 1.96875 -8.453125 C 1.96875 -8.359375 1.921875 -8.3125 1.828125 -8.3125 C 1.742188 -8.3125 1.703125 -8.359375 1.703125 -8.453125 L 1.703125 -9.625 C 1.703125 -9.707031 1.742188 -9.75 1.828125 -9.75 C 1.921875 -9.75 1.96875 -9.707031 1.96875 -9.625 Z M 1.96875 -6.625 L 1.96875 -0.125 C 1.96875 -0.0390625 1.921875 0 1.828125 0 C 1.742188 0 1.703125 -0.0390625 1.703125 -0.125 L 1.703125 -6.625 C 1.703125 -6.71875 1.742188 -6.765625 1.828125 -6.765625 C 1.921875 -6.765625 1.96875 -6.71875 1.96875 -6.625 Z M 1.96875 -6.625 "/></g></g></g><g fill="#ef3340" fill-opacity="1"><g transform="translate(252.805636, 212.149966)"><g><path d="M 3.0625 -0.125 C 3.726562 -0.125 4.253906 -0.265625 4.640625 -0.546875 C 5.023438 -0.828125 5.21875 -1.207031 5.21875 -1.6875 C 5.21875 -2.132812 5.046875 -2.488281 4.703125 -2.75 C 4.367188 -3.019531 3.816406 -3.226562 3.046875 -3.375 C 2.242188 -3.53125 1.664062 -3.75 1.3125 -4.03125 C 0.96875 -4.3125 0.796875 -4.703125 0.796875 -5.203125 C 0.796875 -5.710938 1 -6.117188 1.40625 -6.421875 C 1.820312 -6.734375 2.375 -6.890625 3.0625 -6.890625 C 3.78125 -6.890625 4.476562 -6.734375 5.15625 -6.421875 C 5.238281 -6.390625 5.257812 -6.332031 5.21875 -6.25 C 5.1875 -6.175781 5.128906 -6.15625 5.046875 -6.1875 C 4.390625 -6.476562 3.726562 -6.625 3.0625 -6.625 C 2.445312 -6.625 1.957031 -6.492188 1.59375 -6.234375 C 1.226562 -5.972656 1.046875 -5.628906 1.046875 -5.203125 C 1.046875 -4.804688 1.1875 -4.484375 1.46875 -4.234375 C 1.757812 -3.992188 2.300781 -3.796875 3.09375 -3.640625 C 3.925781 -3.472656 4.53125 -3.234375 4.90625 -2.921875 C 5.28125 -2.617188 5.46875 -2.207031 5.46875 -1.6875 C 5.46875 -1.125 5.25 -0.679688 4.8125 -0.359375 C 4.382812 -0.0351562 3.800781 0.125 3.0625 0.125 C 2.28125 0.125 1.554688 -0.0664062 0.890625 -0.453125 C 0.828125 -0.492188 0.816406 -0.554688 0.859375 -0.640625 C 0.898438 -0.703125 0.960938 -0.710938 1.046875 -0.671875 C 1.660156 -0.304688 2.332031 -0.125 3.0625 -0.125 Z M 3.0625 -0.125 "/></g></g></g><g fill="#ef3340" fill-opacity="1"><g transform="translate(259.069719, 212.149966)"><g><path d="M 1.3125 -3.765625 L 1.3125 -0.125 C 1.3125 -0.0390625 1.265625 0 1.171875 0 C 1.085938 0 1.046875 -0.0390625 1.046875 -0.125 L 1.046875 -6.625 C 1.046875 -6.71875 1.085938 -6.765625 1.171875 -6.765625 C 1.265625 -6.765625 1.3125 -6.71875 1.3125 -6.625 L 1.3125 -5.25 C 1.3125 -5.238281 1.316406 -5.234375 1.328125 -5.234375 C 1.347656 -5.234375 1.359375 -5.242188 1.359375 -5.265625 C 1.546875 -5.753906 1.804688 -6.144531 2.140625 -6.4375 C 2.484375 -6.738281 2.859375 -6.890625 3.265625 -6.890625 C 4.265625 -6.890625 4.878906 -6.382812 5.109375 -5.375 C 5.109375 -5.351562 5.113281 -5.34375 5.125 -5.34375 C 5.132812 -5.34375 5.140625 -5.351562 5.140625 -5.375 C 5.296875 -5.84375 5.550781 -6.210938 5.90625 -6.484375 C 6.269531 -6.753906 6.6875 -6.890625 7.15625 -6.890625 C 7.820312 -6.890625 8.3125 -6.675781 8.625 -6.25 C 8.945312 -5.820312 9.109375 -5.171875 9.109375 -4.296875 L 9.109375 -0.125 C 9.109375 -0.0390625 9.066406 0 8.984375 0 C 8.898438 0 8.859375 -0.0390625 8.859375 -0.125 L 8.859375 -4.296875 C 8.859375 -5.109375 8.722656 -5.695312 8.453125 -6.0625 C 8.179688 -6.4375 7.75 -6.625 7.15625 -6.625 C 6.59375 -6.625 6.128906 -6.410156 5.765625 -5.984375 C 5.398438 -5.554688 5.21875 -4.992188 5.21875 -4.296875 L 5.21875 -0.125 C 5.21875 -0.0390625 5.171875 0 5.078125 0 C 4.992188 0 4.953125 -0.0390625 4.953125 -0.125 L 4.953125 -4.296875 C 4.953125 -5.109375 4.816406 -5.695312 4.546875 -6.0625 C 4.273438 -6.4375 3.847656 -6.625 3.265625 -6.625 C 2.765625 -6.625 2.3125 -6.359375 1.90625 -5.828125 C 1.507812 -5.296875 1.3125 -4.609375 1.3125 -3.765625 Z M 1.3125 -3.765625 "/></g></g></g><g fill="#ef3340" fill-opacity="1"><g transform="translate(269.167619, 212.149966)"><g><path d="M 3.0625 -0.125 C 3.726562 -0.125 4.253906 -0.265625 4.640625 -0.546875 C 5.023438 -0.828125 5.21875 -1.207031 5.21875 -1.6875 C 5.21875 -2.132812 5.046875 -2.488281 4.703125 -2.75 C 4.367188 -3.019531 3.816406 -3.226562 3.046875 -3.375 C 2.242188 -3.53125 1.664062 -3.75 1.3125 -4.03125 C 0.96875 -4.3125 0.796875 -4.703125 0.796875 -5.203125 C 0.796875 -5.710938 1 -6.117188 1.40625 -6.421875 C 1.820312 -6.734375 2.375 -6.890625 3.0625 -6.890625 C 3.78125 -6.890625 4.476562 -6.734375 5.15625 -6.421875 C 5.238281 -6.390625 5.257812 -6.332031 5.21875 -6.25 C 5.1875 -6.175781 5.128906 -6.15625 5.046875 -6.1875 C 4.390625 -6.476562 3.726562 -6.625 3.0625 -6.625 C 2.445312 -6.625 1.957031 -6.492188 1.59375 -6.234375 C 1.226562 -5.972656 1.046875 -5.628906 1.046875 -5.203125 C 1.046875 -4.804688 1.1875 -4.484375 1.46875 -4.234375 C 1.757812 -3.992188 2.300781 -3.796875 3.09375 -3.640625 C 3.925781 -3.472656 4.53125 -3.234375 4.90625 -2.921875 C 5.28125 -2.617188 5.46875 -2.207031 5.46875 -1.6875 C 5.46875 -1.125 5.25 -0.679688 4.8125 -0.359375 C 4.382812 -0.0351562 3.800781 0.125 3.0625 0.125 C 2.28125 0.125 1.554688 -0.0664062 0.890625 -0.453125 C 0.828125 -0.492188 0.816406 -0.554688 0.859375 -0.640625 C 0.898438 -0.703125 0.960938 -0.710938 1.046875 -0.671875 C 1.660156 -0.304688 2.332031 -0.125 3.0625 -0.125 Z M 3.0625 -0.125 "/></g></g></g><g fill="#ef3340" fill-opacity="1"><g transform="translate(275.431702, 212.149966)"><g/></g></g><g fill="#ef3340" fill-opacity="1"><g transform="translate(279.018601, 212.149966)"><g><path d="M 3.40625 -5.09375 C 2.550781 -4.519531 1.929688 -4.007812 1.546875 -3.5625 C 1.171875 -3.113281 0.984375 -2.660156 0.984375 -2.203125 C 0.984375 -1.546875 1.210938 -1.035156 1.671875 -0.671875 C 2.128906 -0.304688 2.769531 -0.125 3.59375 -0.125 C 4.914062 -0.125 5.96875 -0.597656 6.75 -1.546875 C 6.789062 -1.609375 6.789062 -1.664062 6.75 -1.71875 L 3.671875 -5.140625 C 3.617188 -5.203125 3.5625 -5.207031 3.5 -5.15625 C 3.488281 -5.144531 3.472656 -5.132812 3.453125 -5.125 C 3.441406 -5.113281 3.425781 -5.101562 3.40625 -5.09375 Z M 3.421875 -5.8125 L 3.5625 -5.65625 C 3.601562 -5.59375 3.660156 -5.585938 3.734375 -5.640625 C 4.515625 -6.191406 5.03125 -6.632812 5.28125 -6.96875 C 5.539062 -7.300781 5.671875 -7.664062 5.671875 -8.0625 C 5.671875 -8.476562 5.519531 -8.796875 5.21875 -9.015625 C 4.914062 -9.242188 4.476562 -9.359375 3.90625 -9.359375 C 3.382812 -9.359375 2.960938 -9.238281 2.640625 -9 C 2.316406 -8.757812 2.15625 -8.445312 2.15625 -8.0625 C 2.15625 -7.75 2.238281 -7.4375 2.40625 -7.125 C 2.570312 -6.8125 2.910156 -6.375 3.421875 -5.8125 Z M 3.59375 0.125 C 2.675781 0.125 1.96875 -0.078125 1.46875 -0.484375 C 0.976562 -0.890625 0.734375 -1.460938 0.734375 -2.203125 C 0.734375 -2.710938 0.925781 -3.203125 1.3125 -3.671875 C 1.695312 -4.148438 2.34375 -4.691406 3.25 -5.296875 C 3.257812 -5.296875 3.273438 -5.304688 3.296875 -5.328125 C 3.316406 -5.347656 3.332031 -5.363281 3.34375 -5.375 C 3.40625 -5.40625 3.410156 -5.445312 3.359375 -5.5 L 3.234375 -5.625 C 2.722656 -6.1875 2.367188 -6.640625 2.171875 -6.984375 C 1.984375 -7.335938 1.890625 -7.695312 1.890625 -8.0625 C 1.890625 -8.519531 2.078125 -8.894531 2.453125 -9.1875 C 2.835938 -9.476562 3.320312 -9.625 3.90625 -9.625 C 4.539062 -9.625 5.035156 -9.484375 5.390625 -9.203125 C 5.742188 -8.921875 5.921875 -8.539062 5.921875 -8.0625 C 5.921875 -7.59375 5.78125 -7.175781 5.5 -6.8125 C 5.226562 -6.445312 4.695312 -5.992188 3.90625 -5.453125 C 3.84375 -5.398438 3.835938 -5.347656 3.890625 -5.296875 L 6.828125 -2.03125 C 6.835938 -2.007812 6.851562 -2.003906 6.875 -2.015625 C 6.894531 -2.023438 6.90625 -2.035156 6.90625 -2.046875 L 6.90625 -5.453125 C 6.90625 -5.546875 6.945312 -5.59375 7.03125 -5.59375 C 7.113281 -5.59375 7.15625 -5.546875 7.15625 -5.453125 L 7.15625 -1.765625 C 7.15625 -1.691406 7.179688 -1.628906 7.234375 -1.578125 L 8.546875 -0.125 C 8.554688 -0.101562 8.554688 -0.078125 8.546875 -0.046875 C 8.535156 -0.015625 8.507812 0 8.46875 0 C 8.363281 0 8.269531 -0.0390625 8.1875 -0.125 L 7.078125 -1.359375 C 7.035156 -1.410156 6.984375 -1.410156 6.921875 -1.359375 C 6.097656 -0.367188 4.988281 0.125 3.59375 0.125 Z M 3.59375 0.125 "/></g></g></g><g fill="#ef3340" fill-opacity="1"><g transform="translate(287.71294, 212.149966)"><g/></g></g><g fill="#ef3340" fill-opacity="1"><g transform="translate(291.299839, 212.149966)"><g><path d="M 1.4375 -4.828125 L 1.4375 -0.125 C 1.4375 -0.0390625 1.394531 0 1.3125 0 C 1.226562 0 1.1875 -0.0390625 1.1875 -0.125 L 1.1875 -8.75 C 1.1875 -8.945312 1.257812 -9.117188 1.40625 -9.265625 C 1.550781 -9.410156 1.722656 -9.484375 1.921875 -9.484375 L 6.125 -9.484375 C 6.207031 -9.484375 6.25 -9.441406 6.25 -9.359375 C 6.25 -9.273438 6.207031 -9.234375 6.125 -9.234375 L 1.5625 -9.234375 C 1.476562 -9.234375 1.4375 -9.195312 1.4375 -9.125 L 1.4375 -5.3125 C 1.4375 -5.238281 1.476562 -5.203125 1.5625 -5.203125 L 5.859375 -5.203125 C 5.953125 -5.203125 6 -5.15625 6 -5.0625 C 6 -4.976562 5.953125 -4.9375 5.859375 -4.9375 L 1.5625 -4.9375 C 1.476562 -4.9375 1.4375 -4.898438 1.4375 -4.828125 Z M 1.4375 -4.828125 "/></g></g></g><g fill="#ef3340" fill-opacity="1"><g transform="translate(298.538615, 212.149966)"><g><path d="M 5.46875 -2.734375 L 5.46875 -3.84375 C 5.46875 -3.925781 5.429688 -3.96875 5.359375 -3.96875 L 4.6875 -3.96875 C 3.507812 -3.96875 2.597656 -3.78125 1.953125 -3.40625 C 1.304688 -3.03125 0.984375 -2.5 0.984375 -1.8125 C 0.984375 -1.300781 1.148438 -0.890625 1.484375 -0.578125 C 1.828125 -0.273438 2.289062 -0.125 2.875 -0.125 C 3.625 -0.125 4.242188 -0.367188 4.734375 -0.859375 C 5.222656 -1.347656 5.46875 -1.972656 5.46875 -2.734375 Z M 4.6875 -4.21875 L 5.359375 -4.21875 C 5.429688 -4.21875 5.46875 -4.253906 5.46875 -4.328125 C 5.457031 -5.191406 5.300781 -5.789062 5 -6.125 C 4.707031 -6.457031 4.171875 -6.625 3.390625 -6.625 C 2.628906 -6.625 1.910156 -6.441406 1.234375 -6.078125 C 1.160156 -6.035156 1.097656 -6.050781 1.046875 -6.125 C 1.003906 -6.195312 1.023438 -6.257812 1.109375 -6.3125 C 1.816406 -6.695312 2.578125 -6.890625 3.390625 -6.890625 C 4.253906 -6.890625 4.859375 -6.695312 5.203125 -6.3125 C 5.554688 -5.9375 5.734375 -5.265625 5.734375 -4.296875 L 5.734375 -1.8125 C 5.734375 -1.238281 5.789062 -0.679688 5.90625 -0.140625 C 5.914062 -0.046875 5.878906 0 5.796875 0 C 5.703125 0 5.644531 -0.046875 5.625 -0.140625 C 5.5625 -0.484375 5.519531 -0.925781 5.5 -1.46875 C 5.5 -1.488281 5.488281 -1.5 5.46875 -1.5 C 5.457031 -1.5 5.453125 -1.488281 5.453125 -1.46875 C 5.234375 -0.976562 4.894531 -0.585938 4.4375 -0.296875 C 3.976562 -0.015625 3.457031 0.125 2.875 0.125 C 2.21875 0.125 1.695312 -0.0507812 1.3125 -0.40625 C 0.925781 -0.757812 0.734375 -1.226562 0.734375 -1.8125 C 0.734375 -2.582031 1.078125 -3.175781 1.765625 -3.59375 C 2.453125 -4.007812 3.425781 -4.21875 4.6875 -4.21875 Z M 4.6875 -4.21875 "/></g></g></g><g fill="#ef3340" fill-opacity="1"><g transform="translate(305.348525, 212.149966)"><g><path d="M 1.96875 -9.625 L 1.96875 -0.125 C 1.96875 -0.0390625 1.921875 0 1.828125 0 C 1.742188 0 1.703125 -0.0390625 1.703125 -0.125 L 1.703125 -9.625 C 1.703125 -9.707031 1.742188 -9.75 1.828125 -9.75 C 1.921875 -9.75 1.96875 -9.707031 1.96875 -9.625 Z M 1.96875 -9.625 "/></g></g></g><g fill="#ef3340" fill-opacity="1"><g transform="translate(309.013403, 212.149966)"><g><path d="M 1.96875 -9.625 L 1.96875 -0.125 C 1.96875 -0.0390625 1.921875 0 1.828125 0 C 1.742188 0 1.703125 -0.0390625 1.703125 -0.125 L 1.703125 -9.625 C 1.703125 -9.707031 1.742188 -9.75 1.828125 -9.75 C 1.921875 -9.75 1.96875 -9.707031 1.96875 -9.625 Z M 1.96875 -9.625 "/></g></g></g><g fill="#ef3340" fill-opacity="1"><g transform="translate(312.678282, 212.149966)"><g><path d="M 5.46875 -2.734375 L 5.46875 -3.84375 C 5.46875 -3.925781 5.429688 -3.96875 5.359375 -3.96875 L 4.6875 -3.96875 C 3.507812 -3.96875 2.597656 -3.78125 1.953125 -3.40625 C 1.304688 -3.03125 0.984375 -2.5 0.984375 -1.8125 C 0.984375 -1.300781 1.148438 -0.890625 1.484375 -0.578125 C 1.828125 -0.273438 2.289062 -0.125 2.875 -0.125 C 3.625 -0.125 4.242188 -0.367188 4.734375 -0.859375 C 5.222656 -1.347656 5.46875 -1.972656 5.46875 -2.734375 Z M 4.6875 -4.21875 L 5.359375 -4.21875 C 5.429688 -4.21875 5.46875 -4.253906 5.46875 -4.328125 C 5.457031 -5.191406 5.300781 -5.789062 5 -6.125 C 4.707031 -6.457031 4.171875 -6.625 3.390625 -6.625 C 2.628906 -6.625 1.910156 -6.441406 1.234375 -6.078125 C 1.160156 -6.035156 1.097656 -6.050781 1.046875 -6.125 C 1.003906 -6.195312 1.023438 -6.257812 1.109375 -6.3125 C 1.816406 -6.695312 2.578125 -6.890625 3.390625 -6.890625 C 4.253906 -6.890625 4.859375 -6.695312 5.203125 -6.3125 C 5.554688 -5.9375 5.734375 -5.265625 5.734375 -4.296875 L 5.734375 -1.8125 C 5.734375 -1.238281 5.789062 -0.679688 5.90625 -0.140625 C 5.914062 -0.046875 5.878906 0 5.796875 0 C 5.703125 0 5.644531 -0.046875 5.625 -0.140625 C 5.5625 -0.484375 5.519531 -0.925781 5.5 -1.46875 C 5.5 -1.488281 5.488281 -1.5 5.46875 -1.5 C 5.457031 -1.5 5.453125 -1.488281 5.453125 -1.46875 C 5.234375 -0.976562 4.894531 -0.585938 4.4375 -0.296875 C 3.976562 -0.015625 3.457031 0.125 2.875 0.125 C 2.21875 0.125 1.695312 -0.0507812 1.3125 -0.40625 C 0.925781 -0.757812 0.734375 -1.226562 0.734375 -1.8125 C 0.734375 -2.582031 1.078125 -3.175781 1.765625 -3.59375 C 2.453125 -4.007812 3.425781 -4.21875 4.6875 -4.21875 Z M 4.6875 -4.21875 "/></g></g></g><g fill="#ef3340" fill-opacity="1"><g transform="translate(319.488191, 212.149966)"><g><path d="M 3.84375 0.125 C 2.875 0.125 2.085938 -0.191406 1.484375 -0.828125 C 0.890625 -1.472656 0.59375 -2.320312 0.59375 -3.375 C 0.59375 -4.457031 0.882812 -5.3125 1.46875 -5.9375 C 2.050781 -6.570312 2.84375 -6.890625 3.84375 -6.890625 C 4.457031 -6.890625 5.023438 -6.757812 5.546875 -6.5 C 5.640625 -6.46875 5.660156 -6.40625 5.609375 -6.3125 C 5.566406 -6.257812 5.507812 -6.242188 5.4375 -6.265625 C 4.945312 -6.503906 4.414062 -6.625 3.84375 -6.625 C 2.90625 -6.625 2.171875 -6.335938 1.640625 -5.765625 C 1.117188 -5.191406 0.859375 -4.394531 0.859375 -3.375 C 0.859375 -2.40625 1.128906 -1.617188 1.671875 -1.015625 C 2.222656 -0.421875 2.945312 -0.125 3.84375 -0.125 C 4.414062 -0.125 4.945312 -0.25 5.4375 -0.5 C 5.507812 -0.519531 5.566406 -0.5 5.609375 -0.4375 C 5.660156 -0.351562 5.640625 -0.296875 5.546875 -0.265625 C 5.035156 -0.00390625 4.46875 0.125 3.84375 0.125 Z M 3.84375 0.125 "/></g></g></g><g fill="#ef3340" fill-opacity="1"><g transform="translate(326.025194, 212.149966)"><g><path d="M 1.96875 -9.625 L 1.96875 -8.453125 C 1.96875 -8.359375 1.921875 -8.3125 1.828125 -8.3125 C 1.742188 -8.3125 1.703125 -8.359375 1.703125 -8.453125 L 1.703125 -9.625 C 1.703125 -9.707031 1.742188 -9.75 1.828125 -9.75 C 1.921875 -9.75 1.96875 -9.707031 1.96875 -9.625 Z M 1.96875 -6.625 L 1.96875 -0.125 C 1.96875 -0.0390625 1.921875 0 1.828125 0 C 1.742188 0 1.703125 -0.0390625 1.703125 -0.125 L 1.703125 -6.625 C 1.703125 -6.71875 1.742188 -6.765625 1.828125 -6.765625 C 1.921875 -6.765625 1.96875 -6.71875 1.96875 -6.625 Z M 1.96875 -6.625 "/></g></g></g><g fill="#ef3340" fill-opacity="1"><g transform="translate(329.690072, 212.149966)"><g><path d="M 3.59375 -6.625 C 2.769531 -6.625 2.125 -6.367188 1.65625 -5.859375 C 1.1875 -5.347656 0.925781 -4.625 0.875 -3.6875 C 0.875 -3.613281 0.90625 -3.578125 0.96875 -3.578125 L 5.9375 -3.578125 C 6.007812 -3.578125 6.046875 -3.613281 6.046875 -3.6875 C 6.015625 -4.632812 5.785156 -5.359375 5.359375 -5.859375 C 4.941406 -6.367188 4.351562 -6.625 3.59375 -6.625 Z M 3.71875 0.125 C 2.757812 0.125 2 -0.1875 1.4375 -0.8125 C 0.875 -1.4375 0.59375 -2.289062 0.59375 -3.375 C 0.59375 -4.476562 0.859375 -5.335938 1.390625 -5.953125 C 1.921875 -6.578125 2.65625 -6.890625 3.59375 -6.890625 C 4.375 -6.890625 4.992188 -6.640625 5.453125 -6.140625 C 5.921875 -5.648438 6.203125 -4.957031 6.296875 -4.0625 C 6.304688 -3.851562 6.238281 -3.675781 6.09375 -3.53125 C 5.957031 -3.382812 5.785156 -3.3125 5.578125 -3.3125 L 0.96875 -3.3125 C 0.894531 -3.3125 0.859375 -3.273438 0.859375 -3.203125 C 0.890625 -2.234375 1.15625 -1.476562 1.65625 -0.9375 C 2.164062 -0.394531 2.851562 -0.125 3.71875 -0.125 C 4.425781 -0.125 5.082031 -0.296875 5.6875 -0.640625 C 5.757812 -0.679688 5.816406 -0.660156 5.859375 -0.578125 C 5.898438 -0.503906 5.882812 -0.445312 5.8125 -0.40625 C 5.164062 -0.0507812 4.46875 0.125 3.71875 0.125 Z M 3.71875 0.125 "/></g></g></g><g fill="#ef3340" fill-opacity="1"><g transform="translate(336.642953, 212.149966)"><g><path d="M 3.0625 -0.125 C 3.726562 -0.125 4.253906 -0.265625 4.640625 -0.546875 C 5.023438 -0.828125 5.21875 -1.207031 5.21875 -1.6875 C 5.21875 -2.132812 5.046875 -2.488281 4.703125 -2.75 C 4.367188 -3.019531 3.816406 -3.226562 3.046875 -3.375 C 2.242188 -3.53125 1.664062 -3.75 1.3125 -4.03125 C 0.96875 -4.3125 0.796875 -4.703125 0.796875 -5.203125 C 0.796875 -5.710938 1 -6.117188 1.40625 -6.421875 C 1.820312 -6.734375 2.375 -6.890625 3.0625 -6.890625 C 3.78125 -6.890625 4.476562 -6.734375 5.15625 -6.421875 C 5.238281 -6.390625 5.257812 -6.332031 5.21875 -6.25 C 5.1875 -6.175781 5.128906 -6.15625 5.046875 -6.1875 C 4.390625 -6.476562 3.726562 -6.625 3.0625 -6.625 C 2.445312 -6.625 1.957031 -6.492188 1.59375 -6.234375 C 1.226562 -5.972656 1.046875 -5.628906 1.046875 -5.203125 C 1.046875 -4.804688 1.1875 -4.484375 1.46875 -4.234375 C 1.757812 -3.992188 2.300781 -3.796875 3.09375 -3.640625 C 3.925781 -3.472656 4.53125 -3.234375 4.90625 -2.921875 C 5.28125 -2.617188 5.46875 -2.207031 5.46875 -1.6875 C 5.46875 -1.125 5.25 -0.679688 4.8125 -0.359375 C 4.382812 -0.0351562 3.800781 0.125 3.0625 0.125 C 2.28125 0.125 1.554688 -0.0664062 0.890625 -0.453125 C 0.828125 -0.492188 0.816406 -0.554688 0.859375 -0.640625 C 0.898438 -0.703125 0.960938 -0.710938 1.046875 -0.671875 C 1.660156 -0.304688 2.332031 -0.125 3.0625 -0.125 Z M 3.0625 -0.125 "/></g></g></g></svg>